<mxfile host="65bd71144e">
    <diagram id="AzJzfQyMNAVQflsW9RXu" name="ページ1">
        <mxGraphModel dx="746" dy="750" grid="1" gridSize="10" guides="1" tooltips="1" connect="1" arrows="1" fold="1" page="1" pageScale="1" pageWidth="827" pageHeight="1169" math="0" shadow="0">
            <root>
                <mxCell id="0"/>
                <mxCell id="1" parent="0"/>
                <mxCell id="20" value="" style="rounded=0;whiteSpace=wrap;html=1;" parent="1" vertex="1">
                    <mxGeometry x="160" y="340" width="360" height="220" as="geometry"/>
                </mxCell>
                <mxCell id="32" value="" style="rounded=0;whiteSpace=wrap;html=1;" parent="1" vertex="1">
                    <mxGeometry x="194.5" y="370" width="295.5" height="150" as="geometry"/>
                </mxCell>
                <mxCell id="25" value="" style="rounded=0;whiteSpace=wrap;html=1;" parent="1" vertex="1">
                    <mxGeometry x="395" y="600" width="70" height="60" as="geometry"/>
                </mxCell>
                <mxCell id="2" value="開発者" style="shape=umlActor;verticalLabelPosition=bottom;verticalAlign=top;html=1;outlineConnect=0;" parent="1" vertex="1">
                    <mxGeometry x="70" y="80" width="40" height="80" as="geometry"/>
                </mxCell>
                <mxCell id="5" value="" style="shape=image;imageAspect=0;aspect=fixed;verticalLabelPosition=bottom;verticalAlign=top;image=data:image/png,iVBORw0KGgoAAAANSUhEUgAABwgAAAcJCAYAAADjz0YjAAAACXBIWXMAAC4jAAAuIwF4pT92AAAgAElEQVR42uzdzVFcWcKu7UdvnDlM1pqCB/BZAG2BaAugLBCvBeKzQLQFSlnQlAWVskDIgoOmOydgAWewNwVSCYmf/Nk/1xWRIVWpK6L7iQ5FVd251npze3sbAAAAAAAAYBr+xwQAAAAAAAAwHQIhAAAAAAAATIhACAAAAAAAABMiEAIAAAAAAMCECIQAAAAAAAAwIQIhAAAAAAAATIhACAAAAAAAABMiEAIAAAAAAMCECIQAAAAAAAAwIf/HBAAAAL9XS91Psv2TX9rtPo/53a//aD/J1pr+Z31+xn/2OsnlL379qvv8Q7No5v4fBAAA0B9vbm9vrQAAAIxSLXU7bXC78+MfJ8nhT/7SA+ut3Ne00fGh+Q9/fJXvo+NVs2iuTAcAAPA6AiEAANB7Pwl9hw9+/uPJPnFvOh5Gxh9POF4++DVhEQAA4AGBEAAA2Igfruw87H58GAK3k+xZiiX7lvtTiVcPfv53UHQlKgAAMHYCIQAAsFS11MPup7u5f3vv4Z/bsRIDcZP7U4l3AfHhScXLZtFcmwkAABgagRAAAHiyB/Hv7se7U4BO+zFld6cSH8bDefejiAgAAPSOQAgAACRJaqm7uT/1t5v76z7FP3i9u4h497mLidfNork0DwAAsE4CIQAATEQt9WHw28/3MdC1n7BZd9eZXv34aRbNlXkAAIBlEggBAGBEHpwCvAuBh90vHVgHBu1rHpw6THuFqdOHAADAiwiEAAAwMA9OAj6MgK4Bhem6u770YTx08hAAAHiUQAgAAD1VSz3M/XWgdzHQSUDgOe5OHs5zf2Xp3CwAADBtAiEAAGxYFwJ3u8/dz70JCKzS3ZuHd+8eXia5bBbNtWkAAGD8BEIAAFgTIRAYAOEQAAAmQCAEAIAlq6Xup41/+xECgXF4GA4v46pSAAAYNIEQAABeqJZ69z7gYe6D4J5lgAn5lu/D4WWzaK7MAgAA/SYQAgDAE9RSd9MGwLsguJ9kyzIA//DjacPLZtFcmgUAAPpDIAQAgB90V4Q+/BxYBeDVPuf7dw3nJgEAgM0QCAEAmDQxEGCjvub7k4ZzkwAAwOoJhAAATEZ3TehhxECAPruLhvO4nhQAAFZCIAQAYJRqqdu5j4F3P3ozEGCYPuf7aHhlEgAAeDmBEACAUailHub7GLhjFYDRukkXC3MfDa/NAgAATyMQAgAwON1VoQ9joKtCAXh4NencKUMAAHicQAgAQO/VUh/GwMM4HQjA7313yrBZNHOTAABASyAEAKB3uutC7z7eDgRgWR6+ZTh3LSkAAFMlEAIAsFG11O18HwNdFwrAunzN96cMr0wCAMAUCIQAAKzVD0HwMMmeVQDoiW/pThdGMAQAYMQEQgAAVkoQBGDABEMAAEZJIAQAYKkEQQBGTDAEAGAUBEIAAF5FEARgwh4Gw4tm0VybBACAIRAIAQB4tlrqYe6D4IFFACBJ8jXfnzAUDAEA6CWBEACA36ql7uc+CL61CAA8yefcx8K5OQAA6AuBEACAf+iuDT3KfRTcsQoAvMpNvr+O9MokAABsikAIAECSv68NvYuC3hEEgNX6luQiriMFAGADBEIAgImqpe6mjYF3UXDLKgCwMZ/TBcNm0VyaAwCAVRIIAQAmxClBABiEb+muIo3ThQAArIBACAAwYk4JAsAo3J0u9HYhAABLIRACAIxMLXU/bRA8ilOCADA2f79d2CyaC3MAAPASAiEAwAjUUu+C4GGSHYsAwCTc5P4q0gtXkQIA8FQCIQDAAP1wdehbiwAASb4mmaU9XXhpDgAAHiMQAgAMRHd16GGSk7g6FAD4tburSC+aRTM3BwAADwmEAAA91kXBk7QnBV0dCgC8xE3uY6F3CwEAEAgBAPrmwXuCR0m2LAIALNmf8W4hAMCkCYQAABtWS93O/XuCoiAAsE5iIQDABAmEAAAb0EXBuyD41iIAQA98TTJLGwuvzAEAMF4CIQDAmoiCAMCAiIUAACMmEAIArJAoCACMgFgIADAyAiEAwJKJggDAiImFAAAjIBACACyBKAgATJBYCAAwUAIhAMAr1FLvouCxNQCACfszyUXaWHhtDgCAfhMIAQCe6UEUPEqyZREAgO+IhQAAPScQAgA8QS11P8lJ9xEFAQCe5lPaUHhhCgCA/hAIAQAeUUvdTXKa9qTgjkUAAF7sJu2pwvNm0VyaAwBgswRCAIAHaqnbuT8puGcRAICl+5b7WHhlDgCA9RMIAQCS1FJP0p4UfGsNAIC1+ZpklmTmvUIAgPURCAGAyaqlHqY9KXgU7woCAGzan2nfK5yZAgBgtQRCAGBSuncFT7qPdwUBAPrHe4UAACsmEAIAo9e9K3iUNgoeWAQAYDC+JTlPe7LwyhwAAMshEAIAo+UKUQCAUXEFKQDAkgiEAMCouEIUAGD0XEEKAPBKAiEAMAq11JO0JwXfWgMAYDK+JpklmTWL5tocAABPIxACAIPVnRY8TXta0BWiAADT9iltKJybAgDg1wRCAGBQaqnbaU8KnibZswgAAD/4lvtThVfmAAD4J4EQABiEWup+2ih4FKcFAQB4mj/ThsILUwAA3BMIAYDecloQAIAlcaoQAOABgRAA6B2nBQEAWCGnCgGAyRMIAYDeqKWexGlBAADW4+5U4XmzaK7NAQBMiUAIAGxULXU3bRQ8idOCAABsxqe0pwrnpgAApkAgBAA2opZ697bggTUAAOiJb0nOklw4VQgAjJlACACsTS11O/enBXcsAgBAT90kuUhy1iyaK3MAAGMjEAIAK1dLPUwbBY+tAQDAwHxOe/3ozBQAwFgIhADAytRST9KeGNyzBgAAA/ctySzJuetHAYChEwgBgKWqpe6mPS14mmTLIgAAjNCntKHw0hQAwBAJhADAUrhGFACACXL9KAAwSAIhAPAqrhEFAADXjwIAwyIQAgDPVkvdThsFT5LsWAQAAJIkN0kukpw1i+bKHABAXwmEAMCTde8LnsU1ogAA8Duf04bCuSkAgL4RCAGA3+reFzxLcmANAAB4lm9pQ+HMFABAXwiEAMCjuvcFz+IaUQAAeK2bJOfxTiEA0AMCIQDwnQfvC54m2bIIAAAs3ad4pxAA2CCBEABI8t37gkcRBgEAYB3+THuicG4KAGCdBEIAmLjufcGTJMfWAACAjficZOadQgBgXQRCAJioLgyeJTmwBgAA9MK3tFePzkwBAKySQAgAE1NLPUkbBnesAQAAvXST5Dzt9aPX5gAAlk0gBIAJqKVup31b8CzCIAAADMVdKJw1i+bKHADAsgiEADBiXRg87T5bFgEAgMH6lPb60StTAACvJRACwAgJgwAAMFpCIQDwagIhAIxILXU37TWix9YAAIBR+5w2FM5NAQA8l0AIACMgDAIAwGQJhQDAswmEADBgwiAAANARCgGAJxMIAWCAaqmHad8XfGsNAADggW9pQ+HMFADAYwRCABiQLgyeJTmwBgAA8AtCIQDwKIEQAAZAGAQAAF5IKAQA/kEgBIAeEwYBAIAlEQoBgL8JhADQQ8IgAACwIkIhACAQAkCfCIMAAMCaCIUAMGECIQD0gDAIAABsiFAIABMkEALABgmDAABATwiFADAhAiEAbIAwCAAA9JRQCAATIBACwBrVUnfThsFjawAAAD32Nclps2jmpgCA8REIAWANhEEAAGCgPqc9UTg3BQCMh0AIACskDAIAACMhFALAiAiEALACtdTtJKdJ3lsDAAAYkc9JTppFc2UKABgugRAAluhBGDxNsmURAABgpD6lPVF4ZQoAGB6BEACWpJZ6FmEQAACYlk9JTptFc20KABgOgRAAXqmWepL2ncEdawAAABN0k+Q8yblQCADDIBACwAvVUg+TzCIMAgAAJF0obBbNmSkAoN8EQgB4pi4MniU5sAYAAMA/fEv7PuHMFADQTwIhADxRLXU37bU5b60BAADwW9+SnDSLZm4KAOgXgRAAfqOWup02DB5bAwAA4Nk+pz1RODcFAPSDQAgAj+jC4Gn32bIIAADAq3xKGwqvTAEAmyUQAsBP1FJP0p4aFAYBAACW6/9Pct4smmtTAMBmCIQA8EAt9TDJLMmONQAAAFbmJu1pwnNTAMD6CYQAkKSWup/2xOCBNQAAANbmW5LTZtFcmAIA1kcgBGDSuncGz5McWwMAAGBjPqc9UTg3BQCsnkAIwCR1YfC0+3hnEAAAoB8+pQ2FV6YAgNURCAGYnFrqSZKzeGcQAACgj27S3vRy3iyaa3MAwPIJhABMRi31MG0Y9M4gAABA/31Le5pwZgoAWC6BEIDRq6Xupg2D3hkEAAAYHu8TAsCSCYQAjJZ3BgEAAEbF+4QAsCQCIQCjVEs9SvtmhXcGAQAAxsP7hACwBAIhAKNSS93v/mHRO4MAAADj9S3JabNoLkwBAM8nEAIwCt11omdJ3lkDAABgMj6nDYWXpgCApxMIARi8Wupp2jjonUEAAIBp+k/a9wldOwoATyAQAjBYtdTDtNeJ7lkDAABg8m7SniacmQIAfk0gBGBwuutEz5McWwMAAIAffE0bCuemAICfEwgBGBTXiQIAAPBEn9KGQteOAsAPBEIABsF1ogAAALzATdq3Cc9NAQD3BEIAes11ogAAACyBa0cB4AGBEIDecp0oAAAAS+baUQCIQAhAD7lOFAAAgBW6SRsJZ6YAYKoEQgB6o7tO9CzJO2sAAACwYp/ThsJLUwAwNQIhAL1QSz1Je2rQdaIAAACs03+SnLl2FIApEQgB2Kha6m6SWZIDawAAALAh39KeJrwwBQBTIBACsBHddaKnSd5bAwAAgJ74M20ovDIFAGMmEAKwdrXUw7SnBnesAQAAQM/cpL1y9NwUAIyVQAjA2nSnBmdJ3loDAACAnvua5KRZNJemAGBsBEIA1qKWepLkPMmWNQAAABiQ/6Q9UXhtCgDGQiAEYKVqqbtpTw0eWAMAAICB+pb2bcILUwAwBgIhACtTSz1L8t4SAAAAjMSfaa8ddZoQgEETCAFYulrqYdrrRPesAQAAwMjcpL1y9NwUAAyVQAjA0tRSt5OcJXlnDQAAAEbuc9rThFemAGBo/scEACxDd2rwMuIgAAAA03CQ5P92z2sAwKA4QQjAq3SnBmdJ3loDAACAifqa9jThpSkAGAInCAF4sVrqUZKriIMAAABM216SL04TAjAUThAC8GxODQIAAMCjvqU9TTg3BQB9JRAC8Cy11JMk50m2rAEAAACP+k+Ss2bRXJsCgL4RCAF4klrqbtpTgwfWAAAAgCdxmhCAXvIGIQC/VUs9TXIZcRAAAACeYyfJX7XU8+65DgDoBScIAXiUU4MAAACwNE4TAtAbThAC8FNODQIAAMBSOU0IQG84QQjAd5waBAAAgJVzmhCAjXKCEIC/OTUIAAAAa+E0IQAb5QQhAOn+YWSW5K01AAAAYK2cJgRg7QRCgImrpR6ljYNb1gAAAICN+U+Ss2bRXJsCgFUTCAEmyqlBAAAA6J2vaU8TXpoCgFXyBiHABHWnBq8iDgIAAECf7CX5Uks9MwUAq+QEIcCEdKcGz5K8swYAAAD0mtOEAKyMQAgwEbXUw7RXiu5YAwAAAAbjf5tFc24GAJZJIASYgFrqeZwaBAAAgKH6nPY04ZUpAFgGgRBgxGqp+2lPDe5ZAwAAAAbtJm0kvDAFAK8lEAKMVC31NMkHSwAAAMCo/Jk2FF6bAoCXEggBRqaWupv21OCBNQAAAGCUvqWNhHNTAPAS/2MCgPGopR4luYw4CAAAAGO2k+SvWuq5KQB4CScIAUaglrqd5DzJsTUAAABgUr6mPU14aQoAnsoJQoCBq6Xupz01KA4CAADA9OwlmddST00BwFM5QQgwYLXUsyTvLQEAAAAk+ZzkqFk016YA4FcEQoABqqXuJpnFW4MAAADA927SRsK5KQB4jCtGAQamlnqU9kpRcRAAAAD40VaSv2qp56YA4DFOEAIMRC11O8l5vDUIAAAAPM3XJCfNork0BQAPOUEIMAC11P0k84iDAAAAwNPtJZnXUk9MAcBDThAC9Fwt9TTJB0sAAAAAr/Bn2tOE16YAQCAE6KnuStFZkrfWAAAAAJbgW5IjV44C4IpRgB6qpR4muYo4CAAAACzPTpIvtdQzUwBMmxOEAD3T/U36e0sAAAAAK/Q57WlCV44CTJBACNAT3ZWiF0kOrAEAAACswU3aSDg3BcC0uGIUoAceXCkqDgIAAADrspXkL1eOAkyPE4QAG+ZKUQAAAKAHXDkKMCECIcCG1FJ3014pumcNAAAAoAdcOQowEa4YBdiA7krRy4iDAAAAQH+4chRgIpwgBFgzV4oCAAAAA+DKUYAREwgB1qSWup32StEDawAAAAAD4MpRgJFyxSjAGnRXil5FHAQAAACGw5WjACPlBCHAirlSFAAAABgBV44CjIhACLAi3ZWisyRvrQEAAACMwLe0kfDSFADD5opRgBWope4nuYw4CAAAAIzHTpIvtdRTUwAMmxOEAEtWSz1J8tESAAAAwIh9SnLqylGAYRIIAZaku1L0PMmxNQAAAIAJ+JrkxJWjAMMjEAIsQS11N8lFkj1rAAAAABNykzYSXpgCYDi8QQjwSrXUo7TvDYqDAAAAwNRsJflvLfXcFADD4QQhwCvUUs+SvLcEAAAAQD4nOfIuIUD/CYQAL9C9N3iR5MAaAAAAAH+7SXLoXUKAfnPFKMAz1VL3014pKg4CAAAAfG8ryZda6okpAPpLIAR4hu5vbudJdqwBAAAA8KiPtdSZGQD6yRWjAE/UPbb9zhIAAAAAT/Y17ZWj3iUE6BGBEOA3vDcIAAAA8Co3SY6aRTM3BUA/uGIU4Be8NwgAAADwaltJ/vIuIUB/CIQAj/DeIAAAAMBSeZcQoCdcMQrwE94bBAAAAFgZ7xICbJhACPCA9wYBAAAA1uImbSS8NAXA+rliFKDTvTc4jzgIAAAAsGpbSb54lxBgMwRCgCS11KO0cXDPGgAAAABr87F76gWANXLFKDB5tdTTJB8sAQAAALAxn5MceZcQYD0EQmCyuvcGz5McWwMAAABg474mOfEuIcDqCYTAJHVxcB5XigIAAAD0yU3aSHhhCoDV8QYhMDm11P0kVxEHAQAAAPpmK8l/uydhAFgRgRCYlFrqSdqTg1vWAAAAAOitD7XUmRkAVsMVo8Bk1FLPkry3BAAAAMBgfE1y2Cyaa1MALI9ACIxe997geZJjawAAAAAMzrckR82iuTQFwHIIhMCodXFwHu8NAgAAAAzZTZKTZtFcmALg9bxBCIxWLXU/yVXEQQAAAICh20ry31rqiSkAXk8gBEaplnqU9uTgljUAAAAARuNjLXVmBoDXccUoMDq11NMkHywBAAAAMFqf075LeG0KgOcTCIFR6b5BdmwJAAAAgNH7mjYSXpkC4HkEQmAUaqnbSS6SHFgDAAAAYDJukhw2i+bSFABP5w1CYPBqqbtp3xsUBwEAAACmZSvJvJZ6YgqAp3OCEBi0Wup+2ji4ZQ0AAACASfvfZtGcmwHg95wgBAar+2bYPOIgAAAAAMmHWurMDAC/5wQhMEhdHPxoCQAAAAB+8DnJUbNork0B8HMCITA43TfBji0BAAAAwCO+JjkUCQF+TiAEBqOWup3kPOIgAAAAAL93kzYSXpoC4HsCITAIXRycJ9mzBgAAAABPdJP2utG5KQDu/Y8JgL6rpe5HHAQAAADg+baS/FVLPTEFwD2BEOg1cRAAAACAJfhYSz0zA0BLIAR6q/tm1zztN70AAAAA4DXe11JnZgDwBiHQU10c/GgJAAAAAJbszyQnzaK5NgUwVQIh0Du11PMk7ywBAAAAwIp8TXIoEgJT5YpRoFe6ax7EQQAAAABWaS/JvJa6bwpgipwgBHqhlrqdZJbkrTUAAAAAWJObtCcJL00BTIlACGxcFwfnab+5BQAAAADrdJPkqFk0c1MAU+GKUWCjaqm7EQcBAAAA2JytJH/VUk9MAUyFE4TAxnR3vM+7vwkDAAAAgE37o1k0MzMAY+cEIbAR4iAAAAAAPfSxljozAzB2AiGwdt11DV8iDgIAAADQP8ciITB2rhgF1qqLgx8tAQAAAEDPfUpy2iyaa1MAYyMQAmtTSz1N8sESAAAAAAzE1ySHIiEwNgIhsBbdtQzHlgAAAABgYERCYHS8QQisnDgIAAAAwIDtJZnXUvdNAYyFE4TASomDAAAAAIzETdqThJemAIZOIARWopa6nWSe9htWAAAAADAGIiEwCq4YBZZOHAQAAABgpLbiulFgBARCYKnEQQAAAABGbivJl1rqiSmAoRIIgaXpvjk1jzgIAAAAwPh9FAmBofIGIbAUD+LgljUAAAAAmJA/mkUzMwMwJE4QAq8mDgIAAAAwYU4SAoMjEAKvIg4CAAAAQD7WUmdmAIZCIAReTBwEAAAAgL8di4TAUAiEwIt01yZ8iTgIAAAAAHdEQmAQBELg2bo4+NESAAAAAPAPIiHQewIh8CziIAAAAAD8lkgI9Nqb29tbKwBPIg4CAAAAwLN8TnLULJprUwB9IhACTyIOAgAAAMCLfE1yKBICfeKKUeC3xEEAAAAAeLG9JPNa6rYpgL4QCIFfqqWeRhwEAAAAgNcQCYFeccUo8KjuIeVjSwAAAADAUrhuFOgFJwiBnxIHAQAAAGDpnCQEekEgBP5BHAQAAACAlREJgY0TCIHviIMAAAAAsHIiIbBRAiHwN3EQAAAAANZGJAQ2RiAEkoiDAAAAALABIiGwEQIhIA4CAAAAwOaIhMDaCYQwceIgAAAAAGycSAislUAIEyYOAgAAAEBviITA2giEMFHiIAAAAAD0jkgIrIVACBMkDgIAAABAb4mEwMoJhDAx4iAAAAAA9J5ICKyUQAgTIg4CAAAAwGCIhMDKCIQwEeIgAAAAAAyOSAishEAIEyAOAgAAAMBgiYTA0gmEMHK11LOIgwAAAAAwZCIhsFRvbm9vrQAjVUs9SfLREgAAAAAwCl+THDaL5toUwGs4QQgjJQ4CAAAAwOg4SQgshUAIIyQOAgAAAMBoiYTAqwmEMDLiIAAAAACM3l6SCzMALyUQwoiIgwAAAAAwGQe11JkZgJcQCGEkxEEAAAAAmJxjkRB4iTe3t7dWgIGrpR4l+a8lAAAAAGCSPjWL5sQMwFMJhDBwtdT9JPMkW9YAAAAAgMkSCYEnc8UoDJg4CAAAAAB0XDcKPJlACAMlDgIAAAAAPziupZ6aAfgdV4zCAImDAAAAAMAv/NEsmpkZgMcIhDAwtdTtJFcRBwEAAACAx4mEwKNcMQoD0sXBecRBAAAAAODXPtZST8wA/IwThDAQD+LgnjUAAAAAgCf6V7No5mYAHnKCEAZAHAQAAAAAXuiilrpvBuAhgRCGYRZxEAAAAAB4vq0kc5EQeEgghJ6rpc6SvLUEAAAAAPBCIiHwHYEQeqyLg8eWAAAAAABeaSvJrHvOCJg4gRB6qpZ6FnEQAAAAAFievbQnCUVCmLg3t7e3VoCeqaWeJPloCQAAAABgBb4mOWwWzbUpYJqcIISeEQcBAAAAgBXbSzIzA0yXE4TQI7XUwyR/WQIAAAAAWINPzaI5MQNMjxOE0BO11P0kF5YAAAAAANbkuJY6MwNMj0AIPdDFwXmSLWsAAAAAAGt03D17BEyIK0Zhw2qp20kuk+xYAwAAAADYkD+aRTMzA0yDQAgb1MXBedpHgQEAAAAANulfzaKZmwHGzxWjsFnziIMAAAAAQD9cdM8hASMnEMKGdI//ioMAAAAAQF9sJZmLhDB+AiFsQBcHjy0BAAAAAPTMVpJZ9zwSMFICIaxZLfU04iAAAAAA0F97aU8SioQwUgIhrFEt9STJB0sAAAAAAD23l2RmBhinN7e3t1aANeju7f5iCQAAAABgQD41i+bEDDAuThDCGnRxcG4JAAAAAGBgjmupZ2aAcXGCEFasu6f7Ku3jvgAAAAAAQ/RHs2hmZoBxcIIQVqiLg/OIgwAAAADAsH2spR6aAcZBIITVukj7mC8AAAAAwNBddM8pAQMnEMKK1FJnSQ4sAQAAAACMxFaSeXdzGjBgAiGsQPdo77ElAAAAAICREQlhBARCWLJa6kmS95YAAAAAAEZqL+3zSsBAvbm9vbUCLEl3//YXSwAAAAAAE/CpWTQnZoDhcYIQlqSLg3NLAAAAAAATcVxLPTUDDI8ThLAE3X3bl0l2rAEAAAAATMwfzaKZmQGGQyCEV+ri4DztvdsAAAAAAFP0/zWL5tIMMAyuGIXXO484CAAAAABM27x7hgkYAIEQXqGWepbk2BIAAAAAwMRtJZl1N64BPScQwgvVUk+SvLcEAAAAAECS9qa1CzNA/3mDEF6gOyr/xRIAAAAAAP/wqVk0J2aA/nKCEJ6plrqbZG4JAAAAAICfOq6lnpoB+ssJQniG7v7sedqj8gAAAAAAPO7fzaJx5Sj0kBOE8DwXEQcBAAAAAJ5i1j3XBPSMQAhPVEudJTmwBAAAAADAk2wluehuZgN6RCCEJ6ilniQ5tgQAAAAAwLPspH22CegRgRB+o5Z6mOSjJQAAAAAAXmSvu6EN6AmBEH6hux/bI7oAAAAAAK9zXEs9NQP0w5vb21srwE9092LPk+xZAwAAAABgKf7dLBqHMmDDnCCEx80iDgIAAAAALNOsu7kN2CCBEH6ilnqe5K0lAAAAAACWaivJRXeDG7AhAiH8oJZ6kuSdJQAAAAAAVmIniWtGYYO8QQgPdEfbv1gCAAAAAGDlPjWL5sQMsH4CIXS6I+1XaY+4AwAAAACwen80i2ZmBlgvV4zCvXnEQQAAAACAdfrY3ewGrJFACElqqbMke5YAAAAAAFi7eS111wywPgIhk1dLPU1ybAkAAAAAgI3YSnLRPQMFrIFAyKTVUg+TfLAEAAAAAMBG7SU5NwOsh0DIZHVH1i8sAQAAAADQC8fdjW/Air25vb21ApPTHVWfx7uDAAAAAMQ3MFoAACAASURBVAB9869m0czNAKvjBCFTdR5xEAAAAACgjy66G+CAFREImZzuiPqxJQAAAAAAemkrbSTcNgWshkDIpNRSD5N8sAQAAAAAQK/tpb0JDlgBbxAyGd23Ta7SfvsEAAAAAID++99m0QiFsGROEDIl84iDAAAAAABD8qGWum8GWC6BkEmopc7SHkkHAAAAAGBY5t4jhOUSCBm9WupJkmNLAAAAAAAM0lbaG+KAJREIGbXu6Ln7qQEAAAAAhm2vlurf9cKSvLm9vbUCo9QdOb9MsmMNAAAAAIBR+KNZNDMzwOs4QciYXUQcBAAAAAAYk/Pu5jjgFQRCRqmWepbkwBIAAAAAAKOylWTW3SAHvJBAyOjUUg+TvLcEAAAAAMAo7SWZmQFeTiBkVGqpu2mvFgUAAAAAYLze1lJPzQAvIxAyNhdpj5gDAAAAADBuH7ob5YBnEggZjVrqedqj5QAAAAAATMOF9wjh+QRCRqGWepLknSUAAAAAACZlK56dgmcTCBm8Wup+knNLAAAAAABM0kEt9cwM8HRvbm9vrcBgdUfH53G1KAAAAADA1P2rWTRzM8DvOUHI0Hl3EAAAAACApH2PcNcM8HsCIYPVvTt4bAkAAAAAAOI9QngygZBB8u4gAAAAAAA/sVdL9e+O4Te8QcjgeHcQAAAAAIDf+HezaJwmhEc4QcgQeXcQAAAAAIBfmXmPEB4nEDIo3h0EAAAAAOAJvEcIvyAQMhjeHQQAAAAA4Bm8RwiP8AYhg+DdQQAAAAAAXuhfzaKZmwHuOUHIUHh3EAAAAACAl7joDqEAHYGQ3qulHsW7gwAAAAAAvIz3COEHAiG9VkvdTTKzBAAAAAAAr3BQSz0zA7QEQvruIu23OwAAAAAA4DXe11IPzQACIT1WS/XuIAAAAAAAyzTzHiEIhPRU9y2Od5YAAAAAAGCJduJZKxAI6Z/u2xsejAUAAAAAYBXe1lJPzcCUCYT0kXcHAQAAAABYpbNa6r4ZmCqBkF7pvrVxYAkAAAAAAFZoK94jZMIEQnqj+7bGB0sAAAAAALAGe0nOzMAUvbm9vbUCG9d9S2Pe/YYMAAAAAADr8u9m0VyYgSlxgpC+OI84CAAAAADA+rlqlMkRCNm4WupRkmNLAAAAAACwAVtJnCBkUgRCNqqWuptkZgkAAAAAADbooJZ6agamQiBk02Zpv50BAAAAAACb9KGWum8GpkAgZGO6b2McWAIAAAAAgJ7wHiGTIBCyEd23MD5YAgAAAACAHtlLcmYGxu7N7e2tFVir7tsX8+43WgAAAAAA6Jt/N4vmwgyMlROEbMJZxEEAAAAAAPrLVaOMmkDIWtVSD5O8swQAAAAAAD22lWRmBsZKIGRtum9bOJINAAAAAMAQvK2lnpqBMRIIWadZ2m9dAAAAAADAEJzVUnfNwNgIhKxFLfUoyVtLAAAAAAAwIK4aZZQEQlau+3aF30ABAAAAABiig1rqmRkYE4GQdZjF1aIAAAAAAAzX+1rqvhkYC4GQleoecD2wBAAAAAAAAzczAWMhELIy3bcpziwBAAAAAMAI7NVSz83AGAiErNIsrhYFAAAAAGA83tVSD83A0AmErET3YOueJQAAAAAAGJlZLXXbDAyZQMjSdVeLvrcEAAAAAAAjtBPPazFwAiGrMDMBAAAAAAAj5qpRBk0gZKlcLQoAAAAAwES4apTBEghZGleLAgAAAAAwIa4aZbAEQpZpZgIAAAAAACbkXS31yAwMjUDIUrhaFAAAAACAiXLVKIMjEPJqrhYFAAAAAGDCtuKGPQZGIGQZ/MYHAAAAAMCUvXXVKEMiEPIqrhYFAAAAAIAkrhplQARCXszVogAAAAAA8DdXjTIYAiGv4Tc6AAAAAAC497aWemgG+k4g5EVcLQoAAAAAAD/lqlF6TyDk2VwtCgAAAAAAj9pJcmYG+kwg5CVmJgAAAAAAgEe9c9UofSYQ8iyuFgUAAAAAgCdx1Si9JRDyZK4WBQAAAACAJ3PVKL0lEPIc5yYAAAAAAIAnc9UovSQQ8iS11NMkB5YAAAAAAIBncfiG3hEI+a1a6m4cgwYAAAAAgJfYq6WemYE+EQh5ilmSLTMAAAAAAMCLvK+l7puBvhAI+aVa6lFcLQoAAAAAAK/lqlF6QyDkUbXU7bSnBwEAAAAAgNc5qKWemoE+EAj5lVlcLQoAAAAAAMtyVkvdNQObJhDyU7XUwyRvLQEAAAAAAEuzFTf30QMCIf/galEAAAAAAFiZg1rqkRnYJIGQnzlNsmMGAAAAAABYiVl3WAc2QiDkO7XU/STvLQEAAAAAACuzleTMDGyKQMiPZiYAAAAAAICVe1dLPTQDmyAQ8rda6mmSPUsAAAAAAMBazEzAJgiEJElqqbtxnBkAAAAAANZpp5Z6ZgbWTSDkznnaO48BAAAAAID1ed8d4oG1EQhJLfUoyVtLAAAAAADARsxMwDq9ub29tcKE1VK3k1wm2bEGAAAAAABszL+bRXNhBtbBCUJOIw4CAAAAAMCmzbpDPbByThBOWC11P8kXSwAAwMp9/smfu+o+j5mv8L/PfpLH/sXDdvfrP/trvFsOAACr9Z9m0ZyagVUTCCesljpPcmAJAAB4kq9JrrufX+U+7l2nvbb//7F3L8dxXOm2gJcYdw6cQe4pqi0g2gKWLCDaAhYtEGSBihYItECABRe0QEULGrBAwHTn4BIW6A4qeUhJfOBRj3x8XwRDUp+Ig6pVGUTuWvnv/dGH2tarCawnZklmn/1Pn//330tG6w4AALi/H2tbV2JgmxSEE1WaskjymyQAAJi4u3wq966yLvs+L/xualtvxLSxdcjnxeEsnwrF+Wf/myMQAACYuuva1mMxsE0Kwukuym9ieyAAACawsM6nwu/zfyr++r9m+fiFyPxv/zSNCADAFPxc23omBrZFQTjNxfZZkp8kAQDACHycALzp/vxvEVjb+kE8o17XzLt/nefTlqazmEAEAGA8a52ZdQ3boiCc5iL6d0kAADAw7/O3EtCZHHxj3XOcdWk4z6etTI9jFxUAAIblorZ1IQa2QUE4vYXyVZLnkgAAoKfe59MU4Cq2AmWz66GPk4Yfpw0//rviEACAvvrRw5Fsg4JwWovh0yS/SgIAgB64zqetQVdRBLLftdKXikNnHQIA0Iu1U23rsRjYNAXhtBa8N/FkLAAAu/dxKvAq6yJwJRIGso76vDCcx7QhAAD78aa2dSkGNklBOJ2F7XmSV5IAAGDLPi8Dr2pbr0TCyNZWs3yaNpxHaQgAwPbdJTm26wqbpCCcxgJ2nuR3SQAAsGEftwldRRnItNdcs/y1MLQ9KQAAm3ZR27oQA5uiIJzGYvUqyXNJAADwBHfpisAkK9uEwnfXYZ8XhvMkR1IBAOCJfrQWY1MUhONflJ4m+VUSAAA80G3WheAqpgNhE2uzWT6VhfN4iBMAgIe7rm09FgOboCAc9wL0MMlNnIcBAMA9Fpr564TgjUhg6+u1eT6VhrYlBQDgPn6ubT0TA0+lIBz3gvMsyU+SAADgC26TXKabEqxt/SAS2Psabp51WXgSE4YAAHzZXZKZNRxPpSAc78LyOMl/JQEAQOfzLUNNCEL/13QfJww//lEYAgDw0UVt60IMPIWCcLyLyVVsUQMAMGV3+Wsh6AxBGPYab5a/FoZHUgEAmLQfa1tXYuCxFITjXDgukvwmCQCAyfl4juClhSKMft338ezCk3g4FABgit7Xts7FwGMpCMe3SDxMchVPkwIATMHHKcHL2DYUpr4OnGddFs6tBwEAJuN1beu5GHgMBeH4FobLJL9IAgBgtG6zLgRNCQJfWxd+nC5cxNmFAABjdpdkVtv6QRQ8lIJwXIvAWZI/JAEAMDrXSc6zLgVvxAE8YJ14mPVk4UmSlxIBABidN7WtSzHwUArCcS38Li34AABG410+TQp6GhTY1LrxY1l4kuRAIgAAo/AvD5PyUArC8Szy5kl+lwQAwGDdpTtLMEpBYDfryI9nFp7EuYUAAEP2rrb1RAw8hIJwPAu7qzhbAgBgaD6Wgpe1rZfiAPa4pjzO+sxCZSEAwDD96Jx6HkJBOI6F3CLJb5IAABgEpSDQ9zWmshAAYHhua1tnYuC+FITDX7gdJrmJsyMAAPruXZJzpSAwsDXnx7JwYd0JANB7P9e2nomB+1AQDn+xtkzyiyQAAHrpXT5NCzpTEBj6+vMk66nCkygLAQD66C7JzPqT+1AQDntxNkvyhyQAAHrlOsl51tOCFmXAWNeji6yLwpfSAADolTe1rUsx8D0KwmEvyC4txgAAeuE260nBs9rWG3EAE1qXHmZdFJ4meS4RAIBe+Je1Kd+jIBzuImye5HdJAADszV3WpeB5betKHIB1apllXRSeJDmSCADA3ryrbT0RA9+iIBzuwmuV5IUkAAB27n3WW4g6VxDg62vWj2cVvpIGAMBe/OhhVr5FQTjMhdYiyW+SAADYGVuIAjxu/XqYZNH9sQUpAMDuXNe2HouBr1EQDnNxdRXbtQAA7MK7rLcQvRQFwJPXs8f5tAXpgUQAALbudW3ruRj4EgXh8BZUyyS/SAIAYGtus95C9Ny0IMBW1rWHWZeEpzFVCACw7fXtseMx+BIF4fAWUTfxpCUAwDaYFgTY/TrXVCEAwHa9qW1dioG/UxAOa+F0Hge8AwBs0l3W04LOFgTY73r341ThMo7UAADY9Lp3ZoqQv1MQDmexNEvyhyQAADbiOutS8FwUAL1b/86znip8KQ0AgI24qG1diIHPKQiHs0BaJXkhCQCApy2Kst5GdCUKgN6vg2dJFlmXhbYfBQB4mn/ZOYfPKQiHsSiaJ/ldEgAAj3KX5CzrYtBiCGCY6+JFbD8KAPAU72pbT8TARwrCYSyEVjE9CADwULdJlrYRBRjV+nge248CADzWj3bU4SMFYf8XP4skv0kCAODe3mddDFr0AIx3rTzLeqLwJLYfBQC493q5tnUuBhIF4RAWPTexhQoAwH1cZF0M3ogCYDJr5sOsJwqdUwgAcD+v7bRDoiDs+0LnNMmvkgAA+CrnCwLwcQ29iHMKAQC+57a2dSYGFIT9XdgcJrmJJyABAL64oElynuSstvWDOAD4bD29SLJI8kIaAABfZIoQBWGPFzTLJL9IAgDgL26z3kbUQgaA762r51lPFCoKAQD+6i7JzAO306Yg7OcixvQgAMBfXWc9LXguCgAeuMaeZz1R+EoaAAD/601t61IM06Ug7Ofi5dzCBQAgSfI+64nBlSgAeOJae5b1RKH1NgCAKcLJUxD2c8HyhyQAgIlTDAKwzXX3MopCAIC3ta2nYpgmBWH/FirnFikAwIQpBgHY1fp7FkUhAMC/altvxDA9CsJ+LU6Ok/xXEgDABCkGAdjXWnwWRSEAMF0Xta0LMUyPgrBfi5JVkheSAAAmRDEIQF/W5LMoCgGAaTJFOEEKwv4sROZJfpcEADARikEA+ro+n0VRCABMbI1e2zoXw7QoCPuzAFnF9CAAMH63SRaKQQAGsE6fRVEIAEzHj9bq06Ig7MeiYx7TgwDAuN1mPTF4LgoABrZmP05yFg/1AgDjZopwYhSE/VhsXCV5LgkAYIQUgwCMZe0+z3qiUFEIAIyVKcIJeSaCvS8wFlEOAgDjc5fkTZJj5SAAY1Dbuuqeqv9P1g/AAACMzVIE02GCcM9KU26SHEkCABiRN0nOals/iAKAEa/nF1l/iWZNDwCMiSnCiVAQ7n8x8ZskAICRuMh6O9EbUQAwkXX9YZLT7s+BRACAEbitbZ2JYfwUhPtdSNzEk4YAwPC9z7oYXIkCgImu7w+TnCV5JQ0AYAReOy5k/BSE+1s8LGJ6EAAYttskp7Wtl6IAgKQ0ZZbkPMkLaQAAQ17vmyIcPwXh/hYNNzE9CAAM013WE4NnogCAL67551lPFD6XBgAwUKYIR+6ZCPayUDiNchAAGKa3SWbKQQD4utrWVW3rcZLXWT9YAwAwNEsRjJsJwh3rziW4icPLAYBheZ9kUdt6IwoAePD3AKdJfpEGADAwpghHzATh7p1GOQgADMdtkv/Uts6VgwDwcLWtH2pbl0n+lfUDNwAAQ7EUwXiZINwh04MAwIDcJTnrvtAEADakO5/wPI4eAQCGwRThSJkg3C3TgwDAELxLcqwcBIDN684nnCV5E+cTAgD9txTBOJkg3BHTgwDAANxmfc7gShQAsH2lKbMkZ0leSgMA6DFThCNkgnB3TA8CAH11l+RNbetMOQgAu1PbelPbepLkx6wf1AEA6KOlCMbHBOEOmB4EAHrsXZLT2tYbUQDAfpWmLJP8IgkAoIdMEY6MCcLdMD0IAPTNbZL/1LaeKAcBoB+683//leS9NACAnlmKYFxMEG6Z6UEAoIfeJDmrbf0gCgDop9KUkyTn8X0CANAfpghHxATh9pkeBAD64jrJv2tbl8pBAOi32tbLJLMkb6UBAPTEUgTjYYJwi0wPAgA9cZdkWdt6JgoAGJ7SlHnW04RH0gAA9swU4UiYINwu04MAwL69T3KsHASA4aptXdW2zrLeJhwAYJ+WIhgHE4RbYnoQANizuySLbnsyAGAkSlOOk5wleSENAGBPTBGOgAnC7VlEOQgA7Me7JDPlIACMT23rVW3rPMnPWT8QBACwa0sRDJ8Jwi0pTbmJswEAgN0yNQgAE1KaMsv6bELThADArpkiHDgThNu5QV9EOQgA7NbbmBoEgEmpbb0xTQgA7MlSBMNmgnALTA8CADt0m/XU4EoUADBdpgkBgD0wRThgJgg3f0O+iHIQANiNd0mOlYMAgGlCAGAPliIYLhOEG2Z6EADYAWcNAgBfZZoQANghU4QDZYJwszfgiygHAYDtehdnDQIA3/C3aUIAgG1aiGCYTBBukOlBAGCLTA0CAA9WmnKc9TThc2kAAFvyo+NPhscE4eZuuOdRDgIA2/E+67MGlYMAwIPUtl7Vth4neSMNAGBLliIYHhOEG1Kasoq9/QGAzfu5tvVMDADAU3UPN5/HA84AwOaZIhwYE4Sbu8FWDgIAm3Sd5N/KQQBgU7ov7Y6TXEgDANiwpQiGxQThBpgeBAA27G1t66kYAIBtKU05yXqa8EAaAMCG/Ku29UYMw2CC8Ok31MdRDgIAm3GX9ZYcykEAYKu6s42Psz7rGABgE5YiGA4F4dP5Ag8A2IT3SWb26wcAdqW29aa2dZ7kjTQAgA14VZoyE8Mw2GL0CboL/Q9JAABP9LOzBgGAfep2SLpMciQNAOAJLmpbF2LoPxOET7MUAQDwBLdJ/q0cBAD2rbb1KustR99JAwB4glelKYdi6D8F4SN104OvJAEAPNK7JMfdl3EAAHtX2/qhtvUkyc/SAACewNFsA6AgfLyFCACAR7hL8rq29aS29YM4AIC+6XY3+HeSa2kAAI9waoqw/xSEj9Bd2BpwAOChrpPMa1vPRQEA9Fm3y8E8yYU0AIAHOogOpfcUhI9z2l3gAAD3dZF1OWhLUQBgELotRxdJXksDAHighQj6TUHowgYAtu/n2taFLUUBgCHqdj/4d5JbaQAA93RUmrIQQ38pCB+ou6CPJAEA3MNtkn935/gAAAxWtwvCcZJ30gAA7mkpgv764c8//5TCA5Sm3ERBCAB83/skJ6YGAYCxKU05TfKrJACAe/ixtnUlhv4xQfiwG+B5lIMAwPe9qW2dKwcBgDHqdkf4McmdNACA71iKoJ8UhC5kAGBz7pL8p7bVPQMAMGrdJMAsybU0AIBveFGaciyG/lEQ3lN3Ab+QBADwFddJjmtbL0UBAExBbeuH2tbjJBfSAAC+4VQE/aMgdAEDAE93kWRe23ojCgBgampbF0leSwIA+IpXpSkzMfSLgvAeugv3lSQAgC/4ubZ14bxBAGDKalvPk/w7ziUEAL7MEFbPKAjvZyECAOBv7pL8WNt6JgoAgKS29SrOJQQAvmxRmnIohv5QEH5Hd8FqtgGAz308b3AlCgCAT5xLCAB8xUEMY/WKgvD7TroLFwAgSd7FeYMAAN/kXEIA4AsMY/WIgvD7liIAADpvaltPnDcIAPB93bmEP8a5hADA2lFpykIM/aAg/IbSlJMkR5IAgMm7S/K6tnUpCgCA++u2ZD+OcwkBgLWFCPpBQfhtxl0BgLustxQ9FwUAwMN1W7PPs96qHQCYthelKXMx7J+C8CtKU46TvJAEAEzadZJZbeuVKAAAHq+29UNt60mSC2kAwOQtRLB/CsKvMz0IANP2LuvJQecNAgBsSG3rIslrSQDApL0qTZmJYb8UhF9QmnKY5JUkAGCyLmpbT5SDAACb123d/mPWW7kDANO0EMF+KQi/zPQgAEzX6+7JdgAAtqS2dZX1uYS30gCASdLD7JmC0IUJAKzdJflP90Q7AABb1p3zfJz1uc8AwLQclKYsxLA/CsK/6S7IA0kAwKTcZX3e4KUoAAB2p9vSfZ71+c8AwLQsRbA/CsJ/Mj0IANNynWTWPcEOAMCO1bZ+qG09SXIhDQCYlKPSlLkY9kNB+JnuQnwuCQCYjPdZTw5+EAUAwH5150C/lgQATIqhrT1REP7VQgQAMBkXta3KQQCAHunOg1YSAsB0vCxNmYlh9xSEne4CfCUJAJiEt90T6gAA9ExXEv4763OiAYDxM0W4BwrCTxYiAIBJeF3b6sYTAKDHuvOh51ESAsAULESwewpCFyAATMnr7ol0AAB6risJj5NcSwMARu2gNGUhht1SECbpLrwjSQDAaN0l+VE5CAAwLLWtN1lPEioJAWDc7Pa0YwrCtYUIAGC07pLMa1tXogAAGJ7a1g9Zl4TvpQEAo/W8NGUuht2ZfEFYmnKc5IVLAQBG6TbrcvBKFAAAw1Xb+qG2dZ7kQhoAMFoLEeyOCUJjqwAwVtdJjpWDAADjUdu6iJIQAMbqVWnKoRh2Y9IFYXehnbgMAGB0rrOeHPwgCgCAcelKwreSAIBRMtS1I1OfIDxJcuAyAIBRUQ4CAIxcbetpkteSAIDRWYhgN6ZeEC5dAgAwKu+iHAQAmITa1vMoCQFgbI5KU+z8uAOTLQhLU+ZJjlwCADAaF7WtJ8pBAIDpUBICwCgtRLB9z1xgAMAIXHRn0QAAMDFKQgAYnZelKTMxbNckC8LSlMMkr3z8ADAKykEAgInrSsIfk9xJAwBG4VQE2/XMhQUADJhyEACAJElt6yrJPEpCABiDhQi265kLCwAYKOUgAAB/Udt6FSUhAIzBQWnKQgzbM7mCsDTlJMmRjx4ABk05CADAFykJAWA0FiLYnmcuKABgYH5WDgIA8C1KQgAYhRelKTMxbMekCsLuQnrpYweAwXpd23omBgAAvkdJCACjcCqC7ZjaBOHCRw4Ag/W6tvVcDAAA3JeSEAAGbyGC7VAQAgBDoBwEAOBRlIQAMGgHpSkLMWzeZArC0pSTJEc+cgAYHOUgAABPoiQEgEFbiGDznrmAAIAee6McBABgE5SEADBYL0pTZmLYrEkUhKUph0le+rgBYFAualuXYgAAYFOUhAAwWKci2KypTBAufNQAMCgXta1+fwMAsHFKQgAYpIUINmsqBaFmGQCGQzkIAMBWKQkBYHAOSlNOxLA5oy8IS1PmSY581AAwCMpBAAB2oisJfdEIAMOxEMHmPHPBAAA9oRwEAGCnaltXSV5LAgAG4WVpykwMmzHqgrA05TDJKx8zAPSechAAgL2obT2PkhAAhmIhgs0Y+wShbSIAoP+ulYMAAOyTkhAABmMhgs0Ye0F46iMGgF67TjIXAwAA+6YkBIBBOCpNmYvh6UZbEJamHCd57iMGgN66TjKvbf0gCgAA+qArCd9KAgB6bSGCp3vmAgEA9kA5CABAL9W2nia5kAQA9Nar0pRDMTyNghAA2LW7JCfKQQAA+qo7I1tJCAD9dSKCpxllQViacpLkwMcLAL1zl/Xk4I0oAADos64kfCcJAOilUxE8zVgnCBc+WgDonY/l4JUoAAAYiEXW2+MDAP3yvDRlJobHG11B2O07+9JHCwC9c6ocBABgSLpt8edREgJAH5kifIIxThAufKwA0Duva1vPxQAAwNB8VhLeSQMAesU5hE+gIAQAtu1n5SAAAEOmJASAXjoqTVESPtKoCsLSlOMkz32sANAbF7WtZ2IAAGDouu3y55IAgF5RED7S2CYIFz5SAOiNi9pWv5sBABiNriR8LQkA6I1XpSmHYng4BSEAsA3XcVA0AAAj1G2fryQEgP4wRfgIoykIu31mD3ykALB310nm3TktAAAwOl1JeCEJAOiFhQgebkwThBpiANi/uyQL5SAAAGPXbaevJASA/XtRmjITw8OMoiDs9pd95eMEgL2bd+eyAADAFJxmvYMGALBfCxE8zFgmCE0PAsD+vVYOAgAwJd3OGfMkt9IAgL1aiOBhnvngAYANeNOdwwIAAJPSlYQnWW+3DwDsx1FpyrEY7m/wBWG3r+wLHyUA7M1FbetSDAAATFW3k4YdrgBgv05FcH9jmCB08wUA+3Nd27oQAwAAU1fbukryWhIAsDf6ogcYQ0GoEQaA/bjO+rwVAAAgSbft/ltJAMBeHJSmKAnvadAFYbef7JGPEQB27i7JojtvBQAA6NS2niZ5JwkA2AsF4T0NfYJw4SMEgP3cbHXnrAAAAP+0yHrHDQBgt16VphyK4fuGXhBqggFg937uzlcBAAC+oNtp4yTrnTcAgN3SHd3DYAvC0pR5bC8KALt2Udt6JgYAAPi22tab+IISAPbB7997GPIE4cLHBwA7dV3b6vcvAADcU7fzxmtJAMBOvbTN6PcNuSDUAAPA7twmmYsBAAAeprb1PMmFJABgpxYi+LZBFoSlKSdJDnx8ALATd0lOunNUAACAB+p24riWBADszEIE3zbUCULTgwCwO6e1rVdiAACAJ5lnvTMHALB9z0tTZmL4OgUhAPAtb7stkQAAgCfoduQ4yXqHDgBg+3RJ3zC4grA0ZRHbiwLALryvm777xgAAIABJREFUbT0VAwAAbEa3M4d7bADYjYUIvm6IE4QaXwDYvlu/cwEAYPO6HTouJAEAW2eb0W8YVEFYmnKY5KWPDQC27qTbAgkAANiw2tZFkmtJAMDWeQD+K575IAGAv3ndbX0EAABszzzOIwSAbbO191coCAGAz110Wx4BAABb1O3Y4bsuANiuo9KUYzH802AKQtuLAsDWXcdTVQAAsDO1raskP0sCALZqIYJ/GtIEoSeqAGB77uLcQQAA2Lna1rMk7yQBAFujX/oCBSEAkCSL2tYbMQAAwH7ux5PcigEAtsI2o18wiILQ9qIAsFVva1svxQAAAPvx2XmEd9IAgK1YiOCvhjJBaHoQALbjfW2rcwcBAGDPaluv4kxwANgWPdPfKAgBYLru/I4FAID+qG09T3IhCQDYONuM/k3vC0LbiwLA1px0WxkBAAD9cZrkWgwAsHELEXwyhAlCkw0AsHlvaltXYgAAgH7pHuJbxHmEALBp+qbPKAgBYHqua1uXYgAAgH5yHiEAbIVtRj/T64LQ9qIAsHHOHQQAgAHoziN8JwkA2Ki5CNb6PkHoC0wA2KxFbeuNGAAAYBj370luxQAAG/3dShSEADAlb2tbL8UAAADD0J1H6PsxANic56UpMzH0vyC0vSgAbMZ1kqUYAABgWLrzCN9IAgA2xsM36XFBWJriAwKAzbjLemvRD6IAAIDhqW1dJnkvCQDYiIUI+j1BqCAEgM1Ydk8dAwAAw3WS9cN/AMDT2GY0CkIAGLt3ta1nYgAAgGHrdgRZSAIANmLyHVQvC8Jue9ED1ycAPMldfIEAAACjUdt6meRCEgDwZApCHwwAjJZzBwEAYHxOk9yKAQCe5EVpyuGUA+hrQTh3bQLAk7ztni4GAABGpHsI0MP1APB0k/592ruCsDTlOMmR6xIAHu02yVIMAAAwTrWtV0neSAIAnkRB2DML1yQAPO3mxtaiAAAwbrWtyyTXkgCAR3s55Tffx4LQFgkA8HhvuqeJAQCA8VskuRMDADxOacpkO6lnPfsgZrG9KAA81nX3FDEAADAB3cOB1gAA8HgKQh8EAAzeQgQAADAtta1nSd5LAgAeRUHYEwvXIgA8iq1FAQBguhax1SgAPMZBacrxFN94bwrC0pTDJM9diwDwYLYWBQCACattvYmtRgHgsRZTfNN9miC0vSgAPNyd36EAAICtRgHg0Sb53ZqCEACGbdk9LQwAALCIrUYB4KGOSlNmU3vTfSoI565BAHiQ991TwgAAALYaBYDHm9wQWy8KwtKUkyQHrj8AeJBTEQAAAJ+z1SgAPIqCcE/mrj0AeJA3ta1XYgAAAL5gEVuNAsBDvChNOZzSG+5LQej8QQC4v+va1qUYAACAL7HVKAA8yqS6qr0XhKUpx0mOXHcAcG8LEQAAAN9iq1EAeLD5lN7sM4EDwKDYWhQAALivhQgA4N5MEAocAHrp1taiAADAfXVbjb6RBADcy0G36+Uk7LUg7A58fOGaA4B7WYgAAAB4iO4hw2tJAMC9LKbyRvc9QWh6EADu521t60oMAADAI5yKAADuZT6VN/pM0ADQe3dJlmIAAAAeo3vY8K0kAOC7npemzKbwRk0QAkD/LWpbP4gBAAB4gmXWDx8CAN82n8Kb3FtB2B30eOA6A4Bvel/beikGAADgKbqHDheSAIDvmsRw2zMBA0CvWcADAAAb0T18+F4SAPBN8ym8SQUhAPTXm9rWGzEAAAAbtIitRgHgWw5KU+Zjf5N7KQhLUw6TPHeNAcBX3da2LsUAAABsUvcQ4pkkAOCbRj/k9kywANBLCxEAAADb0D2MeCsJAPiq+djf4DPBAkDvvKttXYkBAADYooUIAOCrnpemzMb8BhWEANAvd0lOxQAAAGxT91DiO0kAwFfNx/zmdl4QlqYcJzlyXQHAF511Z4IAAABs22nWDykCAP80H/ObeyZQAOiN2+4sEAAAgK3rHk48kwQAfNHJmN/cM4ECQG8sRAAAAOxS95DirSQA4B8Oul0xR2kfBeEL1xQA/MO77gwQAACAXVuIAAC+aLRDbzstCEtTTA8CwD/dZX32BwAAwM51Dyu+kwQA/MN8rG/smSABYO/OurM/AAAA9sVDiwDwTy9KUw7H+MYUhACwX7dJzsQAAADsU/fQ4htJAMA/zMf4pnZWEJamzJI8dx0BwF8sa1s/iAEAAOiBs6yPQAAAPpmP8U09EyAA7M372tZzMQAAAH3QPbxoq1EA+Kv5GN+UghAA9mcpAgAAoE+6hxivJQEA/+t5t0vmqCgIAWA/LmpbV2IAAAB6yBQhAPzVfGxvaCcFYWnKcZIj1w8AJFmf6bEUAwAA0Efdw4zvJAEA/2s+tjf0THAAsHNnta03YgAAAHrMFCEAfDIf2xtSEALAbt0lORMDAADQZ91DjW8lAQBJkqNut8zRUBACwG6d1rZ+EAMAADAAy6wfcgQARtZ1bb0g7BrVA9cNAOS2tvVcDAAAwBB0DzfaAQUA1uZjejPPBAYAO+MMDwAAYFBqW5dJbiUBAArChzpxzQBA3te2XooBAAAYoKUIACAHYzqHcBcF4QvXDABYUAMAAMPUHZVwLQkAGM8U4VYLwtKUuWsFAPKutnUlBgAAYMAcmQAACsJ7O3atAICFNAAAMGzdQ4/vJQHAxM3H8kYUhACwXRe1rTdiAAAARmApAgAmbjTnEG67IJy5VgCwgAYAABi+borwnSQAmLj5GN6ECUIA2J63pgcBAICRcYQCAFM3H8Ob2HZBeOA6AWCi7mJ6EAAAGJnuIcgLSQAwYfMxvIlnPkcA2Iqz2tYPYgAAAEZoKQIAJmwU5xBurSAsTZm7RgCYqLskZ2IAAADGyBQhAAx/ivD/+AwBYONMDwLwYKUpsySzz/6nv//3QxakV0m+9rvoQ/d//9//rm298gkA8EDLJK/EAMBEzTPwAQEFIQBslulBAP7is91VPv5zlk/F33G2c3b7iwe+xs//8333z8+LxI+F45WHYABI1lOEpSkXURICME3zob+BH/78889tLYIPk/w/1wgAE/OmtnUpBoDp6NY+x92fw88Wii9G/Lav86lA/JBkleSm23IOgOn8Dpwl+UMSAEzUv4e8G8vWCsLuJuFP1wcAE3KXZGayAmCc/lYEHmc9BfhCMv9wneQm6/JwFcUhwNh/P57HFCEA0/RzbetgdxJTEALA5pgeBBiJz8rAeT4VgkeSebS7fCoMr7LeqvRGLACj+J05iylCAKbpXW3ryVBf/LYLwhuLaAAmwvQgwICVpnxeBs6tY3b2u3OVrjisbV2JBGCwv0fPY4oQgOm5rW2dDfXFb7sgXMWWOwBMg+lBgAEpTZlnXQTOrVl65X3+Whp68AZgGL9XZzFFCMA0/Wuou6NsuyA8S/KT6wOAkTM9CNBzn00IzpO8lMhgfCwMTRgC9P937XlMEQIwPa9rW8+H+ML/z5b//9+4NgCYgDPlIEC/dGcIzpOcxJahQ/ai+/NLacrHLUkvsy4MrTcB+mUZBSEA0zNPcj7EF77tCcJ5kt9dHwCMmOlBgJ7otjc76f7YNnT8rrMuCy9rW6/EAdCL38XnURICMC2DPYdwqwVhd2Pwp+sDgBFz9iDAHnVbhy6yfmrzuUSmuyjPp7JwJQ6Avf1ensVZhABMz/8McXhgFwXhKp7eBWCcTA8C7MFnpeBJbB3Kl38/X2a9BbjJQoDd/54+jylCAKblP7Wtl0N70c928DMuXRsAjNSlchBgN0pTZqUpp6UpV0n+m+SnKAf5soOsv5j+b2nKTWnKWVcqA7AbSxEAMDHzIb7oXUwQzmJrAQDG6V+1rTdiANjaWuIw6ynBRexKwtNdJznP+gEfv78Btvs7/DLJS0kAMBHva1vnQ3vRWy8Iu5uCqzgPBIBxuahtXYgBYCvrh3k+bSF6IBG24F2S8yFuAwQwoN/lv0sCgKmobf1haK95VwXhaZJfXSIAjIjpQYDNrhkOsy4FT2PrUHbnLuupwjO/1wE2/rt9FTsAADAdP9a2rob0gp/t6OecuzYAGJF3vkQE2IzSlOPSlPMk/y/rhwqVg+zSQdbnWf5RmnJZmnIiEoCNWYoAgAkZ3LnnO5kg7Bb+51kfFA8AQze4J4IA+qY0ZZH1tKCjCOib2yRnWW9B+kEcAE/6fX8TD/8AMA3valsH9cDhLgvC4yT/dY0A4Jc9wDR124iedn+cLUjf3SW5TLK0cwDAo3/3L5L8JgkAJuC2tnU2pBe8s4KwuylYxd7jAAybswcBHr4OmGW9zdhJFIMM00XWE4UrUQA8+D7gJqYIAZiGQX1v+GzHP2/p+gBgwC6UgwD399n5gn9kfdyAcpChepXk99KUVWnKXBwAD3IuAgAmYlDnEO60IOyetrxwjQAwUEsRAHxfacq82z3kv3EOOePyIp+KwoU4AO7lLOttmwFg7OZDerHP9vAzl24KABigN6YHAb7ts2Lw9zhagHF7keS30pQbRSHAt9W2fogpQgCmYVAThDs9g/Cj0pTTJL+6VgAYiNskx93CFoB/3t/Ps34QUCnIlO8VTmtbL0UB8MV7hVnWW44DwKjVtv4wlNe6l4KwuzFYxRcIAAzDj9022QD89Z5+lvVEgPt6WHufZOm+AeCL9w3nsfU4AOP379rWqyG80Gd7/NmL2GoUgP5760s+gL8qTZl1X/L9EeUgfO7zMwrn4gD4i3MRADABg1kH7K0g7M5xWrhWAOix69rWUzEArJWmHJamLLMuBk0AwNd9LArPu0lbgMnrHry8lgQAIzeYcwj3OUGY7nyGt64XAHroLgN64gdg27pzxG+S/CINuLdXSf4oTVmWphyKAyBnIgBg5AZTEO7tDMLP2YMcgJ65SzIfyn7hAFu+V59nvSXYkTTgyfcXy9pWX44DU7+3uHFfAcDI/U9t64e+v8hnfXgRta2L2GIAgP44UQ4CU9edM7hK8nt8iQebcJDk19KUK+cTAhN3LgIARm4QU4TPevRa5lESArB/r7uzMQAm6W/nDL6QCGzc83w6n9C2o8AUmaQGYOzmQ3iRvSkIu3HLeZSEAOzHXdbl4LkogKkqTTlJchXnDMIuvEpy053vCTAZ3XeAF5IAYMQGMUHYizMI/86ZhADsmDMHgUkrTZll/TT/S2nAXlwnWbgXASZ07zHPehtzABij29rWWd9f5LM+vqjuTMI3riEAduA6ykFgwrrppasoB2Gfnif5b2nKmW1HgSnojnWwixgAY3U0hPv6Z319YbWtyyT/yXqqAwC24V2Ug8BElaYcl6askvya5EAi0As/JbnqJmsAxs5ZhACMWe+3GX3W5xdX23qZZJbkvWsJgA36eN7gSXf+BcCklKYsk/w3yQtpQO8cJfndNCEwAZcxGADAeM37/gKf9f0F1rZ+qG2dJ/nZTQMAG/A+yXFt67kogKnppgavkvwiDeg904TAqHUPa1qXATBWJgg3eNNwlvU04VvXFQCPcJvkP7Wt89rWG3EAU9OdNfjfrM86A4bBNCEwdrYZBWCsel8Q/vDnn38OLtXSlFmSZZJXrjEAvuM2ydLEIDBV3b3zeWwnCmO4pzlxdjIwwnuVlfsUAEbqf/p8vNGzISZa23pT27pI8q+sJwptPQrA311nfc7gTDkITFVpykmSq/jSDcbgKMl/uzNEAcbEeg2Aser1FOEgJwj/rttq5aT789I1BzBZt1kfdH/u6Xpgyrr747PYcQPG6n2ShW3TgRHdu3xIciAJAEbmTW3rsq8vbhQF4d9uKD6WhfPuz5FrEGDU3idZJblUCgIkpSnHWT8s4T4Yxu0u65LwUhTACO5fzpL8JAkARuZdbetJX1/c6ArCL9xgzJLMsi4LP/57YpslgCG5y3qLvGRdBn5IclXbuhINwF/ufU+T/CoJmJS3ta2nYgAGfg8zS/KHJAAYmdva1llfX9zoC0IAABi7bheN89huH6bqOsmJLUeBgd/PXCV5LgkARuZ/als/9PGFPfPZAADAcHVbiq6iHIQpe57kqjTlRBTAgJ2JAIAROu7rC1MQAgDAQJWmLLIuBz1tDxwk+b+lKUtRAAN1mfXxEgAwJvO+vjAFIQAADFBpylmS37IuBQA++qU05bLbehhgMLrt1y4lAcDIzPr6whSEAAAwIKUph6UpqyQ/SQP4ipdJVt0WxABDci4CAEamt/fkP/z5558+HgAAGIDuy/7LJEfSAO7hLsmittVEDjCk+50b9zoAjElt6w99fF0mCAEAYABKU06yPm/QF2bAfX08l/BUFMCAnIsAgJGt5+d9fF0KQgAA6P9i4jTJ/43zBoHH+bU05VwMwED4+wqAsZn18UUpCAEAoMe6L/V/lQTwRK9KU1alKYeiAPqstvUmyXtJADAivTyHUEEIAAA9VJpyWJqySvJKGsCGvEiyKk2ZiQLouXMRADAiCkIAAOD7ugmfVdZf5gNs0vMkV6Upx6IAeuxSBACMiIIQAAD4tu5L+6usv8QH2IaDrCcJ56IA+qi29UOSC0kAMJb77z7u4qEgBACAnujKwVWSI2kAW3aQ5PfSlIUogJ4yRQjAmMz69oIUhAAA0APdJM8q6y/tAXblNyUh0Ee1rZdJ7iQBwEjM+/aCFIQAALBn3Zfzv0c5COzHb6UpSzEAPWSKEICxmPXtBSkIAQBgj7py8DdJAHv2S2nKuRiAnjkTAQAjcdy3F6QgBACAPVEOAj3zSkkI9Elt61WSW0kAMALP+/aCFIQAALAHykGgp5SEQN/YZhSAsXwP0KspQgUhAADsflGwiHIQ6C8lIdAn/j4CYCxmfXoxCkIAANgh5SAwEEpCoBdsMwrAiJggBACAKVIOAgOjJAT6wjajAIyBghAAAKZGOQgMlJIQ6AN/DwEwBrM+vRgFIQAAbJlyEBg4JSGwV7YZBWAknvfpxSgIAQBgi5SDwEgoCYF9s80oAINXmtKbbUYVhAAAsL0b/0WUg8B4vCpNWYoB2JNzEQAwArO+vBAFIQAAbEFpyjzKQWB8fukefgDYKduMAjASJggBAGCsui1DbIMFjNVvSkJgT9xfATB0CkIAABijrhxcJTmQBjBiv3WT0gC7dC4CAAZu1pcX8sOff/7p4wAAgA0oTTlMcpXkSBrABNwlmXfb/gHs6n7rxr0WAENW2/pDH16HCUIAANiArhxcxRdWwHQcJFmVpsxEAezQSgQADFlf7p8VhAAAsBnnSZ6LAZiYgySX3UMSALvgHEIAhm7WhxehIAQAgCcqTTlP8lISwEQ9j4keYEdqWy+z3uIYAIZq3ocXoSAEAIAnKE1ZJHklCWDinncPSwDsgilCAIZs1ocXoSAEAIBHKk05SfKbJACSJK9KU07FAOzASgQADNisDy9CQQgAAI9QmnKc9bmDAHzya/fwBMA2mSAEYMiO+/AiFIQAAPBApSmHWZeDB9IA+Ifz7iEKgK2obf2Q5L0kABioXnyXoCAEAICHu0zyXAwAX3SQ5LJ7mAJgm/djADBIpSnzfb8GBSEAADzsJv4syQtJAHzTUXx5D2yXv2MAGLLZvl+AghAAAO6pO1frJ0kA3MuL0pSlGIBtqG29SXIrCQAGarbvF6AgBACAe+jO0zqXBMCD/NI9XAGwDaYIARiqvZ/ZrSAEAIDv6M7ROk9PDhIHGJjz0pSZGIAtWIkAgIHa+3ndCkIAAPi+syTPxQDwKAcx5QNsQW2rv1sAGKoX+34BCkIAAPiG0pRFkleSAHiS56UpZ2IAtuCdCAAYom63or1REAIAwNdv1o+znh4E4Ol+ch4hsAUrEQAwUHs9h1BBCAAAX+DcQYCtcB4hsGm2GQVgqPZ6X6wgBACAL1vGuYMAm+Y8QmCjaltvktxKAoABmu3zhysIAQDgb7ot8H6SBMBWPC9NWYoB2KCVCAAYIFuMAgBAX3y2tSgA2/NLd84rwCaYTAZgiA73+cMVhAAA8FeXce4gwE7+vu0eygB4qpUIABigF/v84QpCAADolKac7vsGHWBCjrI+7xXgSWpbPyS5lgQA3J+CEAAAkpSmzOKLaoBd+6k0ZS4GYANsMwrA4OzzXlhBCAAAa+extSjAPthqFNiElQgAGKC93QcrCAEAmDxbiwLs1UGSMzEAT1HbupICAAN0vK8frCAEAGDSbC0K0AuvbDUKbMB7EQAwMCYIAQBgT85ja1GAXvx9bKtR4IlWIgBgYEwQAgDArpWmLGJrUYC+OIqJbuBpViIAYGD29oDcD3/++af4AQCYnG5K5SamBwH65kdniQFPuMfzZScAg1Lb+sM+fq4JQgAApuo8ykGAPjoTAfAEziEEYFD2tc2+ghAAgCnefM+TvJQEQC89L01ZigF4pJUIABiYvZxDqCAEAGCKzkUA0GunpSkzMQCPsBIBAANjghAAALatm0o5kgRArx3EVqPAIzjDFIABMkEIAADb1E2jnEoCYBBedltCAzyUcwgBGBIThAAAsGVnWU+lADAM5yIAHmElAgAGxAQhAABsSzeF8lISAINyVJpi8ht4qCsRADAgJggBAGCLnGUFMEzL0pRDMQAPsBIBAAPyfB8/VEEIAMDolaYs9nXDDcCTHSRZigG4r9rWD0muJQEAX6cgBABg1Lqpk6UkAAbtp9KUmRiAB7DNKACD0R2LslMKQgAAxu40yZEYAAbPVtHAQ6xEAABfpyAEAGC0uunBU0kAjMLLfTxZDQyWCUIAhuR41z9QQQgAwJidZX12FQDjsBQBcB+1rVdJ7iQBwEAc7voHKggBABil7qyqV5IAGJUXpgiBBzBFCMBQzHb9AxWEAACM1VIEAKN0LgLgnlYiAGAgZrv+gQpCAABGx/QgwKgdlaYsxADcgwlCAIbCFqMAALABSxEA+HsemLyVCAAYiOe7/oEKQgAARsX0IMAkmCIEvqu29UOSW0kAwD8pCAEAGJulCAD8fQ/Qsc0oAINQmjLf5c9TEAIAMKab6VlMDwJMhSlC4D4UhADwBQpCAADGZCkCAH/vA3xmJQIABmK2yx+mIAQAYBRMDwJM0lFpyokYgG8wQQjAUMx2+cMUhAAAjMVSBACTdCoC4GtqWz8kuZUEAPyVghAAgMErTTmM6UGAqXpRmjIXA/ANpggBGIKd3tMqCAEAGAPTIwDTthQB8A0KQgD4GwUhAACD1k0PKggBpu1FdxYtwJesRADAAOz0flZBCPx/9u7mOG4kTQPwJ8beyTkgr6yxgBwLWGNBcy0Q24LmWCC2BcO2oEseUBZM0YIlLdjiNXFY0gLtoaAW1a0f/hSABPJ5IhSzOzEhVL1VIaDwIr8EgKk7jYh9MQBU70IEwDdsRADABBwOebA3Hz9+FDkAAJOVmrQZ+iIagGL9Lbf5XgzAV64Z78NDZQAULrf5zVDHsoIQAIDJSk06DeUgAJ8ZOQ18i30IASheatJyqGMpCAEAmDI3ggF47EwEwDesRQAAnykIAQCYpNSkRUScSAKARw5Tk87EAHzFRgQATMDBUAdSEAIAMFVWDwLwNWciAL5iIwIAJuB4qAMpCAEAmKozEQDwFSfdKnOAP+Q2r6UAAJ8pCAEAmJxufNy+JAD4BqvMga+5FQEAhVsMdSAFIQAAU3QmAgCcJ4Bn2ogAgMIthjqQghAAgEnpxsadSAKA79jvVpsDPHYjAgDYUhACADA1xsYB8BRnIgD+REEIQOkWQx1IQQgAwNSciQCAJzjpVp0DfHIvAgAKdzjUgRSEAABMRmrSaUTsSwKAJzoTAfBJbvNaCgCwpSAEAGBKTkUAwDOciQD4kzsRAFCyoaZgKAgBAJjKBfJBRLyVBADPcJiadCwG4JGNCAAo3GKIgygIAQCYCqsHAXiJcxEAj6xFAAAKQgAApkNBCIDzB/Ba9yIAoHAHQxxEQQgAQPG6+fs/SQKAF9hPTVISAp/ciACAwg0yIl9BCADAFLixC4DzCLALGxEAgIIQAIBpOBMBAK+gIAQiIiK3eSMFAFAQAgBQuG686JEkAHgFY0aBx65FAEDBlkMcREEIAIALYwBqoCAEAICOghAAgNK5oQuA8wmwS2sRAFA7BSEAAMVKTTqIiJ8kAcAO7KcmHYsBiIh7EQBQsMUQB1EQAgBQMqs9ANilMxEAEXEjAgAKdjjEQRSEAACUbCkCAHbIgydARMRGBADUTkEIAEDJ3MgFYJcOU5MWYoC65TZvpABA7RSEAAAUKTVpGRH7kgBgxzx8AkRE3IkAgFJ190R6pSAEAKBUbuAC0IelCIAwZhSAyikIAQAo1VIEAPTgJxEAoSAEoHIKQgAAipOadBARR5IAoKfzjFXqwEYEANRMQQgAQIncuAWgT0sRQPXuRQBAzderCkIAAKq8EAbAeQao2o0IAKiZghAAgBItRQBAj466cdZAvawgBKBqCkIAAIqSmrSIiENJANCzpQigXrnNVhACUDUFIQAApVmKAADnGwAAKnbc9wEUhAAAlGYpAgCcb4ABXIsAgEL1Pg5fQQgAQGmWIgBgAPYhBACgWgpCAACK0d2otf8gAENZigCqthEBALVSEAIAUJKlCAAY0LEIoGobEQBQKwUhAAAlWYoAAOcdAAAqd9L3ARSEAACUxEoOAIZ0IgKo2loEANRKQQgAQEncqAVgUKlJHk4BAKA6CkIAAIrgBi0AI3H+gXptRABArRSEAACUwg1aAJx/gMHkNm+kAECtFIQAAJTCDVoAnH8AACAiUpOWff79CkIAAErhBi0AY7D/LdTtTgQA1EhBCABAKdygBWAU9sGFqm1EAECNFIQAAIzOjVkARrYQAQAANVEQAgBQgoUIABiRB1WgXhsRAFAjBSEAACVwYxaAMS1FANXaiACAGikIAQAogYIQgDEtRAAAQGGWff7lCkIAAEqwEAEAIzoUAVTrXgQA1EhBCABACY5EAMCYUpOsZoc63YgAgBopCAEAGFVq0kIKABTA+QgAgGooCAEAGNtCBAAUwApCAACqoSAEAGBsSxEAUICFCKBKGxEAUCOgnuwbAAAgAElEQVQFIQAAAICCEKqU27yRAgA1UhACADC2pQgAKIARowAAlGTZ51+uIAQAYGwHIgCgAPsiAACgFgpCAADGdiQCAEqQmmQVIdTpQQQA1EZBCAAAALBlVTvU6UYEANRGQQgAwGhSk5ZSAKAgCxEAAFADBSEAAADA1kIEAADUQEEIAMCY7PUEQEmMGAUAoAoKQgAAxuRGLAAl8eAK1OleBADURkEIAMCYFIQAAIztRgQA1EZBCADAmKzUAMB5CQAA/qrXh6oVhAAAAABb+yIAAKAQR33+5QpCAADGZMQoAAAAwMAUhAAAjOlIBACUJDVpIQUAAOZOQQgAAADw2UIEAADMnYIQAAAAAKjZRgQA1EZBCADAKFKTjqUAAEABNiIAoDYKQgAAxnIgAgAK5AEWAABmT0EIAAAA8JkHWAAAmD0FIQAAAAAAAFREQQgAAAAAAAAVURACADCWhQgAAAAAhqcgBABgLAsRAAAAAAxPQQgAAADw2bEIAACYOwUhAAAAwGcHIgAAYO4UhAAAAAAAAFARBSEAAAAAAABUREEIAAAAAAAAFVEQAgAAAAAAQEUUhAAAAAAAAFARBSEAAAAAAABUREEIAAAAAAAAFVEQAgAAAAAAQEUUhAAAAAAAAFARBSEAAAAAAABUREEIAAAA8Nm9CAAAmDsFIQAAAMBnNyIAAGDuFIQAAIxlIwIAAACA4SkIAQAYy0YEAAAAAMNTEAIAAAAAAEBFFIQAAAAAAABQEQUhAAAAwGf3IgAAYO4UhAAAjMUNWABKdCMCAADmTkEIAMAocpvdgAUAoATHIgCgNgpCAAAAAKBmByIAoDYKQgAAAIDPNiIAAGDuFIQAAIzpVgQAlCS3eSMFAADmTkEIAMCY7kUAAAAAMCwFIQAAAMDWnQgAAChEr1OXFIQAAIzpRgQAFGQjAgAACtHr1CUFIQAAs73YBQCAJzgWAQC1URACADAmBSEAJbGyHep0IAIAaqMgBABgTG7EAlASD64AAFAFBSEAAADA1kYEAADUQEEIAMBocpvXUgCgIBsRAABQAwUhAAAAwJYRo1CnYxEAUBsFIQAAY7sVAQAlyG22Ny7UaV8EANRGQQgAwNis1gCgBA8iAACgIL3eL1EQAgAwtrUIACiA1YMAAFRzfaogBABgbFYQAlCCjQigPqlJCykAUCMFIQAAY7NiA4ASbEQAVVqIAIAaKQgBABjbRgQAFMADKwAAVENBCADAqHKbN1IAoADORwAAVENBCABACW5FAMCYcputIIQ6HYsAgBopCAEAKMFGBACMyIMqUK8DEQBQIwUhAAAlsGoDgDFtRAAAQGHWff7lCkIAAEqgIATAeQgYw0IEANRIQQgAQAncmAXAeQgYw0IEANRIQQgAwOhymzdSAGBEzkMAAFRFQQgAQCmuRQDAGHKbrSCEei1EAECNFIQAAJTCzVkAxuABFajboQgAKNR9n3+5ghAAgFIoCAFw/gEAgOh/yoWCEACAUrhBC4DzDzCY1KRjKQBQKwUhAABFsP8TACNx/oF6HYgAgFopCAEAKIl9oAAY0oMHVAAAqJGCEACAkqxFAMCAlINQt6UIAKiVghAAgJK4UQvAkNYiAACgQL1PWFIQAgBQkrUIAHDeAQayEAEAtVIQAgBQjNzm+4i4kwQAA7FyHeq2EAEAtVIQAgBQmrUIABjAbfdgCgAAVEdBCABAadYiAMD5BhjAiQgAKFTvD7IpCAEAKM1aBAA43wAAULHeR+ErCAEAKEpu8ybsQwhA/9YigHqlJh1LAYCaKQgBACjRWgQA9Mj+g8CBCAComYIQAIASXYkAgB6tRQDVs4IQgKopCAEAKNFaBAD0yIMogBWEAJRs3fcBFIQAABSnG/t2KwkAejrPrKUA1VuIAICaKQgBACiV1R0A9OGDCIBQEAJQOQUhAAClUhAC0Ie1CIBQEAJQtvu+D6AgBACgSLnNNxHxIAkAdswDKEBExKEIAChVd0+kVwpCAABK5iYuALt0m9u8EQPULTXpWAoA1E5BCABAyRSEAOzSWgRARByIAIDaKQgBACjZWgQA7NBKBEBEWEEIQMnuhjiIghAAgGLlNt9HxAdJALADd0Ps5QJMghWEAJRsM8RBFIQAAJTOmFEAdmEtAqCzFAEAtVMQAgBQOgUhAM4nwC5ZQQhA9RSEAAAUzZhRAHbgIbdZQQh8ciQCAAq2HuIgCkIAAKbATV0AnEeAV0tNWkgBABSEAABMgxu7ADiPALuwEAEAKAgBAJgAY0YBeIU740WBR45FAEDhboY4iIIQAICpcHMXAOcP4LUORABA4e6HOIiCEACAqXCDF4CXWIkAeGQpAgBQEAIAMBHdmNH3kgDgGe5ym2/EADyyEAEAhdsMcRAFIQAAU2IVIQDPcSkC4E8ORQBAyXKbN0McR0EIAMCULpKvIuJOEgA8kQdLgD+kJi2lAABbCkIAAKbGzV4AnuLDUE9fA5OxEAEAhRvsoWgFIQAAU2NcHABP4YES4M8WIgCgcJuhDqQgBABgUrrVINeSAOA7HnKbV2IA/mQpAgDYUhACADBFKxEA4DwBPNNCBAAUbjPUgRSEAABMTrcq5EESAHyDcdTA1xyKAIDCbYY6kIIQAICpcvMXgK+57sZRA/whNWkpBQD4TEEIAMBUrUQAwFd4gAT4moUIAJiAm6EOpCAEAGCSutUhHyQBwCN3uc1XYgC+4lgEAEzA/VAHUhACADBlVokA4LwAPIWCEAAeefPx40cpAAAwWalJm4g4lARA9R4iYpHbfC8K4CvXjPcRsS8JAEqW2/xmqGNZQQgAwNRdiACAiLhSDgJfk5q0COUgAHxBQQgAwKTlNq9iu2oEgLpdiAD4hoUIAJiAuyEPpiAEAGAO7DkFULf3uc0bMQDfsBQBABMw6PWsghAAgDm4DKsIAWq2EgHwHcciAIAvKQgBAJi8bs+plSQAqnSd27wWA/AdCkIApmDQa1oFIQAAc2HMKECdLkQAfEtq0kFEHEoCAL6kIAQAYBa6vafeSwKgKlYPAj9i9SAAU7EZ8mAKQgAA5uRCBABVWYkA+IGlCACYiM2QB1MQAgAwG1YRAlTlLrd5JQbgB6wgBICvUBACADA3FyIA8O89QEdBCMAkDD06X0EIAMDcLqg3YRUhwNxZPQj8UGrSQUQcSgIA/kpBCADAHF2IAGDWzkUAPMFSBABMxO3QB1QQAgAwO1YRAszadW7zlRiAJzBeFICpuB/6gApCAADm6kIEAP59B6q2FAEAE7EZ+oAKQgAAZqlbRfirJABm5Tq3eS0G4ImsIARgKjZDH1BBCADAnF1GxIMYAGbjQgTAU6QmHUfEviQAmAgjRgEAYFdym+9jWxICMH3vrR4EnsHqQQCm5GboAyoIAQCYtdzmi4i4kwTA5F2IAHiGpQgA4NsUhAAA1OBCBACT9mu3tyzAU1lBCMBkjDEpQ0EIAEANF9qriLiWBMAkPYRx0cAzpCYdRMSRJADg2xSEAADU4kIEAJN03u0pC/BUSxEAMCGjPNCsIAQAoArduI73kgCYlNtuFTjAcyxFAADfpyAEAKAm57EdVQfAdP7dBngu+w8CMCU3YxxUQQgAQDW6EXUXkgCYhPfd6m+A5zoRAQATMso4fQUhAABVyW2+jIhbSQAU7SGsHgReIDVpKQUAJsYKQgAAGIibzgBlu+hWfQM811IEAEyMFYQAADCEbmTdb5IAKNJ1t9ob4CWWIgBgYqwgBACAAV3EdoQdAGWxyht4DfsPAjApY03OUBACAFDzBfiZJACK8mtu840YgJew/yAAE3Q71oEVhAAAVCu3+SoiPkgCoAh3EWG0KPAaSxEAMDGj7butIAQAoHbnYdQoQAnOxhqvBMzGUgQATMxo0zMUhAAAVC23eRPb/QgBGM9vuc1rMQCvZP9BAKbGCkIAABhLbvNlRFxLAmAUd+FBDeCV7D8IwEStxzqwghAAALbOwqhRgFH+/TVaFNiBUxEAwNMpCAEAIP4YNXomCYBBGS0K7MpSBABMzZjXwgpCAAD4fGF+FREfJAEwiNswWhTYgdSkg4g4kgQAEzPqFCMFIQAAfOksjBoFGOTfW6NFgR1ZigCACboZ8+AKQgAAeKS7WW0PG4B+/Su3+UYMwI64dgNgikZ9WE5BCAAAf9LtAfCbJAB6cZ3bfCkGYIeWIgBggqwgBACA0uQ2n8d2fywAduchrPQBdig1aRERh5IAYII2Yx5cQQgAAN92GvYjBNjpv6v2HQR6uF4DgCnajHlwBSEAAHxDbvMmIs4kAbATv3UjnAF2aSkCACZq1BGjbz5+/OgjAACA70hNuoyIXyQB8GK3uc3HYgB6uE5zcxOAScptfjPm8a0gBACAH1+0248Q4OUewgofoAepScaLAjBV12O/AAUhAAA8jf0IAV7476d9B4GeLEUAwESNfn2sIAQAgCfo9iP0lDrA8/zLvoNAj1ybATBVN2O/AAUhAAA8UXeT+1dJADzJh9zmSzEAfUhNWkTEoSQAmKjN2C9AQQgAAM+Q23wRER8kAfBdtxFxJgagR1YPAjBlm7FfgIIQAACe7yy2N78B+KuHsO8g0D8FIQCTVcIYfgUhAAA8/0L+PrY3pR6kAfAXp92+rQC9SE06iIgTSQAwUUXcS1AQAgDAC3Q3v5eSAPjCzyU8DQ3MntWDAEzZTQkvQkEIAAAvlNt8ExE/SwIgIiLe5zavxAAMQEEIwJQpCAEAYOq6m+G/SQKo3Ifc5jMxAANZigCACStir24FIQAAvFJu83lEvJcEUKnbiDgTAzCE1KTTiNiXBAATti7hRSgIAQBgB7qVM7eSACpzFxHL3OZ7UQADMV4UgKnblPAiFIQAALA7y1ASAvV4iIhT5SAwwvUWAExWbvOmhNehIAQAgN1d5N/H9qbVgzSAmXuI7crBG1EAQ0lNOo6IQ0kAMGHXpbwQBSEAAOyQkhCoxLlyEBjBmQgAmLhipm8oCAEAYMe6m+bLUBIC8/RzbvNKDMAI7D8IwNQV85CdghAAAHrQlYRuYgFzoxwERmG8KAAzoSAEAIC5y21eR8TPkgBm4lflIDCiMxEAMAObUl7Im48fP/o4AACgR6lJZxHxuySACXuf23wmBmDE66lNWEEIwMTlNr8p5bVYQQgAAP3/AFiFlYTAdCkHgVEZLwrATNyW9GIUhAAAMAAlITBRykGgBP4dAmAONiW9GAUhAAAMREkITIxyECjFqQgAmIGbkl6MghAAAAakJAQmQjkIFMF4UQBmREEIAAA1UxIChVMOAiXx7xEAc7Ep6cUoCAEAYARKQqBQykGgNMaLAjCX+wBWEAIAAEpCoDj/Ug4CJUlNWobxogDMw3VpL0hBCAAAI+pKwn9GxIM0gBH9nNt8KQagMGciAGAmNqW9IAUhAACMLLd5HRHLUBIC4/i5e1gBoDTGiwIwF5vSXpCCEAAACtDtRbAMJSEwnIeI+G/lIFCi1KTTiNiXBAAzsS7tBSkIAQCgEF1JeBwRt9IAevYQEcvc5itRAIU6EwEAM3JT2gt68/HjRx8LAAAUJDXpILZPFx5JA+jBXUScdg8lAJR6LfR/kgBgJh5ymw9Ke1FWEAIAQGFym+9jO270vTSAHbuNiGPlIFA4ew8CMCdFXnsrCAEAoEC5zfe5zWcR8Zs0gB35ENuxoveiAAp3LgIAZkRBCAAAPE9u83lE/CwJ4JV+y20+VQ4CpUtNWoQx6wDMi4IQAAB4vtzmVUT8IyIepAG8wM/dwwYAU3AmAgBmpsiC8M3Hjx99NAAAMAHdE/VX4al64GkeYjtS1H6DwJSudzYRcSgJAOYit/lNia/LCkIAAJjOj4pNRCxju48YwPfcRsSxchCYktSkZSgHAZjfdXmRFIQAADAhuc33uc2nEfGrNIBveB/blYMbUQATcyYCAGam2Af2FIQAADBBuc0XEfHfYV9C4Ev/ym0+y22+FwUwJalJBxHxVhIAzIyCEAAA2K3c5quIOI6CR5YAg3mIiH/kNl+KApioUxEAMEMKQgAAYPce7Uv4XhpQreuIWNhvEJi4cxEAMEPFXqO/+fjx46yTT006ju1T1YvY3jiJiDjxnQSYnLuI2Dz6s46IG+OzAL649j2LiMuI2JcGVOPXbuQwwJSvYY4j4n8kAcDM3OU2L0p9cbMrCFOTFrEdSbDs/rg5AjBvt7EtC9fdqD2AqnU32FYRcSQNmLWHiDjNbV6LApjB9csq7D8IwPx8yG0udoT2LArCbhPjs+6PGyEA9XqIiKuIWLlZBtQuNekyIn6RBMzSh4g4M0kBmMk1y0Fsp8R4yB+AuSl62sekC8Lu6ejz8IQRAH91FxEXEXHl5hlQq9SkZWwfnHDDDebhISIucpsvRQHM6HrlLCJ+lwQAM/TPkhcxTLIg7G50XIS9BAH4sYfY7sd1qSgEatQ9lb+KiJ+kAZN2G9tVgzeiAGZ2rXITJoIBME9/K/l+5KQKwm5/wYuwYhCA57uL7RP3K1EANeqezr8MqwlhiooeTQTwiuuT44j4H0kAMEN3uc2Lkl/g3oQuGM4j4iaUgwC8zGFE/J6atO4eOAGoSveAxHFEXEsDJuM2Iv6hHARm7FwEAMxU8ZM/ii8IU5MW3aiBf4ennQF4vZOIuOkePAGoSm7zJrd5GRH/iu0IZqBcv+Y2HxspCsxVNwb9VBIAzJSC8JUXCmddiOaQA7BL+xHx79Skq+5HKUBVcpsvw2pCKJVVg0AtTsNiAADma136Cyx2D8LUpMuI+MV3CICe3UXEqafzgVqlJp1GxCrcoIMS2GsQqOkaZBPbrSAAYI7+ltt8X/ILLK4g7FZyrCLiJ98fAAbyENuScC0KoEbdNfhl2O8bxnIdEWe5zRtRAJVceywj4j+SAGCm7nKbF6W/yKJGjHY3JtahHARgWPsR8Z9utDVAdXKb73ObzyLin7FdWQ0M4yEifs5tXioHgcr47QXAnE1iUlkxBeGjctB+gwCM5XclIVCz3OZ195Tjr7EtLoD+/BYRi9zmlSiAmqQmLcLUAgDmTUH4jAsD5SAApVASAtXr9kA7joj30oCdu46If+Q2n5e+JwlAT/zeAmDu1lN4kUXsQZiadBXGigJQjoeIWOY234gCqF23R9BFRJxIA17lLiLOc5uvRAFUfm1xH9ttHgBglnKb30zhdY6+gjA1aRXKQQDKsh8R6270DUDtP2zWuc3LiPg57E8IL/EQEb/mNi+Ug0DtumktykEA5ux2Ki901IKwuygwcxyAEu1HhJt4AJ1un7TjsD8hPMf72O4zeCEKgIiIOBcBADM3mYlkoxWEqUnHEXHpuwJAwY5Sk5yrADq5zfdd0bGIiN8kAt/0PiL+ntt8Zp9BgK1ubPmRJACYOQXhE6zCSAEAyvdL90MWgE5XFJ5HxN9jW4QAW9cR8c+uGNyIA+ALVg8CUIP1VF7om48fPw5+0NSki4h453sCwETcRcSxFQAA37y+X0TERdg+gHpdR8RFbvNaFADfvFb4X0kAMHe5zW+m8loHX0HYXRB4YgiAKTl07gL47g+gTW7zWVhRSH0+rRhcKgcBvutCBABU8vtgMsYYMXoZRosCMD3vuodcAPgGRSGV/fBXDAI8QWrSQUScSgKACkzqt8GgBWG3h9NPviMATNSFCAB+TFHIjL0PxSDAc52HxQIA1OFmSi920D0IU5PWEXHiOwLAhP0jt/lGDADP+h1wENubg24QMlXvY7vH4EYUAM++DtjEdtsGAJi7v0/pN8NgBWG3evA/vh8ATNyH3GbjcQBe9pvg04ixi3CjkPI9xHaLjMvc5ntxALzo3H8WEb9LAoAK3OU2L6b0gocsCFcR8dZ3BIAZ+KexYgCv/n1wGtsVhSaMUJrb2JaCK1EAvPp8vwkPBQFQh8ktKhhkD8LUpEUoBwGYjwsRALxObvNVbvMytvsU/hbb1Vowpk/7Cx4rBwFer3sYSDkIQC3WU3vBewMdxyg2AObkpHv4BYBXym3e5Daf5zYfRMTPsV29BUO5i4h/RcTfcpvPTAgA2KlzEQBQkZupveBBRowaJwDADL3PbT4TA0Avvx8Wsb2peBYR+xJhxx4i4ioiVgpBgN7O5cuI+I8kAKhFbvObqb3m3gvC1KTjiPgfXw8AZujvuc0bMQD0+nviNLZF4U/S4JWuI2IVEVe5zffiAOj1/L0O+wwDUNFvjW4LjUn5rwGOsfTdAGCmLmJ70xqAnuQ2X0XEVWrSQWy3LjgLNxx5utv4XApuxAHQv26xgHM1ADVZT/FFD7GCcO2iAIAZs4oQYGDdCNJPZeGRRPiTu/g8QvRGHACDn6dXEfFWEgBU5L+7h1snZYiC8KPvBgAz9mtu84UYAMbxqCw8DQ8m1uw2tqXglVIQYPTz8v9KAoDK/G2K2xj0WhDakBiACjxExMJeRgDjezSG9DS2Wx3sS2XWPsR2lI/xoQDlnItXYfUgAHW5zW0+nuIL73sPwmPfDQBmbj8izmO7HyEAI+oe1lh1fz49sPipLDSKdPruoisEI2Lt4RyAsnSrB5WDANRmshNMFIQA8HrnqUmXblQClCW3eR3dZvHdTcvloz+HEireQ/f5rWNbCBodClC2CxEAUKH1VF943yNG12EfEADqYC9CgAlJTTqObVH46T8VhuNTCAJM97y6CHsPAlCnv091y4O+C8KNH9oAVMJehAAT9miF4afC0EjS/t3GdhzPOiJuFIIAkz6PrsJ4UQDqc5fbvJjqi+97xKhyEIBa2IsQYMK6Jz5Xj/+7bg/D40d/lIav+OEc2zLwcSHooRqAGbD3IAAVW0/5xf+Xzw8AdsZehAAz8ngPw0+60aTHEbGI7UrDRXgw8rGH+FwEbmJbBK7FAjBrFyIAoFKTnoLS24jR1KSDiPg/3w8AKmMvQoAKdasND+JzefjpzxzLw08l4H18LgI3ikCAKs9/i7D3IAD1+seUt0rosyBcRsR/fD8AqIy9CAH482+jRWzLwk8FYnT/edD93ycFvdzb2BZ/EZ9XT266P/f2CQTgT+e4VRgvCkCdHnKbD6b8BowYBYDdshchAF/o9jfcdP/v1ff+t4/KxMeWO3w5n1b+faL0A+BF7D0IQOXWU38DfRaEVk4AUCt7EQLwIn8qE2fzwxOAWboQAQAVm/zvtL0ef9h6ChWAWn1aRQgAADA7Vg8CgIIQAPi68+5HMwAAwNxciACAij3MYZFc3wXhg+8JAJXa96MZAACYm9Sk47B6EIC6refwJvouCI0ZBaBmb60iBAAAZuZSBABUbj2HN6EgBIB+XYgAAACYg9SkZUScSAKAyq3n8Cb6Lgg3vicAVM4qQgAAYC4uRABA5Wax/2CEFYQAMISVCAAAgClLTToNqwcBYD2XN9JrQZjbvPZdAYA46UbxAAAATJW9BwFAQfgs174vAGAUDwAAME2pSWcRcSgJAFAQPseV7wsAxEn3oxoAAGAyUpMOwgOPABAxo/0HI4YpCNe+MwAQ4Uc1AAAwQedh9SAARMys7+q9IOza1AffGwCIw9SkczEAAABT0K0e9BsGALZmNTFzb6DjrH1vACAiIi66H9kAAAClu4yIfTEAQERYQSg0AHiF/fAELgAAULjUpEVEvJUEAERExF1u82ZOb0hBCADDe9f92AYAACjVSgQA8If13N7QIAVhtw/hne8PAPzhUgQAAECJUpOWEXEiCQD4w3pub2hPeAAwip+6H90AAACl8UAjAHzpam5vSEEIAH50AwAAREREatJZRBxJAgD+cJvbfD+3N6UgBIDxHHU/vgEAAEaXmnQQHmQEgD9bz/FNDVYQ5jZvIuLW9wgAvnDZ/QgHAAAY20VE7IsBAL6wnuOb2hMiAIxqPyLOxQAAAIwpNWkREb9IAgC+lNt8Ncf3pSAEgPG9636MAwAAjGUlAgD4i+u5vrFBC8K5tqwA4Mc4AAAwValJpxFxIgkA+IvZ9lp7Ixzz2vcJAP7iJDVpKQYAAGAElyIAgK9az/WNjVEQWkUIAF+3EgEAADCk1KSLiDiUBAD8xUNu881c39wYBeHadwoAvuqw+3EOAADQu24v9HNJAMBXzXrB2+AFYde23vleAcBXnXc/0gEAAPp2GRH7YgCAr1rP+c3tCRUAirIf9v8AAAB61u2B/pMkAOCbrCDswdr3CgC+6afuxzoAAEBfViIAgG+6zW2+n/MbHKsgvPLdAoDv/1hPTToQAwAAsGvd3ueHkgCAb5p9jzVKQdi1rre+XwDwTYcRcS4GAABgl7o9z99JAgC+az33N7g34rGtIgSA73vX/XgHAADYlZUIAOC7HnKb13N/kwpCAPDjHQAAqEBq0llEnEgCAL5rXcObHK0gzG2+iYgH3zMA+K6T7kc8AADAi3V7nF9KAgB+qIoFbntCBoDiXXY/5gEAAF78uyIi9sUAAD+kIBQyABRhP4waBQAAXig1aRkRbyUBAD90m9t8X8MbHbsgXPuuAcCT/NT9qAcAAHiulQgA4EmqWdg2akHYtbDXvm8A8LQf9UaNAgAAz5GadBERh5IAgCdREAobAIpzGBEXYgAAAJ4iNek4It5JAgCe5CG3+aaWN1tCQbj2nQOAJ/ul+5EPAADwIysRAMCTVbWgbfSCsGtj73zvAMCPfAAAYDdSk84j4kgSAPBkCkKhA0DRjrp9RAAAAP4iNWkRticAgOda1/Rm94QOAJP0zqhRAADgG1YRsS8GAHiyD7nN9zW94SIKwtzmq4h48P0DgGf/6AcAAPhDN1r0RBIA8Czr2t7wnvABYLKMGgUAAP5gtCgAvFh1W+HtCR8AJs2oUQAA4JNVGC0KAM91m9u8qe1NKwgBYB43AQAAgIoZLQoAL7au8U0XUxB2mz9e+x4CwLMZNQoAABUzWhQAXmVV45veK+z1WEUIAC9j1CgAANRrFUaLAsBL3OU239T4xhWEADAfKxEAAEBdumkiRosCwMusa33jRRWE3SaQt76PAPAiR6lJl86VXmgAACAASURBVGIAAIA6dFNE3kkCAF6s2oVrewW+prXvIwC82C+pSUsxAABAFVYiAIAXe8htVhC6sAGA2VilJh2IAQAA5qsbLXokCQB4sXXNb764grDbDPLO9xIAXuwwIowaBQCAmeqmhhgtCgCvc1Xzm9/zoQDALL1NTToVAwAAzEs3LWQlCQB4NQVhgda+lwDwaqvUpIUYAABgXtf5sZ0aAgC83Ifc5vuaAyiyIOw2hXzw/QSAV9kPTxYDAMBsdFNCfpIEALxa9ZMs93w4ADBrJ6lJ52IAAIBp66aDrCQBADuxrj0ABSEAzN+/U5OOxQAAAJN2FdspIQDA69zmNm9qD6HYgtCYUQDYqavUpAMxAADA9KQmXUTEkSQAYCdWIih7BWGEJZ4AsCuHEXEpBgAAmJbUpGVEvJMEAOyMCZZRfkHoQwKA3XmbmnQmBgAAmIZuCshKEgCwM8aLdhSEAFCXy9SkhRgAAGASVrGdBgIA7O7cShReEOY230fEBx8TAOzMfngABwAAipeadB4RP0kCAHbKfbHOng8LAKpzlJpkP0IAAChUatJxRPxbEgCwU8aLPqIgBIA6/ZKadCoGAAAoS7fvoPthALB7KxF8VnxBaMwoAPR3UWQ/QgAAKO86Pew7CAB98ADOI3s+NAColv0IAQCgIPYdBIDeGC/6JwpCAKib/QgBAKAA9h0EgF6tRPClSRSExowCQK9+SU06EwMAAIzDvoMA0Dvn2T/Z8+EBABFx2T2xDAAADG8V9h0EgL4YL/oVCkIAIGK7H+Gqe3IZAAAYSGrSRdh3EAD6tBLBX02mIDRmFAB6dxQR9iMEAICBpCYtI+KdJACgVxagfcWeDxEAeORtatK5GAAAoF+pSYtwrwsA+ma86DcoCAGAP/u3/QgBAKA/3Wj/q9iO+gcA+rMSwddNqiA0ZhQABrO2HyEAAPTmMrYj/gGAfll49g17E3zNKx8bAPRuPyLWYgAAgN1KTTqLiLeSAIDeGS/6HZMrCHObryLiwUcHAL07Sk1aiQEAAHajG+X/uyQAYBArEXzb3kRftyWhADCMt90TzgAAwCt0I/zXkgCAweiSvkNBCAD8yO/dk84AAMALPCoH96UBAIO4Nl70+yZZEBozCgCDW3c3NQAAgOe7jIgjMQDAYFYi+L69Cb92qwgBYDj7oSQEAIBnS006j4i3kgCAQemQfmDKBeGljw8ABnXk/AsAAE+XmrSMiH9LAgAG9SG3+V4M3zfZgjC3+SYi7nyEADCot6lJF2IAAIDv6/bxtnoBAIbn/PsEez5kAOCZ3qUmnYkBAAC+rhvNv4rtqH4AYDgPuc0rMfzY1AtCHzIAjOOyeyIaAAD4q6vYjugHAIY/B/MEky4IuzGjtz5GABjcfkSsuyejAQCATmrSKiJOJAEAo1AQPtHeDN7DyscIAKNQEgIAwCOpSecR8VYSADCKu9xmBeETzaEg9GEDwHiOIuJSDAAA1C416TQi/i0JABiNvugZJl8Q5jZvIuLaRwkAo3mbmqQkBACgWt3+3CtJAMConIufYc+HDgDswC+pSWdiAACgNt3I/XVsR/ADAOO4y22+EcPTzaUgtGwUAMb3e2rSUgwAANRCOQgAxTDd6plmURDmNt9HxHsfJwCM7qobrwQAAFVc/8Z2X24AYPxzMs+w58MHAHZoPyLW3ZPUAAAwW6lJq4g4kQQAjO46t3kjhueZTUGY23wVEXc+UgAYnZIQAIBZS026iIi3kgCAIqxE8Hx7M3s/VhECQBmOnJcBAJij1KSziHgnCQAowkO4B/UicysIVz5SACjGSTd2CQAAZiE1aRkRv0sCAIpxldt8L4bnm1VBmNt8ExG3PlYAKMZbJSEAAHOQmnQcVigAQGlWIniZPV8GAKBnb7sxTAAAMEldObiO7X7bAEAZ7nKb12J4GQUhADCE35WEAABMUWrSQWzvNykHAaAsKxG83OwKwm7W7AcfLQAU5/duzxYAAJiErhxcR8SRNACgOCsRvNyeLwUAMKCrbjwTAAAUTTkIAEW7zm3eiOHlZlkQ5jZfRcSDjxcAirMfEWslIQAAE3AZykEAKNVKBK+z58sBAAzsU0l4IAoAAEqUmrSKiLeSAIAiPUTElRheZ84F4aWPFwCKpSQEAKBIykEAKN5VbvO9GF5ntgVhN3v21kcMAMU6CiUhAAAFSU26COUgAJRuJYLX25v5+7OKEADKpiQEAKAIqUlnEfFOEgBQtLvc5rUYXm/uBeFVbGfRAgDlOooIF3YAAIymKwd/lwQAFM/CsB2ZdUHYzaC1USUAlO+o2+sFAAAGpRwEgElZiWA39nxZAIBCvFUSAgAwJOUgAEzKh25hGDsw+4Kwm0V756MGgElQEgIAMIjUpNNQDgLAlKxEsDt7lbxPM2kBYDqUhAAA9Co16TjcZASAKbnLbbal3A7VUhC64AOAaVESAgDQi64cXEfEvjQAYDJWItitKgrCbibtex83AEyKkhAAgJ1SDgLAZK1EsFt7vjwAQMGUhAAA7IRyEAAm60Nu80YMu1VNQZjbvI6IOx85AEyOkhAAgFdRDgLApK1EsHt7lb3fSx85AEySkhAAgBdRDgLApD3kNl+JYfdqKwhXPnIAmCwlIQAAz6IcBIDJW4mgH1UVhLnN9xHx3scOAJOlJAQA4EmUgwAwCyZD9mSvwve88rEDwKQpCQEA+C7lIADMwofc5o0Y+lFdQZjbvI6IOx89AEyakhAAgK9SDgLAbKxE0J+9St+3JakAMH1KQgAAvpCadBbKQQCYg7vc5isx9KfWgnDloweAWVASAgAQEX+Ug7+HchAA5mAlgn5VWRDmNt9HxHsfPwDMgpIQAKByj8pBAGAeViLo154vFwAwA29Tk9apSQeiAACoi3IQAGbnQ27zRgz9qrYgzG1eR8SdrwAAzMZJRCgJAQAqohwEgFm6FEH/9ip//xe+AgAwK0ehJAQAqEJq0kUoBwFgbu66BV70rPaC8CoiHnwNAGBWlIQAwP+zdyfHdVxZ10A3ywHiH+SdCp8FhCzgkwVCWcBHCwRZINACgRbwwQKBFgi0oAALCpjenAAW4B9kUqRUbNC8Jpu1IhilqAhNdrBYONx5zmXi+jeof5MEAEyO7cEtmXVBWNt6k64kBACm5UWSi9KUA1EAAExLXw6+kgQATNJKBNvxLxE4MwoAE/VDuk1CJSEAwASUpuwpBwFg0k77xS62YPYFYW3rVZIPfisAwCQ9j5IQAGD0+vPx51EOAsCUOS+6RTYIOysRAMBkfSwJl6IAABifz8rBF9IAgMn6UNt6IYbtURAmqW1dJbmWBABM1vMk75SEAADj0l+CuIhyEACmbiWC7VIQ+s0HAHPyrjTlWAwAAMPXl4Pn6d6WBgCm67Zf5GKLFISfuG0LAPPwW2mKHzoBAAasNOUwXTn4XBoAMHn6mR1QEPZqW2+SnEoCAGbhVWnKWf+eDQAAA9Kfhf8jykEAmIuVCLZPQfh3WmoAmI+fk5wrCQEAhqM/B/9OEgAwG6e1rVdi2D4F4WdqWy+SfJAEAMzGi3Ql4YEoAAB2qz8D/5skAGBWViLYDQWh34wAMHdKQgCAHSpN2StNOU/yShoAMCuXta3nYtgNBeE/1LauklxLAgBm5XmS//Tv3QAAsCWlKftJzpO8lAYAzI5n33ZIQfhlKxEAwCy9K005EgMAwOb1Fxwu0l10AADm5bZf2GJHFIRfprUGgPn6vX//BgCADekvN5ynu+QAAMyPHmbHnt3d3Unhyz+oruL2PQDM2WWSRW3rjSgAANanv9jwuyQAYNb+n79z2S0bhF93LAIAmLUXSc7701cAAKxB/0G2chAA5u1UObh7Ngi//UPreTySDQBzd5vksLb1XBQAAI9TmrKX7qSo9wYBgB9rWy/EsFs2CL/NDVwA4HmSP/t3cgAAeKD+IsNFlIMAQPJBOTgMCsJvqG09S3ItCQAgybv+JBYAAPdUmnKYbnPwB2kAALGYNRgKwu87FgEA0HtVmnLen8gCAOAbSlOOkvyR7iIDAMB1v5jFACgIv+8s3dtDAABJ9z7xRX8qCwCAfyhN2esvL/wuDQDgM8ciGA4F4XfUtt7EyisA8Hc/JDn3LiEAwN+VpuynOyn6ShoAwGdu0y1kMRAKwvtZiQAA+Ifn6d4lPBYFAEBSmrJIcpHkhTQAgH846ReyGAgF4T3Utl4lOZUEAPAFv5WmnHmXEACYs/69wT/jvUEA4MtWIhiWZ3d3d1K43w+6+0n+KwkA4CuukxzWtl6IAgCYi/4jqZM4KQoAfN1pbetSDMNig/Ce+i3CD5IAAL7Cu4QAwKx4bxAAuKdjEQyPgtBvYgBgfT6+S3giCgBgykpTDuO9QQDg+z70C1gMjBOjD/8B2A+/AMB9XCZZeIAbAJia0pTjJL9JAgC4h59qW8/FMDw2CB/ORgAAcB8vklyVpixEAQBMQWnKXmnKeZSDAMD9XCoHh0tB+EC1rask15IAAO7heZI/+6/sAQBGq//o6SrJS2kAAPdk4WrAFIR+UwMAm/dbacp5acqeKACAsSlNOUryZ7qPnwAA7uO6X7hioBSEj7NKcisGAOABXsbJUQBgRPqTomdJfpcGAPBAxyIYNgXhI9S23sQWIQDwcE6OAgCjUJpykOQiyc/SAAAe6DbJmRiGTUH4eApCAOCxnBwFAAar/5jpP0l+kAYA8Agn/aIVA/bs7u5OCo//gXmV5JUkAIBHuk1yWNt6LgoAYNf6j5fO0p1GBwB4jNsk+wrC4bNB+DTHIgAAnsDJUQBgEPp3kq+iHAQAnmalHBwHBeET1LZeJTmVBADwRL+VplyUpuyLAgDYttKUkyR/pvt4CQDgKTzPNhIKwqc7FgEAsAYvklyUphyKAgDYhtKUg9KUiyS/SAMAWIPTfrGKEVAQPlH/m/2DJACANXie5I/SlFX/BhAAwEaUphwlOU/3kRIAwDoci2A8FIR+0wMAw/Mq3TbhQhQAwDqVpuyVppwl+T1OigIA62N7cGQUhGtQ23oeW4QAwHr9kOTP0pRjUQAA69B/fHSV5GdpAABrthLBuDy7u7uTwvp+yP5TEgDABlwmWda2XogCAHio/nT5cbw1CABsxofa1oUYxsUG4Zr0W4SXkgAANuBFkvP+rSAAgHsrTTlIchHlIACwOcciGB8F4XqdiAAA2JDnSX4vTTkvTdkXBwDwPf2p8v+kO10OALAJH/oFKkbGidH1//B95QdvAGDDbpMc1bauRAEA/FO/NbhKd4UAAGCTflIQjpMNwvU7FgEAsGHPk7wrTTnr3xQCAEjyt61B5SAAsGmXysHxskG4mR/Gr2KLEADYjtsky9rWM1EAwHzZGgQAduC160bjZYNwM45FAABsyfMkf9gmBID5sjUIAOzAtXJw3GwQbu6H86vYIgQAtsvbhAAwI7YGAYAdsj04cjYIN+dYBADAln18m/C8NGVfHAAwXbYGAYAdsj04AQrCDen/x3EtCQBgB14muShNORIFAExLacqiNOUiyW/SAAB25FgE4+fE6GZ/aF8meScJAGCHPqQ7O3ohCgAYr/6t4eMkv0gDANih69rWfTGMnw3CzTpL9xYQAMCuvEzyn/4MGQAwQqUpiyQXUQ4CALt3LIJpsEG4+R/ij+PsBwAwDNdJlrWt56IAgOHrtwZXSX6WBgAwALYHJ8QG4eadxBYhADAMPyT5szRl1f+FIwAwUP1bwldRDgIAw3EsgumwQbidH+qPY4sQABiW23RvE65EAQDDUZpykO5j45fSAAAGxPbgxNgg3A5bhADA0DxP8q405bz/i0gAYIdKU/ZKU06S/CfKQQBgeI5FMC02CLf3g/5xbBECAMP1JslJbeuNKABgu0pTDtN9XPyDNACAAbI9OEE2CLfHFiEAMGS/Jbno/4ISANiC0pT90pTzJH9EOQgADNexCKbHBuF2f/A/ji1CAGD4PiRZ1rZeiQIA1q80ZS/JUfwdAQAwfLYHJ8oG4XbZIgQAxuBlkv+Wphz3f4EJAKxJacoyyVWUgwDAOByLYJpsEO5mEHgnCQBgJG6THNW2rkQBAE/6+4CDdB8Ov5QGADAStgcnTEG4m6HgKt4WAADG5UOS49rWc1EAwIP+DmAvXTH4ShoAwMi89sHwdDkxuhvHIgAARuZlkj9LU1alKfviAIDvK005TndOVDkIAIzNtXJw2mwQ7m5IuIotQgBgnG7TbUKc1LbeiAMA/mfmP+z/v9LcDwCMle3BiVMQ7m5YWMZbhADAuF2nOztqYACAbtZfpLsa5J1BAGDU8763B6dPQbjbweEqviYEAMbvMsmR9wkBmPF8v5+uGHRKFACYgn/Xtp6JYdoUhLsdIJaxRQgATMeHJMva1itRADCTuX4vyVGS36QBAExltq9tXYhh+hSEux8mrmKLEACYltN0p0evRAHAhOf543Tl4HNpAAAT8pMLQfOgINz9QHGY5A9JAAAT9CbJSW3rjSgAmNAcv0x3TtTHvgDA1NgenBEF4TCGi/N4wBwAmKbbJCdRFAIw/tl9kWQVxSAAMF22B2dEQTicIeNPSQAAE3ab5Ki2dSUKAEY4sx/Hh70AwLTZHpwZBeFwBo5zwwYAMAPX6d4nXIkCgIHP6YsoBgGA+fixtvVCDPOhIBzW4GGLEACYC0UhAEOdzw/SncdWDAIAc3Fa27oUw7woCIc1hJwl+VkSAMCMKAoBGMpMvp9uY/CVNACAmfm/2tYrMcyLgnB4w8h/JQEAzJCiEIBdzuLHUQwCAPNke3CmFITDG0xWhhIAYMYUhQBsa/7ej2IQAJi32yQHtgfnSUE4zAHFFiEAMHeKQgA2NXcfJDmKYhAA4E1t67EY5klBOMxh5STJL5IAAFAUArC2WXuRbmPwpTQAAHKbZL+29UYU86QgHObQspfkKslzaQAAJFEUAvD4GXsRxSAAwD/ZHpw5BeFwB5jjJL9JAgDgb66TrJKc+MoRgO/M1cskyygGAQC+NFsfmKvnTUE43EHGFiEAwNfdJjmJohCA/52nl+k2Bn+QBgDAF712oQcF4fCHmneSAAD4ptN050evRAEw2/l5L8lRuo1BxSAAwNdd17buiwEF4fCHnCvDDQDAvbxPt1F4LgqA2czM+/lUDLrAAwDwfT+Zm0kUhGMYdg6T/CEJAIB7+5Bk5VwKwKRn5YN0xeAraQAA3H9erm1diIFEQTiWwec8HlUHAHio63TvFK68Uwgwmfl4mW5b0IwMAPBwtgf5i4JwHAPQIsmfkgAAeJTbJGfxTiHAWGfivXSl4FE8wQEA8Finta1LMfCRgnA8A9FZkp8lAQDwJB/SvVN4JgqAwc/B+0mOkxzG+4IAAE/1fz6a5XMKwnENRv+VBADAWjg/CjDc+XcZZ0QBANbpbW3rkRj4nIJwXEPSSZJfJAEAsDYfz4+e1LZeiANgZ/PufrpScBlnRAEA1j337vs4ln9SEI5rYNpLchWnVQAANuEy3VbhmcEJYGtz7iJdKfhKGgAAG/GmtvVYDPyTgnB8w9Nxkt8kAQCwMbdJVum2Cq/EAbD2uXYvXSl4FNuCAACbdF3bui8GvkRBOM5h6soQBQCwFbYKAdY3yx4mOYxtQQCAbfl3beuZGPgSBeE4h6plkneSAADYGm8VAjxuft2PtwUBAHbhQ23rQgx8jYJwvEPWeZKXkgAA2LrrdFuFK1uFAF+dWZfptgV/lgYAwE78VNt6Lga+RkE43mFrkeRPSQAA7NT7dEWhky2AObUpB+neFTxM8lwiAAA7c1rbuhQD36IgHPfwtYq3GwAAhsAJUmCuc+l+ukLwKE6IAgAMZT49qG29EgXfoiAc/yB2EV9mAgAMyXWSVbrNQgMZMMVZdC+fSsEXEgEAGJQ3ta3HYuB7FITjH8yOk/wmCQCAQbpMVxaeKQuBCcyfy3hXEABgyG6T7Ne23oiC71EQjn9A20u3ReiUCwDAsL1Pd4b0zLAGjGjmPExXCnpXEABg+F7Xtq7EwH0oCKcxsC2TvJMEAMBoKAuBIc+YSkEAgPG5rG09EAP3pSCczgB3nuSlJAAARkdZCAxhplQKAgCM20+1redi4L4UhNMZ5hZJ/pQEAMCofSwLz71ZCGx4htxLsohSEABgCk5rW5di4CEUhNMa8FZJXkkCAGASLpOs0m0WXokDWMPMuJdPheDPEgEAmITbJAfmRh5KQTitYW8/yUV8+QkAMDXX6TYLV7WtF+IAHjgnHiZZJnkhEQCAyXlT23osBh5KQTi94e84yW+SAACYrNv0bxamO0Xq3ULgn3PhIp82BX+QCADAZF2n2x40F/JgCsJpDoNXhkAAgNn4kE9loe1CmOcMuJ9P7wku4qoMAMBc/Lu29UwMPIaCcJrD4WGSPyQBADA710nOY7sQ5jD3LfKpEHQ6FABgfj7Uti7EwGMpCKc7LJ4neSkJAIBZu8ynsvBcHDDqGe8gXRn48ZctQQCAefvRFRmeQkE43eFxP8l/JQEAQO823XbheZwjhbHMdIvPfnlGAgCAj97Wth6JgadQEE57oDxJ8oskAAD4AoUhDGt+249CEACA+81y+56U4KkUhNMeMPeSXMXpGQAA7jdknkdhCNua1/ajEAQA4OFe17auxMBTKQinP3Quk7yTBAAAD/SxMLyINwxhHbPZxzcEP/6nQhAAgIe6rG09EAProCCcxyB6nuSlJAAAeKIP6QvDJBe1rVcigS/OYHv5VAQu+n922QUAgKf6ycebrIuCcB7D6UGS/0gCAIA1u05XGNoyxMz1qQg8SPJCKgAArNlpbetSDKyLgnA+A+tJkl8kAQDAhl3mU2l4oTRkgrPVxxLw4y/XWgAA2LTbJPu1rTeiYF0UhPMZYveSXMVZGwAAtu9jaXiVT+dJDbaMYY5apCsB96MMBABgd36tbT0RA+ukIJzXcLtM8k4SAAAMwHU+FYZX6UrDC7Gwo1lpP3/fCjxI8oNkAAAYgMva1gMxsG4KwvkNvufx1SsAAAMeftMXhv2vK8Uha5yHDpLspXsvcL//ZT4CAGDIfvJ0A5ugIJznQPwfSQAAMDKfbxze5FN5eCUa/jHz7OXTWdD9z/75hXQAABiZ09rWpRjYBAXhPAfmkyS/SAIAgIm4TFcanudTeXhj83DSM81+PpV/e5/9p21AAACm4jbJvvfb2RQF4TyH6b10X18/lwYAADMYqi/yqThMuiIx6d49NGwPc2ZZ9P/4sfjb/+yXtwEBAJiD17WtKzGwKQrC+Q7ch0n+kAQAAPx1vjT5VB5effbfKRLXN4cs+n/8uPWXfCoB9+IMKAAAJMmH2taFGNgkBeG8h/PzOMEDAAAP8fGcafJpMzH5+4ZiMvETp5+d+PzoY8mX/L38i5kDAAAe7EdPJrBpCsIZ64f6/0oCAAC24vNNxc99XjR+zdVX/t37+mdp9zWLr/y7NvsAAGA73ta2HomBTVMQzlxpynGS3yQBAAAAAAA7dZ3kwBMHbIOCkJSmXCX5QRIAAAAAALAz/65tPRMD2/AvEZBkKQIAAAAAANiZ98pBtklBSGpbz5O8lwQAAAAAAGzdbRLvDrJVCkI+WvZ/CAEAAAAAANtzXNt6JQa2SUFIkqR/9PRYEgAAAAAAsDWXta0nYmDbFIT8pf9D6IMkAAAAAABgK5YiYBcUhPyTO8cAAAAAALB5b2tbL8TALigI+Zv+D6M3kgAAAAAAgI25jme/2KFnd3d3UuB/lKZcJflBEgAAAAAAsHb/rm09EwO7YoOQr1mKAAAAAAAA1u69cpBdUxDyRbWt50neSgIAAAAAANbmNhZ0GAAFId9y3P9hBQAAAAAAPN1xbeuNGNg1BSFf1f8htZQEAAAAAAA82Yfa1hMxMAQKQr6pv4P8XhIAAAAAAPBoTosyKApC7mMZp0YBAAAAAOCxTmpbr8TAUCgI+a7+1OixJAAAAAAA4MEua1uPxcCQKAi5l/4u8gdJAAAAAADAgyxFwNAoCHnoH2JOjQIAAAAAwP28qW29EAND8+zu7k4K3FtpylGS3yUBAAAAAADfdF3bui8GhsgGIQ/Snxq9lAQAAAAAAHzTUgQMlYIQf6gBAAAAAMB6va1tPRcDQ6Ug5MH6e8lvJAEAAAAAAP/jOsmxGBgybxDyaKUpF0leSAIAAAAAAP7yk+1Bhs4GIU+xFAEAAAAAAPzFaVFGQUHIozk1CgAAAAAAf3FalNFwYpQnc2oUAAAAAACcFmU8bBCyDksRAAAAAAAwY06LMioKQp7MqVEAAAAAAGbMaVFGx4lR1sapUQAAAAAAZshpUUbHBiHrtBQBAAAAAAAz4rQoo6QgZG2cGgUAAAAAYEacFmW0nBhl7ZwaBQAAAABgBpwWZbRsELIJyyS3YgAAAAAAYKKcFmXUbBCyEaUpR0l+lwQAAAAAABNzWdt6IAbGzAYhG1HbepLkgyQAAAAAAJiYpQgYOwUhm/5D0qlRAAAAAACm4k1t64UYGDsnRtkop0YBAAAAAJgIp0WZDBuEbFR/avS9JAAAAAAAGLHbOC3KhCgI2YZlnBoFAAAAAGC8jp0WZUoUhGxcbetNfFkBAAAAAMA4feiv5cFkKAjZitrWsySnkgAAAAAAYEScFmWSFIRs01GSazEAAAAAADASy9rWKzEwNQpCtsapUQAAAAAARuR9fx0PJkdByFbVtp4neSMJAAAAAAAG7DoWXpiwZ3d3d1Jg60pTLpK8kAQAAAAAAAP0U7/wApNkg5BdWaZ73BUAAAAAAIbkrXKQqbNByM6Uphwl+V0SAAAAAAAMxGVt64EYmDobhOxMbetJkveSAAAAAABgAG7j3UFmQkHIri3j1CgAAAAAALt3XNt6IQbmQEHITtW23iQ5lAQAAAAAADv0vr96B7OgIGTn+sde30oCAAAAAIAdcFqU2Xl2d3cnBQahNOUiyQtJAAAAAACwRT/1iywwGzYIGZJlvEcIAAAAAMD2vFUOMkc2CBmU0pSjJL9LZ0G5KAAAIABJREFUAgAAAACADbusbT0QA3Nkg5BB6R+BfS8JAAAAAAA26DbJoRiYKwUhQ7RMci0GAAAAAAA25Ki29UoMzJWCkMGpbb1JVxICAAAAAMC6nda2rsTAnCkIGaT+Udg3kgAAAAAAYI2ukxyJgbl7dnd3JwUGqzTlPMlLSQAAAAAAsAY/1rZeiIG5s0HI0C3TPRYLAAAAAABP8atyEDoKQgatfyR2KQkAAAAAAJ7gfW3riRigoyBk8Gpbz5K8lQQAAAAAAI9wG4so8DfeIGQ0SlMukryQBAAAAAAAD/BTbeu5GOATG4SMyWG8RwgAAAAAwP29UQ7C/7JByKiUphwm+UMSAAAAAAB8x4fa1oUY4H/ZIGRUvEcIAAAAAMA93Ka7Sgd8gQ1CRsl7hAAAAAAAfIN3B+EbbBAyVt4jBAAAAADgS7w7CN9hg5DR8h4hAAAAAAD/4N1BuAcbhIyW9wgBAAAAAPiMdwfhnmwQMnreIwQAAAAAIN4dhHuzQcgUeI8QAAAAAGDeflUOwv0pCBm92tarJEtJAAAAAADM0vva1hMxwP0pCJkE7xECAAAAAMzSdSyQwIN5g5BJKU05T/JSEgAAAAAAs/BjbeuFGOBhbBAyNd4jBAAAAACYh9fKQXgcBSGTUtt6k64kBAAAAABguk5rW1digMdREDI5ta3nSX6VBAAAAADAJF0mORIDPJ43CJms0pSzJD9LAgAAAABgMm6THNS2XokCHs8GIVO2TPclCQAAAAAA07BUDsLTKQiZrP49wmW6L0oAAAAAABi3N7WtZ2KAp3NilMkrTVkmeScJAAAAAIDR+lDbuhADrIcNQiavtnWV5K0kAAAAAABG6TrJoRhgfWwQMhulKedJXkoCAAAAAGA0bpMsalsvRAHrY4OQOTmM9wgBAAAAAMbkSDkI66cgZDZqW2+SLCQBAAAAADAKp/0TUsCaKQiZlf5Lk9eSAAAAAAAYtMva1qUYYDMUhMxO/8XJqSQAAAAAAAbpNq7BwUY9u7u7kwKzVJpykeSFJAAAAAAABuVH7w7CZtkgZM4W6b5EAQAAAABgGF4rB2HzFITMVm3rTaypAwAAAAAMxWn/RBSwYQpCZq3/EuW1JAAAAAAAduqytnUpBtgOBSGz13+RcioJAAAAAICduI5rb7BVz+7u7qQASUpTzpO8lAQAAAAAwNbcJll4dxC2ywYhfHKY7ksVAAAAAAC240g5CNunIIRebetNupLwVhoAAAAAABv3tn8CCtgyJ0bhH0pTDpP8IQkAAAAAgI15X9t6KAbYDRuE8A+1rWdJ3kgCAAAAAGAjLpMsxQC7Y4MQvqI0ZZXklSQAAAAAANbmNsnCu4OwWzYI4euO0n3JAgAAAADAehwqB2H3FITwFbWtN0kO033RAgAAAADA07yubT0XA+yeghC+obb1KslCEgAAAAAAT3Ja27oSAwyDghC+o193fy0JAAAAAIBH+VDbuhQDDIeCEO6h/7LlrSQAAAAAAB7kMt1TTsCAPLu7u5MC3FNpyirJK0kAAAAAAHzXbZJFf6UNGBAbhPAwR+m+eAEAAAAA4NsOlYMwTApCeIDa1pski3RfvgAAAAAA8GWva1vPxQDDpCCEB1ISAgAAAAB809va1pUYYLgUhPAI/Vr8kSQAAAAAAP7mfW2rvzuFgVMQwiP1X8D8KgkAAAAAgCTJZZKlGGD4nt3d3UkBnqA0ZZXklSQAAAAAgBm7TbLfP9EEDJwNQnii2tZlkg+SAAAAAABm6jbJQjkI46EghPU4TLc+DwAAAAAwN8va1gsxwHgoCGEN+i9jDtN9KQMAAAAAMBeva1vPxADjoiCENaltvUqyiJIQAAAAAJiH09rWlRhgfBSEsEb9Gv2RJAAAAACAiTutbV2KAcZJQQhr1n8x81oSAAAAAMBEXcaiBIzas7u7OynABpSmrJK8kgQAAAAAMCHXSQ5qW29EAeNlgxA2pF+vP5UEAAAAADARt0kOlYMwfgpC2KyjdOv2AAAAAABjt6htvRADjJ+CEDao/5JmESUhAAAAADBur5WDMB0KQtiwviRcplu/BwAAAAAYm9e1rSsxwHQoCGEL+i9rFlESAgAAAADjcqochOlREMKW9CXhkSQAAAAAgJE4rW1digGmR0EIW9R/afNaEgAAAADAwF3GwgNMloIQtqwvCd9KAgAAAAAYqMski9rWG1HAND27u7uTAuxAacoqyStJAAAAAAADcptkXzkI02aDEHakv939XhIAAAAAwEDcxuYgzIKCEHZrmW5dHwAAAABglz6WgxeigOlTEMIO9V/iLKIkBAAAAAB260g5CPPhDUIYgNKU/SQXSZ5LAwAAAADYste1rSsxwHzYIIQBqG29SrdJeCsNAAAAAGCL3igHYX5sEMKAlKYcJDmPTUIAAAAAYPNOa1uXYoD5sUEIA9Lf+D6SBAAAAACwYcpBmDEbhDBApSnLJO8kAQAAAABswIfa1oUYYL5sEMIA9Te/X0sCAAAAAFizyySHYoB5UxDCQPUl4VtJAAAAAABrcplkUdt6IwqYNydGYeBKU1ZJXkkCAAAAAHiC6yQHykEgsUEIg9c/FHwqCQAAAADgkW6THCoHgY9sEMJIlKacJ3kpCQAAAADgAW7TnRW9EAXwkQ1CGI/DdDfCAQAAAADuQzkIfJGCEEaiX/9fREkIAAAAANzPoXIQ+BIFIYyIkhAAAAAAuKfXta3nYgC+xBuEMEKlKXtJrpI8lwYAAAAA8A+va1tXYgC+xgYhjNBnm4S30gAAAAAAPqMcBL5LQQgj1d8OX0RJCAAAAAB0lIPAvSgIYcSUhAAAAABA71Q5CNyXghBGTkkIAAAAALN3Wtu6FANwX8/u7u6kABNQmnKQ5D+SAAAAAIBZUQ4CD2aDECai3yR8LQkAAAAAmA3lIPAoCkKYkP7GuJIQAAAAAKZPOQg8moIQJkZJCAAAAACTpxwEnsQbhDBRpSnLJO8kAQAAAACTclnbeiAG4ClsEMJE2SQEAAAAgMm5TLIQA/BUCkKYMCUhAAAAAEzGZZJFbeuNKICnUhDCxCkJAQAAAGD0lIPAWikIYQaUhAAAAAAwWspBYO0UhDATfUn4RhIAAAAAMBrKQWAjnt3d3UkBZqQ0ZZXklSQAAAAAYNCUg8DG2CCEmaltXSY5lQQAAAAADJZyENgoBSHMkJIQAAAAAAZLOQhsnIIQZkpJCAAAAACDoxwEtkJBCDOmJAQAAACAwVAOAlujIISZUxICAAAAwM4pB4GtUhACSkIAAAAA2B3lILB1CkIgiZIQAAAAAHZAOQjshIIQ+IuSEAAAAAC2RjkI7IyCEPibviR8LQkAAAAA2BjlILBTCkLgf9S2rqIkBAAAAIBNUA4CO6cgBL5ISQgAAAAAa6ccBAZBQQh8lZIQAAAAANZGOQgMhoIQ+CYlIQAAAAA8mXIQGJRnd3d3UgC+qzRlmeSdJAAAAADgQU5rW5diAIbEBiFwLzYJAQAAAODBlIPAICkIgXtTEgIAAADAvSkHgcFSEAIP0peE/05yKw0AAAAA+CLlIDBo3iAEHqU05SDJeZLn0gAAAACAvygHgcGzQQg8Sm3rRZJFbBICAAAAwEfKQWAUFITAoykJAQAAAOAvr5WDwFgoCIEnURICAAAAQF7Xtq7EAIyFghB4ss9KwktpAAAAADAzykFgdJ7d3d1JAViL0pS9JOdJXkgDAAAAgBlQDgKjpCAE1kpJCAAAAMAM3CY5rG09FwUwRgpCYO2UhAAAAABM2G2SRf/sDsAoeYMQWLva1pt0bxKeSgMAAACACVEOApNggxDYqNKUVZJXkgAAAABg5K7TnRVVDgKjpyAENk5JCAAAAMDIXabbHLwRBTAFTowCG1fbukzyqyQAAAAAGCHlIDA5CkJgK2pbT5K8lgQAAAAAI/I+ykFggpwYBbaqNGWZ5J0kAAAAABi40/4yFsDkKAiBrStNWSQ5S/JcGgAAAAAMkHIQmDQnRoGtq209T7JIcisNAAAAAAbmV+UgMHUKQmAnalsv0pWE19IAAAAAYCBe17aeiAGYOgUhsDN9SXiQ5FIaAAAAAOzQbbpycCUKYA68QQjsXGnKXpLzJC+kAQAAAMCW3SZZ9B+zA8yCghAYjNKUVZJXkgAAAABgS5SDwCw5MQoMRv/486kkAAAAANiCyyT7ykFgjhSEwKD0JeGvkgAAAABggy7TbQ7eiAKYIydGgUEqTVkmeScJAAAAANbstP9IHWC2FITAYJWmLJKcJXkuDQAAAADWQDkIEAUhMHClKQdJzqMkBAAAAOBpXte2rsQA4A1CYOD6R6L3092FBwAAAICHuo1yEOBvbBACo1Caspfu3OhLaQAAAABwT7dJFv1H6AD0FITAqJSmrJK8kgQAAAAA33GZZKkcBPhfTowCo9I/Iv1GEgAAAAB8w2VsDgJ8lYIQGJ3a1uMkryUBAAAAwBecpisHb0QB8GVOjAKjVZqySPcu4XNpAAAAAJDkbW3rkRgAvk1BCIxaacpBupLwB2kAAAAAzNrr2taVGAC+T0EIjF5pyl6S8yQvpAEAAAAwO7dJlrWtZ6IAuB9vEAKj19+TX6S7Lw8AAADAfNyme29QOQjwADYIgUkpTTlJ8oskAAAAACbvMl05eCMKgIexQQhMSv8I9WtJAAAAAEzaaZSDAI9mgxCYpNKURZKzJM+lAQAAADApb/uPxAF4JBuEwCTVtp6ne5fwUhoAAAAAk/FaOQjwdDYIgUkrTdlLcp7khTQAAAAARus23UnRC1EAPJ0NQmDSaltvalsP0t2lBwAAAGB8LqMcBFgrBSEwC7WtyyS/SgIAAABgVD5EOQiwdk6MArNSmnKYZJXkuTQAAAAABu20/+gbgDVTEAKzU5pykOQsyQ/SAAAAABik17WtKzEAbIaCEJil0pS9dCXhS2kAAAAADMZtnBQF2DgFITBrpSmrJK8kAQAAALBzl0kOa1uvRAGwWf8SATBn/R3715IAAAAA2Kn36TYHr0QBsHk2CAGSlKYs0p0cfS4NAAAAgK16U9t6LAaA7VEQAvRKU/bTlYQvpAEAAACwcbdJjmpbV6IA2C4nRgF6/QmLRZJTaQAAAABs1HW6k6IrUQBsnw1CgC8oTTlO8pskAAAAANbuQ5LD2tYbUQDshoIQ4CtKUw6TrOJdQgAAAIB1eVvbeiQGgN1yYhTgK2pbz9KdHL2UBgAAAMCT3CZ5rRwEGAYbhADfUZqyl26T8GdpAAAAADzYdbqToheiABgGBSHAPXmXEAAAAODBvDcIMEAKQoAH8C4hAAAAwL15bxBgoLxBCPAA3iUEAAAA+C7vDQIMnA1CgEfo3yU8SfJKGgAAAAB/8d4gwAgoCAGeoDTlKMnvkgAAAADI+yRL7w0CDJ+CEOCJSlMWSc7iXUIAAABgvt7Uth6LAWAcFIQAa9CfHD1P8kIaAAAAwIzcpjspei4KgPFQEAKsUWnKSZJfJAEAAADMwGW6cvBKFADjoiAEWLPSlGWSkzg5CgAAAEzXaW3rUgwA4/QvEQCsV23rKski3Vd0AAAAAFNym+S1chBg3BSEABtQ23qRriQ8lQYAAAAwEZdJFv3H0QCMmBOjABtWmnKU5HdJAAAAACP2PsmytvVGFADjpyAE2ILSlIMkZ0l+kAYAAAAwMr/Wtp6IAWA6FIQAW1KaspdkleRnaQAAAAAjcJ3ksH9KBYAJURACbJmTowAAAMAIOCkKMGEKQoAd6E+Onid5Lg0AAABgYJwUBZg4BSHAjvQnR8+SvJQGAAAAMABOigLMhIIQYMecHAUAAAAGwElRgBlREAIMQH9y9CzJD9IAAAAAtsxJUYCZURACDER/cnSV5GdpAAAAAFvgpCjATCkIAQbGyVEAAABgC5wUBZgxBSHAADk5CgAAAGyQk6IAM/cvEQAMT3/a4yDJqTQAAACANblM8qNyEAAbhAADV5qyTHKS5Lk0AAAAgEc6TXLkpCgAiYIQYBT6k6OrJC+kAQAAADzAbbq3Bs9EAcBHCkKAESlNOUnyiyQAAACAe7hMcljbeiUKAD6nIAQYmdKURZKzODkKAAAAfN2b2tZjMQDwJQpCgBEqTdlLVxK+lAYAAADwmet0J0XPRQHA1ygIAUasNOUoye+SAAAAAJK8T1cO3ogCgG9REAKMXGnKQZJVkhfSAAAAgFm6TXJU27oSBQD3oSAEmIjSlJMkv0gCAAAAZuUyyWFt65UoALgvBSHAhJSmLNK9TfhcGgAAADB5b2pbj8UAwEMpCAEmpjRlL93J0Z+lAQAAAJN0nW5r8EIUADzGv0QAMC21rTe1rYdJXqd7gwAAAACYjrdJDpSDADyFDUKACStN2U+3TfhSGgAAADBqt0mWta1nogDgqRSEADNQmnKc5DdJAAAAwCi9T1cO3ogCgHVQEALMRGnKQbptwhfSAAAAgFG4TXJc23oiCgDWSUEIMDOlKSdJfpEEAAAADNqHdFuDV6IAYN0UhAAzVJqySLdN+IM0AAAAYHB+tTUIwCb9SwQA81Pbep7kIMlbaQAAAMBgXCb5UTkIwKbZIASYudKUw3TbhM+lAQAAADvzprb1WAwAbIOCEICUpuylKwl/lgYAAABs1WW6twYvRAHAtigIAfiLbUIAAADYKluDAOyEghCAv7FNCAAAABt3neTQ1iAAu6IgBOCLbBMCAADARrxNclzbeiMKAHZFQQjAV9kmBAAAgLW5TvfW4LkoANg1BSEA32WbEAAAAJ7E1iAAg6IgBOBebBMCAADAg12m2xr01iAAg6IgBOBBbBMCAADAvbypbT0WAwBDpCAE4MH6bcKTJK+kAQAAAH9jaxCAwVMQAvBopSmLdNuEP0gDAAAAbA0CMA7/EgH/v717OWori/Y4/K+bAEzOnsKNwM4AMjAZNBk0GTSdATcDnAGdgcgAZyBNjyYogzvYRy0Z220eepzH91WphO3Zmrl+rLUB3qtdtrMkn1MfWwcAAICpekzyv+IgAENhgxCAnbBNCAAAwAStkty2y/bOKAAYEoEQgJ0qTblN8pdJAAAAMHKPqW8Nzo0CgKERCAHYudKUz0nuklyYBgAAACOzSg2DD0YBwFAJhADsTWnKTZLbJCemAQAAwAh8TXLTLttnowBgyARCAPaqNOU8dZvwi2kAAAAwUIvUrcGZUQAwBgIhAAdRmnKV5D62CQEAABiWv5Pc2RoEYEwEQgAOpjTlNPXk6J+mAQAAQM89pp4TfTIKAMZGIATg4EpTLlPPjn4yDQAAAHpmleS2XbZ3RgHAWAmEABxNacptkps4OwoAAEA//JP61qBzogCMmkAIwFGVppynbhN+MQ0AAACOZJEaBmdGAcAUCIQA9EJpylVqKDwzDQAAAA7o73bZ3hoDAFMiEALQG6Upp6knR/8yDQAAAPbsMXVrcG4UAEyNQAhA75SmfE7dJrwwDQAAAHZskeSmXbYPRgHAVAmEAPRWacp1aig8MQ0AAAB24P+S3LbL9tkoAJgygRCAXuvOjt4m+dM0AAAAeKfH1K3BJ6MAAIEQgIFwdhQAAIB3WKWGwXujAIANgRCAQXF2FAAAgFdyThQAfkEgBGBwnB0FAADgPzgnCgC/IRACMFjOjgIAALBlkRoGH4wCAP6bQAjA4HVnR2+TnJkGAADAJP2d5M45UQB4HYEQgFHozo7eJPnLNAAAACbjMcl1u2znRgEArycQAjAqpSnnqWdHv5gGAADAaC1Sw+DMKADg7QRCAEapNOUyyX2cHQUAABiTVZLbdtneGQUAvJ9ACMColabcpL5PeGIaAAAAg/Y1yY13BgHg4wRCAEave5/wNsmfpgEAADA4j6lh8MkoAGA3BEIAJqN7n/A+yYVpAAAA9N4iNQw+GAUA7JZACMDkeJ8QAACg11ZJ7tple2sUALAfAiEAk+V9QgAAgN7xziAAHIBACMCkde8T3iT5yzQAAACO5jHJdbts50YBAPsnEAJA/n2f8C7JF9MAAAA4mEVqGJwZBQAcjkAIAFu69wlvk1yYBgAAwN6sUk+J3hsFAByeQAgAP1Gacp0aCs9MAwAAYGdWqddb7rwzCADHIxACwH8oTblJDYUnpgEAAPAhX1O3BoVBADgygRAAfqM05TTJTZK/TAMAAODNHlPfGZwbBQD0g0AIAK9UmnKeuk34h2kAAAD81mOS23bZzowCAPpFIASAN+pC4X2SC9MAAAD4wSL1lOiDUQBAPwmEAPBOpSmXqRuFQiEAAEANg7ftsr03CgDoN4EQAD6oNOUqyV2SM9MAAAAmaNX9n+iuXbbPxgEA/ScQAsCOlKZcp24UCoUAAMAUCIMAMFACIQDsWGnKbZKbJCemAQAAjNTX1HOic6MAgOERCAFgD0pTTlMjoVAIAACMiTAIACMgEALAHgmFAADASDwmuRYGAWAcBEIAOIDSlPPU9wn/MA0AAGBAHlM3BmdGAQDjIRACwAEJhQAAwEAIgwAwYgIhAByBUAgAAPSUMAgAEyAQAsARCYUAAEBPfEtyIwwCwDQIhADQA0IhAABwJIvUjcF7owCA6RAIAaBHSlMuU0PhhWkAAAB7JAwCwIQJhADQQ0IhAACwJ8IgACAQAkCfCYUAAMCOCIMAwL8EQgAYAG8UAgAA7yQMAgA/EAgBYECEQgAA4JUeU8PgzCgAgJcEQgAYIKEQAAD4BWEQAPgtgRAABkwoBAAAOsIgAPBqAiEAjMBWKLxKcmIiAAAwGcIgAPBmAiEAjEhpymmSm+4jFAIAwHh9TQ2Dc6MAAN5KIASAERIKAQBgtIRBAODDBEIAGLEuFF6lnh89MxEAABikVZL7JHfCIACwCwIhAExEacp1hEIAABiSVZK71DD4bBwAwK4IhAAwMaUpV6mnRy9MAwAAemmR+st9D8IgALAPAiEATFRpymVqKPxiGgAA0AvfUrcF740CANgngRAAJq405Tz1t5P/MA0AADiKxyS37bKdGQUAcAgCIQCQ5N9QeJ26VXhiIgAAsHdfUzcGn4wCADgkgRAA+E5pymmSq9StwjMTAQCAnVoluU8Ng3PjAACOQSAEAH6pNOU6davwwjQAAOBDFknukty3y/bZOACAYxIIAYDfKk25TA2F3ikEAIC3eUyNgvdGAQD0hUAIALxa907hTWos9E4hAAD82tfUMDgzCgCgbwRCAODNuncKr1NjoXcKAQCg8r4gADAIAiEA8CGlKVepodA7hQAATNUiyW2SB+8LAgBDIBACADvRnR+9jXcKAQCYjsfUbcEHowAAhkQgBAB2qjs/un6n0PlRAADGZpXkIcmtM6IAwFAJhADA3pSmXKeGQudHAQAYukWSuyT3zogCAEMnEAIAe7d1fvQqyYmJAAAwIP+knhGdGQUAMBYCIQBwMN350evUE6TOjwIA0FerJPepYXBuHADA2AiEAMBRlKZcpobCL6YBAEBPfEuNgvdGAQCMmUAIABxVd370uvvYKgQA4NBWSR5Sw+CTcQAAUyAQAgC9UZpylbpVeGEaAADs2SLJXZL7dtk+GwcAMCUCIQDQO91W4U3qVuGJiQAAsENfU6PgzCgAgKkSCAGAXitNuU4NhbYKAQB4L9uCAABbBEIAYBBsFQIA8A62BQEAfkIgBAAGp9sqvEryxTQAAHjBtiAAwG8IhADAYHVbhdfd58xEAAAma5XkIcldu2yfjAMA4L8JhADAKJSmXKVuFf5hGgAAk/EtdVvwwbYgAMDrCYQAwKiUppxms1X4yUQAAEZnkc224Nw4AADeTiAEAEarNOVzkpvUzcITEwEAGLR/Ut8VfDAKAICPEQgBgEkoTblODYVfTAMAYDC+JblPDYNOiAIA7IhACABMSmnKeWoovI4TpAAAfbTKJgo+GQcAwO4JhADAZHUnSK+7jxOkAADH9TXJgxOiAAD7JxACACQpTblK3Sz8wzQAAA7mMXVb8MEJUQCAwxEIAQC2lKacZnOC9MJEAAB2bpHkLjUKzo0DAODwBEIAgF/wXiEAwM4skjzEu4IAAL0gEAIAvMLWe4VXSc5MBADgt1apUdC7ggAAPSMQAgC80VYsvE5yYiIAAN/5GlEQAKDXBEIAgA8oTblK3Sq8ilgIAEzXP9lsCz4bBwBAvwmEAAA7IhYCABMjCgIADJRACACwB2IhADBSoiAAwAgIhAAAeyYWAgADJwoCAIyMQAgAcEBiIQAwEKIgAMCICYQAAEciFgIAPSMKAgBMhEAIANADYiEAcCSiIADABAmEAAA9U5ryOcl1aiw8MxEAYIdW2QTBB+MAAJgmgRAAoMe6WLjeLPxkIgDAOyxSo+BMFAQAIBEIAQAGozTlPJtYeGEiAMB/+JZkluS+XbZPxgEAwDaBEABggEpTTlND4WW8WwgAVP+kRsGHdtnOjQMAgF8RCAEARqA0ZTsWercQAKZh/Z7gLDUKPhsJAACvIRACAIxM927hZZwiBYAxWp8OfWiX7cw4AAB4D4EQAGDEnCIFgFFwOhQAgJ0SCAEAJqTbLrzqPp9MBAB6aZHudGi7bB+MAwCAXRMIAQAmynYhAPSKLUEAAA5GIAQAIMl324WX8XYhAOybtwQBADgagRAAgB9024WX2WwXnpkKAHzIKt3Z0NTToXMjAQDgWARCAAB+qzTlPJtYeBnnSAHgNR6zeUvwyTgAAOgLgRAAgDfrzpFepgZD50gBoPqWTRCcGQcAAH0lEAIA8GGlKZfZnCQVDAGYivU7grPUKPhsJAAADIFACADAzpWmrE+RXib5ZCIAjMQiNQautwQFQQAABkkgBABgr0pTTrOJhZcRDAEYjnUQnKUGwbmRAAAwBgIhAAAHtRUM1+8YOkkKQF+sT4Y+RRAEAGDEBEIAAI7OG4YAHIk3BAEAmCSBEACA3ilNWW8Xrj8npgLADjxmEwNnxgEAwFQJhAAA9F5pynk2sfBzvGMIwO8t0p0KTQ2CT0YCAACVQAgAwOB07xhubxl+ji1DgKl+m0zcAAADCUlEQVR7zCYIPnk/EAAAfk0gBABgFLqzpOtoaMsQYNy2twOfnAsFAIC3EQgBABit0pTLbILh5yRnpgIwOKtsxcDUc6HPxgIAAO8nEAIAMBndW4YvNw2dJgXol/Wp0KfU7UBvBwIAwI4JhAAATJpoCHBUYiAAAByBQAgAAC+IhgB7IQYCAEBPCIQAAPAKXTQ8jzcNAX7n5ZuBT+2ynRsLAAD0h0AIAAAfUJpymRoLz7vvC1MBJuRbagScpwuC7bJ9NhYAAOg3gRAAAHbsxYnSdTz8ZDLAgC2yFQGTzJ0IBQCA4RIIAQDgQEpTtjcNL7ufnSkF+mQ7BM5TQ+DMWAAAYFwEQgAAOLIX4dDGIXAIQiAAAEyYQAgAAD3VhcPTbLYNz1MD4onpAK/0mOQ59Syo06AAAEASgRAAAAapNOUy30fD0yQXJgOT9C01As6yFQPbZftsNAAAwM8IhAAAMCKlKafZnCk9zyYe2jyEYdveBFx/z9tlOzcaAADgrQRCAACYkG7zMKlnS9ffp/HmIRzb+k3A7QD4HJuAAADAHgiEAABAku+2D9ffySYkOl8KH7M+A/oyANoCBAAADk4gBAAAXq00ZR0Qz7vPdkwUEZmqdfybd591AEy7bGfGAwAA9I1ACAAA7FRpynl+jIfrsJgIiQzHOvwlyaz7nnef53bZPhkRAAAwRAIhAABwFFshMfk+IL78+cS02KHHrZ9nP/lZ+AMAAEZPIAQAAAZh67xpsjlxmny/qbj+tzMTG71VujOenfWbfsnWic/EmU8AAICXBEIAAGDUXoTF5PsNxeTHwLj+u0+mtzeL1DOd2+Y/+bvZ9h+EPgAAgN0QCAEAAF7pJ7Fx7Tybjcaf+VmEfI19vNe4/a7ea83zY7zb9t3G3jZRDwAAoH8EQgAAAAAAAJiQ/zECAAAAAAAAmA6BEAAAAAAAACZEIAQAAAAAAIAJEQgBAAAAAABgQgRCAAAAAAAAmBCBEAAAAAAAACZEIAQAAAAAAIAJEQgBAAAAAABgQgRCAAAAAAAAmJD/B2jFgZd7Z/jHAAAAAElFTkSuQmCC;" parent="1" vertex="1">
                    <mxGeometry x="170" y="190" width="60" height="60" as="geometry"/>
                </mxCell>
                <mxCell id="6" value="" style="shape=image;verticalLabelPosition=bottom;labelBackgroundColor=#ffffff;verticalAlign=top;aspect=fixed;imageAspect=0;image=data:image/png,iVBORw0KGgoAAAANSUhEUgAAAlkAAAGvCAYAAABo28DeAAAAGXRFWHRTb2Z0d2FyZQBBZG9iZSBJbWFnZVJlYWR5ccllPAAAA/NpVFh0WE1MOmNvbS5hZG9iZS54bXAAAAAAADw/eHBhY2tldCBiZWdpbj0i77u/IiBpZD0iVzVNME1wQ2VoaUh6cmVTek5UY3prYzlkIj8+IDx4OnhtcG1ldGEgeG1sbnM6eD0iYWRvYmU6bnM6bWV0YS8iIHg6eG1wdGs9IkFkb2JlIFhNUCBDb3JlIDUuNi1jMTQ1IDc5LjE2MzQ5OSwgMjAxOC8wOC8xMy0xNjo0MDoyMiAgICAgICAgIj4gPHJkZjpSREYgeG1sbnM6cmRmPSJodHRwOi8vd3d3LnczLm9yZy8xOTk5LzAyLzIyLXJkZi1zeW50YXgtbnMjIj4gPHJkZjpEZXNjcmlwdGlvbiByZGY6YWJvdXQ9IiIgeG1sbnM6eG1wTU09Imh0dHA6Ly9ucy5hZG9iZS5jb20veGFwLzEuMC9tbS8iIHhtbG5zOnN0UmVmPSJodHRwOi8vbnMuYWRvYmUuY29tL3hhcC8xLjAvc1R5cGUvUmVzb3VyY2VSZWYjIiB4bWxuczp4bXA9Imh0dHA6Ly9ucy5hZG9iZS5jb20veGFwLzEuMC8iIHhtbG5zOmRjPSJodHRwOi8vcHVybC5vcmcvZGMvZWxlbWVudHMvMS4xLyIgeG1wTU06T3JpZ2luYWxEb2N1bWVudElEPSJ1dWlkOjVEMjA4OTI0OTNCRkRCMTE5MTRBODU5MEQzMTUwOEM4IiB4bXBNTTpEb2N1bWVudElEPSJ4bXAuZGlkOjdDNkU3MUQ5QTUwQzExRTk5RTBCOTFCODRDOUI5NjRDIiB4bXBNTTpJbnN0YW5jZUlEPSJ4bXAuaWlkOjdDNkU3MUQ4QTUwQzExRTk5RTBCOTFCODRDOUI5NjRDIiB4bXA6Q3JlYXRvclRvb2w9IkFkb2JlIElsbHVzdHJhdG9yIENDIDIwMTcgKE1hY2ludG9zaCkiPiA8eG1wTU06RGVyaXZlZEZyb20gc3RSZWY6aW5zdGFuY2VJRD0idXVpZDplZGRmZjc1ZS0zZjE4LWM5NGUtOThkNC1kMzJmOTc3ZGM0YzgiIHN0UmVmOmRvY3VtZW50SUQ9InhtcC5kaWQ6MzY3ZGQwMjUtY2JhYS00MTFiLWE1NDktYTFkZDBjNzAwZThlIi8+IDxkYzp0aXRsZT4gPHJkZjpBbHQ+IDxyZGY6bGkgeG1sOmxhbmc9IngtZGVmYXVsdCI+bW9ieTwvcmRmOmxpPiA8L3JkZjpBbHQ+IDwvZGM6dGl0bGU+IDwvcmRmOkRlc2NyaXB0aW9uPiA8L3JkZjpSREY+IDwveDp4bXBtZXRhPiA8P3hwYWNrZXQgZW5kPSJyIj8+g6whIAAAVJJJREFUeNrs3QecHWW9//HfnLO9J7vJbnpPNo2EFroUuQKKIhoVC8S/XSzX3rj2a694bVfFa7DLqiiIFUVQaiCQhLAJ6XU32d7bOef/e+acQAhJdubUOTOf9+v1OHE5M3v2mTkz3/PMM89jCQA41Lh67SRdvELLpVpWapmhJRSwaoho2aPlES1/0XJLc9OaTo4OAMeyqAIADsJVvS4+qeV1WgqpkWcY0vJdLZ8ibAEgZAFwE7BW6+IHWqqpjZM6pOU6DVp/pioAGCGqAMBJAtaHdHELAcuRyVru0Dp7M1UBwKAlC8CJAtY7dXEjNZGU1zQ3rfkp1QAQsgDg2IB1ri7u1hKmNpJi+mmdoUHrcaoCCC5uFwI4NmAV6OJ7BKyUlEi8MzwAQhYAPOWVWpZSDSk7XwPr5VQDQMgCgCPeShWkzfVUARBc9MkC8JTG1WsbdHGQmkibUS01zU1rBqgKIHhoyQJwtPOogrQyA7eeSTUAwVRAFQA4ysKk1rIsidXWa5kkseJi/9RGTP+04SGx2lu1HE52K4u0/JNDCyBkAQi2Wtc5pLRMostOl1ilP8crjZn/mT5brK4OCW96WGRk2O0mJnBYAcHE7UIAyX/xKiqWyKnn+DZgPSNs1UyUyGnniIRdfzct5bACCFkA4Ep07iKRkuBkiFhZhURnz2fHAyBkAcjk2SMs0fppwQuWU2bYfdAAgJAFICNMXywJB3BQ+KJikcIiDgAAhCwAmQobwQ0asaJi9j8AQhYAAAAhCwAAgJAFAAAAQhYAAEAWMeI7gOyIRsXqbLOXtnBYYhPq3A2H4JVtAAAhC4BXmClprLbWZ/wsNmW6RBavzPk2zNhX0cUr2EkA0orbhQCywurrefYPe3s8sQ2rt5sdBICQBQAAQMgCAAAgZAEAAICQBQAAQMgCAAAgZAEAAICQBQAAQMgCAAAgZAEAAICQBQAAQMgCAAAgZAEAAICQBQAAQMgCAAAgZAEAAICQBQAAQMgCAAAgZAEAAICQBQAAQMgCAAAgZAEAAICQBQAAQMgCAAAgZAEAAICQBQAAQMgCAAAgZAEAAICQBQAAQMgCAAAgZAEAABCyACCTYkXFz/5hcXFebgMAnCigCgBkQ3TZaWK17NeUE0t8xQtJtGF6Xm4DAAhZADwjVlImsdkLfLENAHCC24UAAACELAAAAEIWAAAAIQsAAACELAC5Njoa2D/dGh1h/wMgZAHIUNAY7BeJRoP3h49puBwZ5gAAQMgCkCGRiFiHDwbvpHn0GFsAQMgCkAnh7c0iQbp1NjQooZ1b2fEACFkAMh86wuvvF2twwPd/qtXfa/+tQn8sAA4x4nvANK5eW6WLidQETqDKdfjo65HwA3fZU9PEaieLFJfYU9X4gulzZlqv2lufORUPABCyoKGqQhcv03KVlnO1TKJWkIkwEjqwR8QUAAAhy+fhqlgX79XyPi0TqBEAAAhZSD1gLdLFLVqWUxsAABCykJ6AdZYu/ii0XgEAkFM8XeivgLWIgAUAACEL6Q1YRRK/RUjAAgCAkIU0eo/QBwsAAEIW0qdx9dpyiT9FCAAACFlIIzMOVi3VAAAAIQvp9SKqAAAAQhbS7xyqAAAAb2GcrDyX6I/VkMy6seqJEpsyXWIVlRq3w/6plLExsXq6xDqwR6yBvpQ3Fystl9i0mRKrmqCfGB99ZKJRe9Jj6+A+sbraU9tWOCzRKTPicxcWFYtYlj/qyMxVODwkVlurhFr2xecyBABCVmC4H7IhFJLoouX2RdGvYjUTRWbMkdCOZgnt3p58DtFtROcv8U9oOLaeqmpE9DiwNECEmzckFSJildUSWX6GSEmpPw8m/ftidfUSmzlPQhsf0mDaJwDg6HJLFQQvKEcXLvN1wHqKBqPovMUSnTY7uYCldRRdsNS3AesZQalhukQaT3G/XkmZRFae7d+AdfTfWlYe/1tNSx0AELLwrAtFVY1Ep84M1N8cnd8oUljkMroWaMBaEqxjQ4NWrMbdQ6rReaZuC4NTScUlEp2zgBMJAEIWjnMhnTI9eH90WAPTJHfd1sztISkoDN7x0TDNVb3GJjUEro6i9dMC0boJ9xpXr63X8hMtC6kNELKCGLLKK4P5h5dVUE9O/u4K5393rLTM7t8XOCZ8c8sQx3eTlldr2aRB68taqqkSQhaCdoEIYnhwe7vQT09bZurvLiwM7MfI9fEE39NA9WZdvODIp0PLe7U8aX6uhWstIQsAACQRsObr4ivH+U+TtHxXyyP6mouoKUIWAABwHrBM8++PtZSf5GUrtPxDX9ukZQ61RsgCAADj+4iWsx2+9qVantCg9TEtdOwjZAEAgOPRoHS6Lj7mcjUTrj6pZYOufx616G+M+I6TstoPiTXQ/9T/j1VPiI8SnofbyGg99XaL1d2hbyzx/krL4sNA5OE2MmZ0REKHDj49qryZimfyVHdTFXllGyBgrV5rRuD9aQrXUTPMw926na/q8r+am9YMU6uELAQpYLW1SHjDumN+aEnk7Ivjj+/n0TYyanhIwg//+1lT0kSWniqx+mm538ay0yU2eUrOqym86WGxOtufFZ7tKXmyuY2NDz9rrka32wDU57QsSnEb5m7S+7RcqmHrFRq0tlKt/sLtQpw43AwOPvuHZsLcocG820ZG68m0sB1nzr+jW95yuo3+Xo8cTwPP/uHxfpbpbQylvg0EmwaiVbp4Rxo3uVLiTyBeR+0SsgAACGrAMmNg3ZSB66d5OnGtbv9bWhiIjZAFAEDgmEFGl2Vw+9dr+acGrSlUNSELAIBASASfG7Lwq8yQEOv0951KrROyAAAIgs9rqcjS75qq5R4NWldS7YQsAAB8S8POmbpw1TE9Vjsp1UnUTT+t3+nvfid7gJAFAIBffd5VwKqqkcgpqySy6jkSq56Y6nX6Rg1an2QXELIAAPAVDTiX6uISxytYlkQbV9jLWFmFRE47R6LzFqfaqmWm4vmGFos9QsgCAMAPAcuEms+5WSc6fY7EKiqfGbpmzZPI6eelOoCyGZvrR4lJqUHIAgAgr12txfl0AEXFEp2z8Lj/KVZZLZEzn5PqDAymX9jNBC1CFgAAeSvRivVRN+tE5y46+TyY+t/MVFfReY12C1eSXkXQImQBAJDPLpP4lDeOxMorJDplhrMwNmu+RE45U0NXYSpB63v00SJkAQCQjz7i5sXRue5ap2K1k+1+WlJSmuz7e52Wr7GbCFkAAOSNxtVrNf3IBY4DU1WNxCY1uP49pvVrzHSIr6hK9q3+p77XD7DHCFkAAOQLl61Yi5L/TcUlEjntXIlNnJTsFr6gQetadhkhCwAAT9PAslgXz3f6ersVK/mAFGc6xK9YJbG6+mS3cJO+7wvYe4QsAAC87B1uXhydPT89v9WyJLL8DIk1TEtmbdOD/rcatOax+whZAAB4joaUanExR2GsvFJidQ3pewMmaC1emWzQqpX4XIcV7ElCFgAAXvMaiU/M7IgZyT3tjgStSUkNWrpU4qPCM7QDIQsAAE95o+NXFpdIrH5aZt6FCVrLTku2r9dLtbyHXUnIAgDAExpXr12lixVOXx+dOjOVUdudBa1TzrA71ifh8/r3nMNeJWQBAOAF/89NAIpOm5WFq3Q4/tRhabnbNc3cPj/XoFXDbiVkAQCQMxpGinVxjdPX2wOPFhVn580VFklUg5YUup6Cx6TAb7F3CVkAAOTSlVoct/pEp83O6puLlZVLZNkZydyefJUGyGvYvYQsAABy5VXOA0+FxCbUZv0Nmt8ZXbA0mVW/pUGrgV1MyAIAIKsS40o5H+F9yvScvdfo9NnJjKE1Ucs32dOELAAAss3cKixx9ErT4b1hek7fbGTRKfYgqC69VMPkS9jVhCwAALJptdMXxmpq7fGxciocluiy0+wnD126UYNWObubkAUAQMZp6CjSxfMch6zJUzzxvk1LVnTBErermSa4T7DXCVkAAGTDBVqc3Xsztwo9ErIMM05XrHay29XepcGykd1OyAIAINOudPpC+1ZhYZGn3nyk8RSRAlfjZ5lBSr/IbidkIcdipWXH/SYnJaUutlF6/G2UZncbGa2nsnL9JD37o+SmY6pXtpH146msPC+3AV+53PGxU1fvvXdfXCIR98M6vLBx9doL2fWZV0AV4GQnlMjKs8Tq73sq2MSqJxz/InXCbTQcfxsl2d1Gxk9yZ5wvVleHvtnYU4HHVTO+V7aRyW/cy06X0OEW/UckcfYpcH3rxSvbgD9o0JhqFnkdsiQ+pESsZa9Yne1uVvuK/v1nNjetiXEkELKQqw/vxEnJzgLvuW1ktJ4qquzih21kjJkaxEyo64dtwC8ucfzZMgOQlpZ59g+JLlwu4Yfu1n9Ena5yupartNzKYZA53C4EAATVRY5DVu0kT/8hsfIKic6Y63a1jzeuXmtxGBCyAABIt+c4DjE5mEbHrejs+W4nrV6p5YUcBoQsAADSpnH1WjPVzAJHLzb9QGvqvP9HhQskOmeh27U+wNFAyAJSoqdIKgHA0VY5faHdz7EgP7owm/6Gpv+YC+dp4Dybw4GQhXQYGeHvdiIyFsx6cvN3B/VYMqF9ZJhzSf47y3HIqp6QRwenlUxr1vs5HAhZSMfnr687oH93j7vX9wa0nnqd15M12P/0MAiBCuwasEaDGzB9xHlLVj6FLPN+66e6HR/vqsbVa6dxSBCykOpF9OC+p8ZQCtJF0WprdVdP7YdEhoeCd3wc2OP8xdGohFr2Be+kaeooxu1nH1ju+JVVE/Luj7M7wTtnZpp+I4cEIQupXkT7eyW0e1ug/ubwlo3ub/9pgAg3bwjUxdQcF25b/EI7tog1NBCwz892TiR5rnH1WjOY3AxHLy4o9PT4WCcSmzzV1ewcJmRpvTB2JiELKe90vTCGdjT7P0CMjUp408NimdG9k7mgth+S8MaH/X9rSI+D0M6tEtre7H5drZvwI/eJ1dPl/4DV2Sbh9fcHt7+evyxx/PGoqMzTA9aS6PQ5btYwo98/j0MjvXyTWjWBm8cpZmsxg5kEaXC1hqSC1q5tEmrZL1H73r15cibsn4vh6KiIXvRDrQfsoJXSttpapOC+9vi0K2Yqn8JC/xw5kYhYfb1iHTog1mAKrVFDgxJe9y97+h4zYGOsuCQ+t6QfRGNiDQ/at5tdTllytNl6froogNeXXi27m5vWtHnwvTme7M8+P+br4Tttpv0FysUXg9douYNolMbrUZ4Hq3m6eL2WF7n50AAAsma/lj9r+ZEGrns8cu34ojh8oi66aLmGlVl5W/mh5g3xfoTODGqZrPupj8M2PfKyJUs/IGY2V/MhebUEq9UKAPKNeWrtdaboufs+Xb5TL+LrcvyeZjt9oZlkPZ/FzDydzkOW6cR1tZYfc9imKeTmYcC6QhebJN6sScACgPxxjpYH9Dz+kRzPmed8hvCSsryu8FhVjdtJ41/MYRrQkKUfStNydbuWiew6AMjb685ntHw3h0FrtqNXmel03D2h582g1eBqCKzLdL+UcJgGLGTpTr9MFzcLT0QCgB+8Sct/5+BaYmZQrncUTkzA8sFDHFEznINz5v7opRyeAQpZ+qEwH4ifErAAwFfMbcNsX9BrHb+yqNgftaxhMVbj6gbQFRyaAQpZ6nOuPhgAgHzxv1keBNN52igs8k0lxya5Gu2HlqyghCz98JnR1K5jVwGAL83V8qos/r46x8HELy1Z5m+prXfz8oV67Z3OoRmAkKVeK/F5lQAA/vSGLP4u53dF/NSSVVbudnqg53JYBiNkvYDdBAC+dl7j6rXZemrc+Tw5YX99vzezMrhwLoelz0OWfujM14hT2U0A4Ptr0Wmeu+6F/TVfcmyCq67NZ3FYps7rR9CcpIKgmRizYbo9NkisXL+0hHw0L9/IsEhPp4T27hSrtzu1D1z91Hg9mYHqfHQyscyEzmbuwv27xOrqSP3EVD1RotNniVSZuQv9c/vAzGdm9fdKqGWfWGaex1QmDC8qluiMuUfNXeiTB4FjUbGG4nMXhvbtFBlNbS5Mu55maj1N9HE96bkpyTlDF2j5WxberfOROUP+eqDdnMtcWNa4em15c9OafqKSf0OW+1Hg9CIYWbHKHuXWj2IFusvKyiWi4chM/GlP/ul6rxdIZNnp9onet3VUWiYRDZGhfbsktHVT0tuKzl9iXxT9+ekvsC/0ET0OrCkzJbzxIb04jrmvb13fHE9me748nvScEqus1qA9W8IbHhKruzO57dRO1no6zXetI8+qp2mz4vWkX3RcqvTc3xTyWXdgDfmmb5Y14Cg3mT/etC7eI0iav2K6ZUnklDN9G7CeFQDmLExq4tLIkpW+DVjPqiO9MJp6SmrdWfP8G7COvZhMqJXI0tPdr1deqZ+5M3wbsI77BS6JaVZMa3Fk+em+DVjHXsgjK86yx2ZyKVvz1wR7OraqCW5evZSYlOJ3WV9dKOqnSqx6QqB2YHReo4Ra9tu3fpy2OsTqGoJVR7Pmx2ehHx5ydUFNNpzl7efH3OqrnSxW+yHndTt/sa9ux49/xiyU6NxFEt683t0xGLR6Kiy0Pz+hJx7z5KHuPI3FJOa3z3lltVgt+5y+fJmTFzWuXmsabMwYETO0mOHlTeevCUeVmsTSJO+SRDHM6PKFR+2XI31gzAWtT4s5aXceUw5rOaDFzHq9p7lpzSAhK1sXU3dTB/jmpG8ujtahg84+YJOnBK+OQiGJarA0fbQcH0t19cG6KB75u+unSdhpyDLHXkBaRJ/xGTKDOpq+OtGo48ARxHqKTpoioeYNqfX1y7Ukbp97/vh1N1n0sqOClJkAcX6iLJL4+GbTE8V8c8/JCVPfV0cicD2hpVnL5sRyiwaw0VzXt7/arssqJIhipeWO279jAa0j04+NYym99WSPuWMF8M5LOCyxohKxhgYc1lNAjyVzC9kM5ummBTk7uiTAXIasszTErE8EK68eyBMTZeUxPx/R9/6oLtdpeUDLgxq6mglZqRw8oYBObejm7w5C35njHRsFhZmrU46lYAYIx6EsuFOuxqxQfneAikT8t1MKC+Ph1zypPr6S44SXfGEeBV+VKNebH2joatXFP7TcaYqGrp2ELAAA0sf5uC5jI/4Mv6Vl8eGAgsf0G7smUUzoMrcWf6flNi33a+hK+73tEJ83AECAtDt9oTXiz5AlJWUcBXFLtHxYy71admvo+oKWFen8BbRkAQCCxHlL1qiPW7I4Do5lnoz8gCkatMxjsd/R8rPmpjW9qWyUliwAQJA4bskSv95SKy7hKDg505r1XS0HNHD9j5Y5yW4ouC1Z0aiE9u8WOfKEkGXZYwTFJtTl3zYy9nUnFh9faqAv8QN9bzUT44+w59s2MsyMLWV1tj39uHpZhUSnznT19J1XtpGxOhrsF+vg3qc7E4cL4oPpujjhe2UbGa2nAX1/LUe9PzM2l3l/prNynm3Do/QDIubR/sLxj5UB8SNfTQ+WWeaJyrdreasGrSZdfqq5ac1mQpYDZsyk0JPH1NXenTJ23qWOTyJe2UbGTvaHDkhoy8Zj3tsOiZx1YXxOyFS2cfZFjoeTSMc2MhseBiT82IPH2bkhiU6ZkVfbyOhn7vH1z5pqxertio8OnmfbyGg9bXpYrL6eY95ftz2bRb5tw4v0IhnVC6YZV2neuC82czCasbL89iQtIcstMwbYK7S8XI+dn+vyBj2Odjn6HAW2yoYGj9ti4uqJC69sI1Ph4USdPl10Bj3hNoaHs7qNrB9LJ/u5l7eR0eNpOOV96JVtZLSejjf+lst96JVteNgux/Uw6MP5kYs8ELLMFFNmaJ1ji7eHzzG3BF5lsrqGrc9oGbf5m47vAICgcRyyxISsympf/fGxdM6hqaHIns+zuFjDW4n+W3NHYbHETJArTBQzGb35nXYJO+u+YFoQoxGxTGvi6Kj9EIL9BcmU4SH9EjBodyGxl9mfVcDcZvqIxFu23tLctOZOQhYAAHFPOn2h1dsjMb9N2ea2tcgEKdM1o7zCXtqzPWgxs41krFuLfYtWw9lR2z9ulDJ3fkwQNn0ITegyt7h7uuw+hVlgRsL/mwatr+nyQxq2RghZAICg2+g8ZHX7768/ybysdqtUZZU9/Y6ZTFrKK/Vnpd6dQss8LGYCoAl/9lijCWOjdt9Lu3S2i9Xd4Xy+UffereVsDVsv0aDVQsgCAATZhkCHrCN5qahYYlU1WiZIrLomHqrcTkHmVYkJ7O3J2WcvsJ+Stbo0bLUf1tKaiSdHz9HycCJoPfBUnuWzBgAIEr0I7hOnE0WbAUn90+E/LlwgkXMukbHz/8N+WjQ6e3582CC/BKzj/s1he3ik6MKl9t8eOfMCic6aL2Ja6dLH3Fe+W4PW65/KenzcAAAB9IiWS5y80LSAxBqm++qPt/tVBZhptTMlOq/R3r9mvErrcEs6bimaRzd/oEHrdF2+i5AFAAiiex2HrE7/hSwcFbhqaiWixbRamrAV2rszHVMqvVXLUkIWACCI/u30haGOwxKlvvyvsEiisxdIdMZce5aR0O5tqU6tFKJPFgAgiExLlrPsZMZlGuinxoIiHNagNUfGzrlEonMWnvRpzHH8gpAFAAic5qY1Zs4g508ZtrVSaUEMWxqy7KnkJrqeT9gE+FsIWQCAoPqT45B16CC1FVDmIYHIyrPtscNcuEuD/CFCFgAgqP7gOGT1dPpvKAc4ZsbVOnbC9HH8zPwPIQsAEFT3idPxsswFk9as4Ias/bvdvHxMy28JWQCAwGpuWhMRV7cMD1BpQTQ2ag/t4MJf9djqIGQBAILul45DlpkHz4/T7OCk7HGzImNuVvnJU+tSfQCAAPujFsedbVzeNkK+MwOUmpDlXLuW3xCyAACB19y0xow2+Wunrw+17nfbqoE8Ftr1pH270IWb9JgaImQBABD3c8evjEQkdHAfNRYA5olCl32xTBr7xjNCGtUIAAi4O7XscPri0J7tIrEYteZzoSc3u50w+ubmpjX7CVkAACTohdFcSf/X8QpDgxJqoTXLz6zDLWK1tbhZxTyp+vlnBTWqEgAA+ZHEb/c4uwjv2kZrll+NjUl46ya3a/2fhvVthCwAAI5hpkDRxa8ch6zBfrFa91NxPhTa/oQ9KbgL5sUfP+62qE4AAGxfdHUx3rmV1iyfsToOu+3sbtyoIf0AIQsAgBPQC+UGiY+b5eyCbJ4+27eLivOL0VEJP/GY27VMuPrsCYM4tQoAwFM+7+bFoV1b7QErkf/Cm9e7vU1ovEvDeQ8hCwCAcegF825d3O14hdFRCW1vpuLyXGj3NrHaD7ld7S96vNxy0u1StQAAPMNHXF2gD+4Vq6eTWstTVvthCe3Y4nY1M1PA28Y9NqheAACe1ty05t+6uM3xCrGYhJ7Y4HbgSnghYA30SfjxR5J5gOGG4w3ZQMgCAGB8pjXL8ZXX6u+1bzkhj5jJnx970O3chMa/tHzNyQsJWUDKX4V8tA1wQHFA2Zqb1pjRKL/nZh0zmbDV08UhnA8iEQk/+oD9hKhL3VquTcwSQMg6kVj1xGf/sKhYYqXl2d1G1YSUt5GxOqqoevYPw2GJlZWnvo3yiqxuI6P1VF4pUlDgbN/mYhvVE7xRT5XVjn6W8W1UHGcbVTUeOjdNSPn9HXcbLo+DdGzDB27Q4ryzlbltaJ5Qi0QIMZ4OADEJb1wnVm93Mmu/SQPWLqcvLghsHU+eIpEzL7DnoIp/abPiJzK9eGd1G/VTJWJCSwrbyFgdTaiVyFkXigz0P/XF1r5AFZekvg0NktncRkYVFsnYWRfFP7BH7utrSI5VVKa2DT0u7OCUzW1k8ovj0tPE6mp/+gJkgvKEuuxvY9mx2yiwjzHPfMFefsYz358G51hNbV5uI9/pxbS9cfVac9vwO07XsfQ8Fdq6SaKLVxBmvBywOg4ns/Z39Jj4lZsVCgJd1+YbsMtvwV7dRkZbaVK8SHtlGxmlwTPmInx6ehuZEgpJbOIkf2yDegqSn2j5tBbHad48bWgCaWzKdGrPiwGrrTWZtR/U8i63KxVQ6wAAPFPj6rXm28qbtHzYTcA6Irxlo0Qqq47f3QHZF43EA1Z7Ui1YLVpe2ty0xvWos4QsAACeDlem49n1Wt6hpT6Vi3powzqJrLpAr7SFVGwujY1JeMODYnV1JLO2GQL+Kg1Y+5JZmZAFACBcrV67Shdv1vJKLaVp2eiEiXafP+SONTRgD9Ng9fclu4nrNGA9mOzK7H0E44MmMSoh3WL88cj7YDVNF6/Wcq2WZencdnTmXInOX0Il5/K839Mp4Q3rREaGk93Eu8ebNidQIcsaG9VTX2nwjiQ3A6klf7DlN7d/t/vB6YJ3LI0G9Fgy55oRF10zRkeDW08R7/3tGqxM8rlKy4u1nCnpHhAsFJLowmUSnTqTlJNDoQN77Kc8UxiF/wsasL6e6vvwV8jq6QpkJ0M3g9/ZdRTAJ4bcDhAY1AEFrW4Xx5IZUsOEsqD1NzHDrbgI7WbaDtMn5HhjmPn6WBrs90TA1FBVpotztVyWCFbzM/W7YqVlEl16mqfGXQscDVWhLRvtJzxT8F2JP/CQMn+FrH27RAL27cGMiWR1Ox8rz6T76Mx59retwNTR0IDr2dXNGComRLgZeDXvxWJi6fHh5vWh/Xo8zZoXrG/I5jzj9qRvf+7mBuvc5Lae0h+qLkoU09cq498EolNmSHTB0sCFaU8dc3099mCwVl9vqgHr+uamNWnpE1DguwreuVWicxYG44iKjEnoicdcfwsPPblZoouWBaOO7BGYH3XfZJxYL3LaOYEJpKFtT8RbH9yss2urxGonBaYF2TydFNq3033d6nkpNrEuOPXU2eY+jCYXqEx4Wi7x235nJJbm5Ja90ZxLSiWyaLl+DiaTcnJ5/tqzXUI7tqQ6SXdaA5bvQtaRk5m5hRGd2+iJUdMzdhIzk5E+vt4Olq7raP8usTSgRRYu9fWtHjMnVeiJR5N9bDfeafKR+yS6ZKW/W7TGNKxv22y3trgP+hG7jiKLT5HYpCn+Dg4t++yxj5I6ievnLbze1NMKidU1+Ptid3BvvC9MLH0PB2iYKtLFHC2LtSxNBCvTt0pP9JKbk1goHO/cPnu+/W/k6lrYJ6EtG5I+zx/ly1o+kM6AZb8/L1eefrBW6mJ9UisXFkm0rl6krMJfLREaIM3tQfNNMeWTmJkmQ+soVl7lrzrSC5rpU2VPm5Dat5rEp8Sy+7HZ87b56XFsrRsT1q22lnifoRSZaYTsb/NFJf6pI/MU4fCQ1tGheN+qdGyxospu/fNVPZlz0fCgfVveGuhPditmMubfajFP/E3VMkuLucdq7kebodO9cZIy54OGaRKZs8huxULuzl9mQm7TgpWG8/xHNVz9d0YOlzSFoSP3wE1zrR55YjpGmUmuzAy+qVyVzLeXKRxNAAAvhKvozPmemZw+sLvi8MFE94aBVDdlnsx4vQasH2fsvaYQrMxR9hItr5F450KGtAUA+Eu4QKJTZ0hsxhyJlZRRH7kMVz2dEnpSw1V3Rzo2Z54YW60B6+8Zfc9JhCszh5OZJPHtWqrZ7QAAv4lVVkts2iyJ1k9l1Pach6suCe3aFu/akB4btbxYA9aOjL93F+HKHGVmPiczGzkzXgIA/KWwUEPVNIlNncnEzl4IV90ddr+rJCd1PpFfaXmdBqz+rPwNDgOW6Xj4Sy2ns9sBAL5RVGw/JBWbPEViE+rsvlfIIdOhvXW/Pc6aGQcyjcxEz+/ScPW/WQ2KDgLWi3RhOoUR6wEAeS9WXhl/YrhussRqaglWHmA/6XxwX3yk9tGRdG9+s5ZXaMDalPW/a5yA9XqJP1Yb4hAAAOSlomINUxPtYBU104ox9II3DA/FW61a9ic15qMDZmyHr0p8iIahnITHkwSsNyYCFgAA+cEMtVBabocqqZ4QD1el5dSLV3aPhimrrTVezO3AWCxTv2qLltdquLo/p3/vCQKWmUTz10ILFgDAq0IhiZkBp81AuOZpwMoaLVU8DeilUGXGsurqiHdiN3PIDme8Qcn8gs9p+WKuWq9OGrI0YJnBRB/WQvQHAORecUm8dcpMb1VaFg9Wpl+V/pv+VB4yMhxvqerrFau3Kz7VzXBWc86tWt6j4WqnV6qk4JiAVSzxpwhTD1hm3kCLhjAAwHGYVihznTDzpxYViRQWS6yo2P63vdRgZfpOxYpLAzNJe1qYKbIKMtiSZ6Z2M61TQwO6HBQZHLAnlrf7VGnIyhEz/d4HNVz91Wu749g98T4tK5LZkN1Ua8YXmVAbn3KACTMBAMieoUEpuC8xgLmG11hhkT2Prxn/y/63CaummNa/I7dUzTKSmLvU9I868m8zt6l5yi9RrNHR+L/TMR9s+mzXcoOWX6V7Yud0eaqdtXH1WjMBp+ko5mreABOuoguWxB+DBQAAORHascUevDMAtmr5opabNVyNevmNHt2S9SG3ASs6a75E5y7injgAALkUi8XHmPI301/881p+o+Eqmg9v2A5ZifkIX+cqYC1aLtFpsziwAQDIMSs7T+7lgmmp+o2W72qwuivf3vyRlqxrtTgenS06ewEBCwAAjwgd2OO3P2m3xMfqvEnDVWu+/hFHQtY1TleIVdVIdM5CjmgAALxgeCjekpX/zEzQt2j5mZZ7vdqZ3VXIaly9tkGXq5yuEF24lD5YAAB4hN0XK5a3eWS/ljskfkvwTq93ZHcdsrQ8x+mL7ekJqiZwRAMA4JWQlV+3CiNaHkgEqz9oecwPLVYnC1lnOw5Z9dM4mgEA8Air47A9PpaH9Wsx8wfeo+VfWu7TUDUQlP1jQtYCxyFrQh1HNAAAHhHa76lWrINaHtOy4ahls4aqsaDuHxOy5jrbk6H4PFEAACD3zFyBbS3Z+m2m9aktUcwv3XlU2aVlh4apLnbKs0NWlbNXFtLhHQAAjwi17HPb4f21WsxwCCWJ/2/mKzbDN5l+Ur2Jn5nbe6OJn3VraTdFA9QQNZ5cyKp08sIYcxECAOAZlrtbhes1KK2l1rIchB3vzGiE2gIAwAsBq7NNrMF+N6t8h1rzcMjy2MzbAAAE9+K9b5ebl5tbgT+j1nITsnqoBgAA8oQZ4b3N1Uwza5ub1vRTcbkJWQ6bqGLUFgAAub5wm8FH3XV4/y615vWQNTZGbQEAkEsarlyO8H5Pc9Oax6m43IUsbhcCAJAH7HGxhl2NpkArVo5DlnMRnjAEACBnF213Hd4Pa2mi1nIbsnodvzrGE4YAAOSC1d8rVme7m1V+2Ny0ZoSay23Icj6zJP2yAADITchy14plesZ/j1rLfchyPBs2A5ICAJADY6PxaXSc+3Nz05odVFzuQ1a341czICkAANm/WB/Y67ZfNB3ePRKyuF0IAICHWft3uXm5JjK5nVrzRshyfLtQIoQsAACyGrDaWsUaHHCzyrebm9bQv8cjIcv5OFljo9QYAADZvFDv3enm5WYQre9Ta94JWY77ZFncLgQAIGusPjNsQ5ubVX7a3LSmnZrzTsjqcPxqWrIAAMjeRXrvdrer3EiteStkdTkPWbRkAQCQFSPDYrUecLPGXc1NazZScd4KWZ3OQxYtWQAAZOUCbQYfdTd00jeoNe+FLMctWdYoo/MDAJBx0YiE9u92s4YmMvk9Fee9kOW8JWuEkAUAQMYvzgf3irhr2LiRYRu8GbKcP7ZASxYAABlnuRu2wYwScBO15sGQpcnXjPjuaJQzbhcCAJDhgHW4RayBfjerfF+v5b3UnAdDVmLZ4ujVhCwAADJ7Yd69zc3LzWP/dHj3eMg67OjVsZgGLZ4wBAAgE6zOdrF6utys8qvmpjV7qTk/hCxzAIwMU2sAAGTiouyuFcv4GrXm/ZDV4niN4UFqDQCANLN6u8XqOOxmlX80N61ZR815P2Q536u0ZAEAkP4L8h7XU+h8kVrLj5Dl+H6uNUzIAgAgnazBAbEOHXSzymNa/kzN5UfIcj450vAQtQYAQDpDlumLZR4uc+4LzU1rYtRcfoSs/Y4PhBFCFgAAaTM0KKGWfW7WMCOV3kLF5U/I2ufmYAAAAGm6EJtWLHcTQX+5uWnNGDWXPyGrVeIDmo3LImQBAJAew0PxeQqdMw+q/R8Vl0chK3Ff11m/LPN0obvEDQAAjncRNk8UurumfjUxHR7yJWQl7Ha6Eq1ZAACkaGRYQvv3uFnDDAX/TSouP0PWLsdrDQ1QcwAApHIBtvtiRdyscmNz05o+ai4/Q9YOpyvRkgUAQApMK9YBV61Y3Vq+TsXlb8ja6XitQVqyAABI+uJrWrEirlqxvt3ctKaLmgtAyLIG+qk5AACSYcbF2r/bzRrmovtVKi4gIUsGCVkAACR14XU/LtY3m5vWtFFz+R2yzKjvI05WsghZAAC4ZuYodNkXy1xwv0bN5XnI0pRsYvWTjtYy95GZwxAAAHcX3Z1b3c5RaFqxWqm5PA9ZCVvdpHEAAODwutnfJ1brfjer9Gr5MjXnn5C1xfnB0kvtAQDg9IK7c4vbVqyv0hcroCFLBhgPDQAAJ6yeLrEOHXSzCuNi+TBkOb9d2E/IAgDA0cV222a3q3yJcbH8F7KanYcsbhcCADDu9bKtVayuDjertGu5kZrzWcjS1GyOAmdPMZinC8fGqEEAAE4kFpPQ9ifcrvU55ij0YchK2Og4ndOaBQDAiS+yB/e67V6zV8u3qDn/hqxNjkNWXw81CADA8UQiEtqxxe1aH21uWsNAlD4OWY5bsoSQBQDA8S+we3eIjAy7WcU0cvyYmiNk2axeQhYAAM8yPBSfo9CdDydmX4GPQ5Z5ztTRaGlWf4/bgdUAAPC98Pbm+BR0zt2jAet2as7nIUt3spmM0ln81gOIyaIBAHiaPfBoyz63q32QmgtAyEp4xPEWuGUIAMDTF9atm9yu0tTctOY+ai44Iethx4m9t5taBADAXBMP7rNbslwwPeM/QM0Rso5/QPV0UosAAETGJOx+4NGvNzet2UnlBStkrXccskxLFp3fAQBBv6Du2uZ2yIZDWj5LzQUsZGmqNs1TzpK16fzOyO8AgAAzD4HZ42K5YwYepWNz0EJWwkOOD64eJgoHAAT4Yrplk0jU1RBXZkzKm6i54Ias+x1vhZAFAAgoq/WAWB2H3a727uamNRFqj5A1/gHWTed3AEAAmc7uTz7udq3fasC6k8oLdsgyY2WNOApZpk/W6Ci1CQAI1kXUjOzurrP7oJZ3U3MBD1masofFxaCkVncHtQkACAzzdH1o/263q31Gr6+7qb2Ah6wE57cMuwhZAIAAXUC3bHQ7hJGZsu7L1Bwh64h/E7IAADjm4rl/dzJP1r8jcZcIhCzbvxyHrL5ukSgPSgAAfG5oUELuR3a/TQPWn6g8QtZT9IBo0cUWR1uKRnnKEHkhrEf9rOqwnFpfIOfPKJSzphbK8kkFUlsaonIAjH8OMbcJx8ZcxTIt/0nNBU+Bg9fcpWWRk41ZHW0Sm1BHrcJTLC2nTymQS+cUydlTC2RRbYEUnCBP9Y7E5OGWMbl/36jcsX1EDvZFqUAAT59PWvaJ1X7I7WqfZn5CQtaJ3KPlzY4Ovs42ahSeUVJgyTVLimXN8hKZXuWslaqyyJKLZhba5YPnlsm9Gra+8/CQPHCAIUqAwBsZlvCTm92utUnLl6g8QtaJ/NNxwjeTRY/pxaigkJpFTl25oEg+oiFpUlnytwBNC9h50wvtct/+UfnE3QOyo4t+h0BQhbdqXhodcbOKefTwjc1Na/iWFlDjXoH04Nini+3ODqeYWF3t1CpyprrYku89v1K+dmlFSgHrWOdMK5TbX1Et1y0voZKBALIOHxTr0EG3q31Lr6H3U3uErPH8xfGB2MEtQ+TGnJqw/P7l1XLxrMy0pBbqp+Wj55fJVzXAFdJHHgiO0VEJmwmg3dmv5QYqj5DlxN8ch6z2w9Qqsq6xNiy/vLpKplZkPv28cEGR/O/zKwlaQEDYtwlHXA9v9bbmpjU91B4hy4m/a3H0mJU12C/WQD81i6yZURWSH15ZKRNKrKz9zgtmFNotWiGL+gf8zGo9oGW/29XMBNC/o/bgKGTpwWKGtX3Q8UHp/vFWICnFYUu+fXllWvtfOXX5vCJ5y2ml7ATAr4aH4mNiuWOmP7meyoNR4OK1f9VytuOQNWMOtYuM+8A5pfatQqfMNGPrtxySBx5vkR37umVweExCIUsmTyiTy86ZJWcuqXf1+//zzFJ7mIdHW8fYGYDPhDc/Gn9i3p13JgbyBlyFrD9r+aijkGWeMIxE9AgNU8PImCV1YXnNMmdP+0U1XTXd+aR8/7ebZN+hvmcfs5bISy6e7/o9mNuFn76wXF7c1C0Rxi0FfCO0d2cyYz/+TgPWT6k9JBOyzGOophl04vhXtKh9cMbq6qlhZMwHzylz1Ceqpb1f3vXVu+WxrSd+KOO8FVNlydyJSb0P05J21cJi+U0z874CfmD19yYzN6G5Pr6F2sMzwrrTF2o6N6Mw3uH4ID1MaykyZ0V9gZw7ffyhGnYd7JFrPvLHkwYsY9XShpTez1tOLaETPOAHsZiEzG3CqOum6bdzmxBJh6yEPzjecFtrvAMMkAFmupzxdPYOy+s//Vdp7RgY97VV5UUpvR8zRteqqcx0AOT9RXFHc3z2EneaNGD9nNpDqiHrT1qczSsyOiJWVwc1jLQzTxRePnf8UPTpHzwgBw47G05kb2tvyu/rqoVF7Bwgj5lxHkO7t7tdzXTc4mlCpB6yEkM5/MvxAcstQ2TAyvoCqSg6+b25R7celj/eu8vxNv/6wB6JRFJreTVjZwHIU2by5yceTWbNN+m1kVG4kXrISvi94423EbKQfmdMGf95jbW3b3a1zT0tvbL2D5tTel/15SF7YFQAeSYWk/CmR5IZ1f37GrB+SwUinSGryfErhwbF6umilpFWC8cZF2t4NCL/WLfP9Xa/8pNH7GEejscMAXH3+vFHfV4wkWFLgLy7EO56Mj70kDtbtbyb2kNaQ5am9j26eMTp661DB6hlpNV4rUVP7Oywg5ZbJkh99Lv3yXUf/7Pcds8O2b6v2y53/HuXXPuxP8u7vvLPcZ/lmFFFyALyiRluyIQsl8zow6/U6yFzyOGkCpJc7xYtpzlKca0HJDp/CTWNtKkpPnnISrUT+0ObW+1yPIe7BuzR4U+kuphxHIC8YfphPb4+mSfhP6oB6xEqEONmoCTXu9XxK4eHeMoQaVU4zlHbNzCasd/d23/ybVcUErKAvGD6YZnxsNz3w7pLyxepQGQsZGmCb9bFJqevT2IGc+CExsYZI7CspCBjv3u8bfeNMjYckBcXv51bxepw/VBgp5Zr9RrIJFrIXMhK+KXjX3LoIAOTIm26hk9+fps2qSIjvzccsqSupvTkIWuE4xzwOqutNZl+WMbrNWDtowaRjZDlfHRbMzBp+yFqG2lxoPfkIWvJ3FopCKd/KIXG2ROlsGCc/mA9fMEFPB2wBgfitwnd+wrDNSBrIUsPNjMs7gOOf9HBvdQ20mJb58mfHDS39M49ZUraf+9zV80Y9zXbOyPsIMCrIhEJbXxIZMx1v837tXyYCkTWQlbCzxx/ezBzGY6OUONI2QMHxsZ9zasuX5TW32lasF56yfyTvqZtMCo7uwhZgFeZEd2tPtdPH5sBtF7R3LRmlBpEtkOW6Zfl7P6Imdm8hQ7wSN36ljEZGjt536cLT5suZy6pT9vvvO75i086dINx774xoUcW4NGLnRlw1PQPdu/axPiQQHZDlh54ZjChO52+3uKWIdJgUAPW33aO/6Xyv68/VyrLU5+0ecHMGnnHNSvHfd1tW4fZOYAH2R3dd2xJZtUv6HXuj9QgchKyEn7o+EDv6xGrt5taR8p+sXn8QDOzvlL+530XSUlR8qOwN9SWyXc/9FwpLjz5Ng72ReWefdxNADwXsPp74wOOune3lhuoQeQ6ZJmBSR1PUGjt302tI2UPHBiVx1rH75t11rIGufmTl8mUunLXv2P5/Dr5xWefL1Mnjb/u99YPSYQHCwFvGRmW0GMPiUTG3K5phml4eXPTGjpZIiUpT7TWtvnWsbolV8/Uf57pKGQN9El0xhyNdyFqHynZ0RWR1Y3F476ufmKZvOTi+TIyFpXmnR0ahk7ec6qmslje8YqV8um3OLvduLs7Ih+5q18idMgCvCMalfBjD9otWS6ZZvLLNWBtpRKR85BlaMgyg2C9ydGLzaCkxSUSq6qh9pGSA31RmV4VksV144/wXlwUlvNXTpVrnrdIpk+utP9/RFORCVwVpYUyo75SzlsxVd744mXyyTefY3eaD4WcTZHzrr/2y65umrEAT13czJOEyY3P+AYNWHdQg0iHtE201rh67QZdLHeUs8orJXLWhdQ+UlZeaMnvXlYls6rDOfn9Nz02JJ+/d4AdAXiI6eSe5IjuN2rAehc1iLQdi2nc1vccJ7v+XrG62ql9pKx/NCZv/VNfTqazuXffqHz5fgIW4KmL2sG9yQasu7S8jxqEV0PWzVr6HP/ifbuofaTFkx0ReeMdvTKYxcmZNxwak+s13I1xlxDwDDPhc6h5QzKrmieyXtbctGaMWoQnQ5YenD26+KnjD8PhFrGGaAVAeqw7OCav+X2vdAxmPmj9a++o/bv6R+npDngmYPX1SHjTw/F+v+6YC9GL9RrWRi3CsyEr4duOX6kfBGvPTvYA0sa0Ll3V1C0Pt2Tmy6g5dX/74UF5wx+y22oGYJyAZSZ9fvQBkTHXn33TFv1KDViPUovIhLT2Fm7bfGtr3ZKrL9V/znT0wejvk+j02QzngLQxfbN+u3VYuodjcvqUAikKp+fZjub2iLztT3267RGmzgG8ZHREwuvvE2toMJm136MBay2ViLwIWYaGrCFdvNRZ04B+iSgslFj1RPYE0sbcLXi0dUx+uXnYHrtqwcQCKSlILmxt0XD1mX8PyKf/NWCP6g7AQyJjGrDuT2YsLOPbGrA+RiUik6x0b7Bx9VozeuMuLVMcrVBcImPnPlfficXeQEaYWXUumV0kz51dKOdMK5T68hO3nJpxSje3jcl9+8bk9m3D+m8GfAY86chgo51JdaUy8xG+kBHdkXchKxG0PqKLzzj+rDSeItGpM9kbyIqaEkvm1oSltjRkj7M1psmqbzQmLX1R2dkVlWGGbge8LRaT8MZ19sTPSXhMywUasHqpSORryJqgi71aHE0YFystl8jZF9GaBQAYV3jzerFa9iez6kEtZ2nA2kstIhsy0uNcD+BOXdzkOOkN9ovVup+9AQA4+UVry8ZkA5YZZuhKAhbyPmQlfF2L4/vdod3b2RsAgBNfJ7ZuktD+3cmsOqrlpRqwHqEW4YuQpQezGQTrN05fb0+103qAPQIAePbFantzsjOFmE6Wr9Fr0t+oRfgmZCV8ydWbMfNNxeh0DAA4JmDt3pbs6u/WgPUrahG+C1l6YD+kiz87fb3dmtVC3ywAQFoC1mf0OnQjtQhfhqyET7h5cXjnFlqzAACpBqxvasD6L2oRvg5ZepDfLy5as2RoMNmOjQAAApZxs5Z3UovwfchK+ISrN2X6ZkUYiBcAAnlhevLxVALWb7W8Tr/gc0sEwQhZidasuxyvMDIsoT0M6QAAgRKL2eNghfbuTHYLt2m5hulyEKiQleBqIk47ZA0PsYcAICABK/zEo6l0F/mHlpdpwBqhMuEV4Wz9orbNt+6pW3L1GfrPhU4/cNbosMQmTWEv5TFrcEC/le6wv5mGWvaLNdAnUlIqUlhE5QCIM5M9b3pYrEMHUwlYZjR3vpnDUwqy/Ps+rOUF4nDORDOcgzV9jsSqathT+WZ0REI7tkrowO5nPC1qtR8S2b1NovMaJTpzHvUEBN3YmIQ3PiRWZ3uqAWuAyoTXhLP5y9o233qobsnVs/WfK52uY/X1SmzqTPZUHn0jNa1W4U3rxOruOPF+7WgTKS6RWGU1dQYE+MtY+NH79VzRScCCL4Vy8Ds/rsVxk67V0ymhg8znmQ+swy0SfvCfEtq22f52Ou7Bt72Zp0iBoJ4vBgckvO7fYvV2E7DgW+Fs/8K2zbd21y25eqL+8xzHH0b9lhM1rVnhMHvMiyfLjjYJP/6I3ffKGh11vmI0IrEaPRTKyqlEIEjnDA1W4fX3izU8mOwm7tTyQgIWvC6Uo9/731qc34A3/Xu2P8He8tqJsqdTT5T3xZv7e7qS/DbbT0UCQTpvtB+S8CP32kP1JMkM0/B8AhYIWSegHw5zA97VdAehA3vE6upgj3nhJNnZbn8LtZv6k++saosVFFKhQFAuOHoeD294KJVuAr/UspphGkDIGt/3tTzq6s1u2ci8hjn9BnpYwg/fa7deWZ1t6dmouV0IwP8Xm+1PSKh5Qyrn8Ju0vJqAhby6bubylzeuXnuBLu52s050zkK7IEvM04Kt+8Xas0Os/t60bjpWP1UiS0+jjgFfn0MiEn58vf1gTAq+puW9TJUDQpb7oPVzXVzj/B1bEjnzAolVVLH3MslMbbR/d3z05eT7Tpw4YOn+i5x2rkhBAXUN+NXwkH17MIUnCI2Pa7j6FJWJfOSFK9z7tbxQi7NHzMzcVpvXS+SMC0RCIfZgulN3Z3u8/9vhg3YrVvp/QUjOOGuB7KhdIIcGqW/At+eSni4Jb1yXyvRo5gT0Zg1YP6A2ka9yPiZC2+Zbe+qWXG0eMbvc8Yd3JH5LPjahjj2YDubpTQ1WoSceiw/DYG4LZqDv27S5U+WmGy6Rt1wxT+ZNLJDbnqRrBeDLgNWyLx6wxkaT3YT5CmYmev4ZtYl85pV7Nd/U8motZzpdIbR7m8QmNTBieNLfEaNitbVKSE+G9lQ3GXygoGxCtXz4tWfI6nOnPfWzi2YWyksai+U3zcPsC8AvzJ0G08F9z45UtmLuLZoxsO6hQpH3Xzi88kYaV689RRcPuwl+sdJyiay6QCRMvx6nJ0DzVKCZhDV06ICjUdlTUVheJtdedYq898ULJGQ9+1DrHYnJFb/oltb+KPsGyHejo/agxFbH4VS2slvLFRqwGBgRhKwMBK3P6eJDrnJDw3SJLFnJnjwR02LV2a7B6oCEzNM9yTffOxYuKZarL18mH3vFYiksOHm/uX/tHZXX3d4rPDIE5PGFxIzgbm4PDqXU0dJ8yTbT5LRQo/ALrzUBfVLLai3zHX+4ze2uiZM0bE1jbx4xPCSh9kP2bUB7IubIWFZ+baioSC69qFE+c+0yqShxdmidP6NQXrGkWH6xmduGQD6y+3Nu3ZTqgzJmFPdrGMUdvvsC4rU31Lh67bm6MPfinT86GC6wbxua24eBpCHK6urU0maHqhQfl3bNtFxdeekS+fg1i6W02H1uHxyLyYtv6ZEdXUwWDeSNaERCWzZJ6ODeVLd0o8THwOIEAEJWloLWZ3XxYTfrmA7wkdPPC8awDqMj9uPRZuJs+1ZgT2dORsI3fa5ectkSueFljePeFhxPc3tEVv+6R4Yj3DgEPH/h6O+V0KZHUh2g2PRdeLuGq+9RoyBkZTdkmQntHtKywlXQmjJdIot91j/LtFL19Wrpjk/CbILVQG4nVa6ur5U1Vy6WNz1vjoRD6TuEfrppWD5xDxNGA56+aBzcJ+GtG1OZf9AwE9G+VAPWXdQoCFm5CVrLdLFOS7GroFU/VaINM0RKSiWmRcLh/NgTesKyBjVgDPTpt8O++DfEvp6cB6qnjxRLZs6fJu9/+TK5dOXkjP2at/2pT/6yk/GzAC+eo8JbNtr9YFNknhw0QzRsp1JByMpt0HqvLr6c0kYKiyRWpDmtuERL8VP/fupnBfrfCwvt14mVoeowt/LMLT4tplO6ZZ7A0WINJ5aDA6k+lZMxhWWlcv7Z8+SDL22UWZPLMv77eoZj8sJfdcuBPoZ1ADxzoejpkpCZf3Aw5S99t2q5TgNWL7UKQlbuQ5Z5f3eIi9HgU1JQoIGrKB64TPAKF0rMtISZ+fXMWFzHC2EmQJmn93RhRUbjY0+ZZnTzs9HReLAazbOWGf07G2Y1yJorFsp1F8887hhXmbTx8Ji88re99M8Ccs0MLrpnu4R2bElHv8+PaflvJnkGIctbQcvMnfOoFsZoyLCyidVy8dlz5V0vnCfT68py+l5+s2VYPvh3+mcBOTM0KOHNj4rV1Z7qlkyr1Ws0XP2eSgUhy5tB63xd3CUemGvRb8ztwBWnzJS3v3CBnLVwoqfe26f/NSA3bxxiJwFZZoZlCD35eDpmhdgo8Q7uT1KrIGR5O2iZkeA/xy5LXVFFuZyydLpce+kc+Y8Vk8Xy6FEQiYpcd1uPPHhgjJ0GZMPIsISbN9jzmqbBWi1v1YA1SMWCkOX9kGXe6x+0XMFuc6+itkZOXTZNXn3RLLlwWV3evO+OwZi85Nfdsr+XjvBARi8Ghw7aTw+moQ+pmb7hHRquvk+tgpCVRzRo1ejiAS0L2XUnFyoslKkzJ8slZ0yX6y6aIdNy3McqFWag0lfe2iN9I/SXBdLOtF6ZoRkOp2XKwG1aXqYB61EqFsizkJUIWo26uF9LNbvvqB0ZDsvk6ZPk1MX18qJV0+TCZbVZfyowk8xE0m+8o1fGaNAC0vdlzO57tTldE8f/VMtbNGD1UbNAnoasRNB6vsQnFA0FdceZKW2mTq+VUxdNluetnCzPWVIn4bDl67/5183D8qF/8MQhkPKJf2hAQs0bxeo4nI7NmQ/l2zRcraVmAR+ErETQer8uvhiEnVRUWSGT66tlwcyJsmphrVx22iSZMqE0kAfsjQ8NyjfX0Y8WSIo97tUOCe3amuq0OEes1/JKDVhbqFzARyErEbR+pIs1vtgToZCUVlXIhImVMnNKlSyYXi2nz6uW8xfXSnlJAUfqUcz4WWYcLQAuTvbdnRIyTw72p2WwdXPj/ktaPqoBa5TaBY4v36/eb9TSoOUy92ccS0qqKiUWGZPRoWGJjkUy9iZDxcVSVFwkJeXFUlFeIhOqS2RaXbnMbqiQhVMrZMWsKpkysVQsiwPSic9cVC6dQ1H5x27O7cC4RkcktL1ZQgf2pGuLZkNmapx/UrnAOFEj3/+AxtVrK3RhPuynuV23pKxYvvOpF8nZs0olEo1J/+Co9A6MyOHuYWnpHpH2nhEZ058PjYn+txFdxuyZJQZHIlJa9PS4qJVlhVJYEJLK0rBMKC+UCfr/66qKpKFGQ5X+O0R6SjuzL17/h17G0AJOxNwaPLA7PiXOaNq+kPxE4sMzdFHBQABCViJo1eviXi1zXQet0iL56kevlIsXVHA05BkzpMNrb++Vx1oJWsAzTuzdHRLaskmsvp50bdKMTmqeHLyV2gUCFrISQWtBImi5HmmzsKhAPvX+K+TFKydwRORh0Lrm1h7Z0h6hMgAz3+D2ZrFa96dzq00SH7m9jQoGAhqyEkFrucRvHbpOS+aO3vve/h/yuudM4ajIM51DMbn29wQtBFhkTEK7t9tPDko0bZ8DM76DGZrhFioYSI6vJlxu23zrobolV9+l/3y5lmK369/74A7pCJXJBYtr6YSeR0oLLLliXrHcvXdU2gcZFR7BYjq0hzeuE6v9kN0PK01u1vIiDVjrqGEgeb6MEo2r156li79oqUpm/edcuFS+9ubTpKyQpJVPTIvWdb/vsafhAXx/8m5rtZ8aTNOQDEeYJwffpOHqz9QwQMg6WdC6RBe3a0lq1M4FC6fKtz9wkUyvZoyqfEJnePj+pG06tZtw1dWRzs2abybf0PIxpsUBCFlOg9ZzJD79TlItWtU1ZfL1G66Qs2eXc6TkETO8w5vu6JP79jOOFnx0su7vjYerttZ0b/pBLW9mUmcg/cJ+/uPaNt+6u27J1X/Tf75ES5nb9YeHRuX2O5ulYNIkOX12JUdLnigIWXLlgmLZ0RWRbZ3cOkS+h6s+CT+5SUJbHxdrIK2NTN1a3ivxJwcPUtNABj6/QfgjG1evXaaLP2mZluw2LrxoqXzhDadKdXGIoyZPmC7An/33gPxowxCVgfw7OQ/0S2jnFrEOHUxnh/Yj/k/LhzVctVLTACErHUFrfiJozUt2Gw1TJsiX3n+pnDGjlCMnj/zfY0PyuXsHhOcOkRcn5f4+Ce3eFh/rKv3hyjwt+HYNVw9Q0wAhK91By8xzaPponZHsNsIhS974/54jb79sloR5+DBv/HH7iLz3b30yGqUu4NGTcV+PhHY+KVZbSybClRnz6gYtN2nA4lMAELIyFrRM3ywz/9bVqWxn6fJZ8rnrz5UFdYUcRXli3cExeeufeqVriDYteOgkbJ4W3KXhqv1wJjZv7pV/XcvnNFz1UNsAISsbQct0+P+ilveksp2iogK5/vUXyhsunkarVp7Y3xuVt/yxl7G0kPuT7+GDEtq9Q6yezkz9il9IvN/VLmobIGTlImy9VeJjw6Q0GFZj4zT59NvOl2UNxRxReWBwLCYf+Hu//Gn7CJWB7IpGJXRwr1h7tos1OJCp32LmcH2vhqv7qXCAkJXroGXG0vqVlvpUthMOh+Sal58t73zBXKniCcS88K2HB+XGBwfpEI/MGx6S0P5dWvaIjGYs3D+u5SMarn5PhQOELC8FLTMrtJlp/txUt1U7sVLe9cbnyEvPqKVy88Cdu0bsVq2eYaIWMnCC7eqQ0L5d9q3BDHRmP2K3lo9r+TGd2gFClleDVpEuvqzlHenY3pKlM+T9rz1Lzp5dRuV6nOmn9c6/9MmGQ0zFgzSIRCR06IBYJlz1dmfyN7Vo+byW72i44t43QMjKi7D1Cl38r5bqdGzvwguXyHuvOUUW1BVRuR42pt//v3DfgKzdMMTtQyR3Mu3vFWv/bgm17NcDKqNTOplw9QVzntJwNUjNA4SsfAtasyQ+zMP56dheyLLk8stXyNtfvFjmTGTIBy/7x+5Ref+dfdLN7UM4EY3aI7KHDuxO94TNx9Ou5UtavkG4AghZ+R60zDAPH9LyCUnx6cMjwgUheeELTpM3XLFA5tUStrzqYF9U3qdB68ED3D7ECU6cPV1iHdwrITMq+1jGjxPTcvUVLd/VcNVH7QOELD+FrVW6WGv+ma5tmpatSy9dLm++arEsqWfYBy8y7Vg3bxiSL90/KMMRWrWgRoYl1LJPw9U++9ZgFuyQeMvV/2m4GmYHAIQsvwYtk4T+S+ItWwXp3PbZ5yyU175omVw4v4KK9qCdXRF53539dIoPqkgkPmhoy36xOtsy+YTg0TZr+ayWX2q44sADCFmBCVvLdXGTljPTve258xrkNS8+Va46vU7KCtktnrrO6nX1e+sH5RsPDdod5OFzGqSsjsPxVqu2VjtoZcnftXxVyx0arrLefKrnt0pdPE/LIi2TJd4HbJuWP+v76eDAAAhZ2TgRmb5a/ynxvlqV6d5+RUWJXHXlqXLNRbNlPv22PGVrR0Q++s9+eaSFxgVfBqvOtngndjOm1ehotn6zOZh+qeUrGmTW5+icNkniLfVv0XK8x6BNyrxZy0f1Pe7nYAEIWdk4MZkBTE1/iVdn6necsnKOXP28xfKCFbVSWcSu8opfbh6WL90/wBOIBKtUmJahH2j5Hw0u+3J4HjOt8maE+AYtrVq+p+VOLWa26lotZkaMN2mZqaVLy0v0/f6DgwcgZGXrJHWexJv4V2Xqd5SUFMlzL10uL71wjj24KTst9zoGY/LZe/vl91tHGFcrn0TGxGo/rKGqRZeHMj2e1fE8aoKVlp/nehgGPXeZh3ke0FJl3o8JU8d7elFfV6qLG7W8UYt5zxfo6x7mYAIIWdk6WZl6NIOYms6qczL5u6ZMnSgvuny5/MdpU2RpPQOc5tp9+0fl0/8akCc7IlSGV5l5A9taxWrTYNXZbo9tlWXmluCvtXxTw8m/PHTOMu/FTCX2Gy2rE/82XxbNQMwFiUBlQqHpkzWm65hbhtdq2aDlVKbwAQhZ2T5xmdTzei0fk3jze0bNmDVZLrtkiVx+egOBK4dMx/hbnhiWrz84KO2DXHdyztwG7O60W6rs0teTq3eyU+K3BH+ogaTFY+eqK3Rxh5Z+LbP1/bXpz27Vf1+VCFem0iYnrhF/0v9+hf73Gv33rkQIe5n+rImDDSBk5eIEZprXr9fyvmyEracC18WL5TINXMsaGHsrF/pHY/KdhwflRxuGGVsr20xrVcfheKjqaMvFbcAjzC++NRGu/ubV1h49R5mx/66T+ACnb0387EjIulp/dqv+/7P03/cnVjFBbLf+zNw2fKeWW/T/v5wDDzi5Aqog/RJ9Lb6iJ6Rv6/LNWj6gZUomf+fe3YfkBz8yRb9+1tfIeectkotOnSLnza2UcjrNZ0V5oSXvO7tMXrm0RL7ywID8YduIRMlamTE2Fu+0boqGKmsg5wOhP65FP31ys37+D+VBDZ6eWP7zJK8xHeFNSDTns86jXm9C1koOQmB8XH2z863R3Mt7lZb3aFme1RRdWCCnnj5XLlo1Wy5YXCsL6hgWIlu2tEfkxocG5W876RyfllBlbgF2tceDVW93tgYGPRnzhKDpMP4jDVbr8uyc1Cbxpwcv1vd+V+JnR1qyTGA0twtP1XJQyxv0NX9PvOZsXdynpVt/VsOBCYxzDaYKMk9PRiOJb7k/0pPUpbp8t5bnZ+XaNDomD92/1S5mvImGhgly5plzZdXSBlk1r1pm1nAIZMqi2rB8+/IKeaItIv+zjrDlyuiohqp2e9Jl01nd7lcV80Ttmc/yn7T8WMtteTzdTUciZB1vrD8zVIPpq2XGBDRDN0w46r9VJZbMoQgQsjwZuP6mi78lHp82Ycs8rVOard/f0tIpt932sJb4/2+YMkHOWjVPzlo2RVbNrZRpVRwS6ba4jrA1HjMXoGmpEtNaZcqAp67hZnfdJfFWq1/7ZPTz7VoWSHz2ituO+W//ZVq39Bz1//TfP9TyBYk/HWmcmlhu5agFHJzbqILcSjyxY4KWeSpxRa7fT319jaxYMVOWL2qQlXOqZemUEikt4DBJ69WtMyI/fGxIbt06LCNBHPlheEisni77lp+97Om0bwd6kBlD6ldafqGh44DPzjvmwZxvSXwS6kWJIRqO3C68OBGyTAuWua0Y0jJLy14t6xPnqffra77MpxkgZOXTic98qzQD/r1SiydmjA4XhGRh4ww5ZclUWTG/VpbPrJQ5EwslzJGTsrbBqPx447D87PEh6RryaduWCVQmTB0JVKYv1Yhn77CZnWCepjOtNubpuT0+PteY24SmNWvSkcCkP/up/vsFWq48Mp6X/sy0cl0g8anETDO3eWpSd6LM09e08ykGCFn5eAIs18U1Wl6r5Xyvvb/i4kKZv2iaLJpfL4vnTJTGaRXSWF8iFTzFmJTBsZj8pnlEfr55yO4sn5eiEbH6++J9p7RYdukVGR3x/DvXck8iWP3aby1W45xnzBAOZigHc9C9Vv/2n5zktVea4KmlRMs79bX/wycXIGT54URoOp6+IhG6TvPye50+vVYWLZoqc2dOlDlTq2Tu5FKZW1fMvIsurG8dk188PmwP/+DJsbbGRsUa6Lf7UIkJVWY5oMuhQa90THdC37T8WcvvtNzhkz5WyZ5fPi3xyaElETTNFGH3HxnfS/+7Garh7Vpel7hefEf/2/V8UgFClh9PiIsSYcvcTlyUL++7bnK1zJlTb4evudOqZebkcpk+sVimVxdICf29jstMPn3rlmH55RPD2Z+yZ3RErMEBkcH+eKAy/7aX/fnQMnUiZvR1M8K5uf11Vx4/FZiJ88prJD7Z/ZGBk4e0mLG+zNOH5YmfmXGybtB6+w41BhCygnBiPEUXV2t5kXi8hetkauuqZdqMWpk+tUam11fJ9EnlMq22RBqqi2RyRQG3INXjh8fktidH5PZtI9Lan+IA4tGoWMNDdl8pu7+UaYHSYg0NPL2M+KI3vgkKZuBMM9zCHzUcbOGscdLzSZkuTNh6ofm/Eu+rZVr4ntTyB4kPstpFTQGErCCeIKcnTo4mcF2ixTcTGZaUFUvDlIkyaVKlTKqtkIa6CplcUyqTakpkQkWhTCwvkAllYZlQEpbCsL/3s7kZ9+CBUbldA9cft4/YrV3x/xCLtz6ZVibTqXxE/20v48X+twlUJljlb0uUE2bi4ju1/FXirVWDnB0AELKQzsBlnkq8TOJPCZmBT2cE5W8vKy+W2tpKqamp0FImNVWlUl5WJBV2KZTy0kKpKCmQitICqTTL4pCUFYWkqCBk37Ys0lKmJRzK3nvuG4nJSCQmg6Mx6RuO6DIqQ1r6hvTf+v/7hkald2BUevp12T8svX3x0t7RJ5u3t8WDVWQsqIf7rkSoMmPP3amh6jBnAACELGQzdC3UxX8kAtfFWqqpFQeBTYNZuEBDWVmBWAVPNwyWalArdNpkFonKyGhEhkYi+kGLyuDAsIyOxWRsZEQGh0apZPfMrau7jxQNVbuoEgCELHglcJl0cIaW52m5SIuZh6yMmoEHmY5h5vbfvUeFqhaqBQAhC/kSuszggmaajHO1nCfxQQcbqBnkgHma7b5EMSOtP6Shqp9qAUDIgp+C19xE4DLBy7R6macYi6gZpJF5Sm2dlocTZZ0Gqp1UCwBCFoIWugp1sVzL6UcVghecMvPdmdt+G7U8lghV2zRUMUc2AEIWcJLgZcLW0kRZJgF6khHPYkZRf/yoQGWWGxhbCQAhC0hP+KrSxZJEORLAFibCF8da/jMjoe7S0qxlq5YtibJVw9R+qgcACFnIfvgq1sUcLQu0zNcyN/FvU2ZpCVNLntGdCFJHys5E2Sbx23wjVBEAELKQHwHMPOFoWrqmJ8rMRJl+VJlMTaVFnxbT4nRAy0Et+xLLPUfCFLf3AICQhWAFsZJE2JqUCFz1iX83JJZH/9tMahsKSNWYod7btbRpOZwo7YnSmli2JILVfg1QfRxNAEDIAlIJZZUSH9m+5qhlzTE/K0ksTSf+cokPymqemDT9ygoSS3Obs/SYzRcn1nXCTFI8fNT/N0/UmdtxZqBN01HcDPven3idKQNazO24nsTreo5Tjvy8Q0NTD3sbALzr/wswAGEHYF9A2yCEAAAAAElFTkSuQmCC;" parent="1" vertex="1">
                    <mxGeometry x="170.27" y="350" width="69.73" height="50" as="geometry"/>
                </mxCell>
                <mxCell id="7" value="" style="shape=image;verticalLabelPosition=bottom;labelBackgroundColor=#ffffff;verticalAlign=top;aspect=fixed;imageAspect=0;image=data:image/png,iVBORw0KGgoAAAANSUhEUgAAAkAAAAJgCAYAAABiNtwAAAAACXBIWXMAACxLAAAsSwGlPZapAAAAGXRFWHRTb2Z0d2FyZQBBZG9iZSBJbWFnZVJlYWR5ccllPAAAEjBJREFUeNrs3c1x40YCgNGGa+5SBmIGoiMYbhXv1kYg+MTjyhGYjmC0R55MRbCcO6uWjsBUBlQGUgTYbhNcq2zPeEbEH9nvVaFgXyyqIUGfGw2gqKoqAADkpBBAAIAAAgAQQAAAAggAQAABAAggAAABBAAggAAABBAAgAACABBAAAACCABAAAEACCAAAAEEACCAAAABBAAggAAABBAAgAACABBAAAACCABAAAEACCAAAAEEACCAAAAEEACAAAIAEEAAAAIIAEAAAQACCABAAAEACCAAAAEEACCAAAAEEACAAAIAEEAAAAIIAEAAAQAIIAAAAQQAIIAAAAQQAIAAAgAEEACAAAIAEEAAAAIIAEAAAQAIIAAAAQQAIIAAAAQQAIAAAgAQQAAAAggAQAABAAggAAABBAAIIAAAAQQAIIAAAAQQAIAAAgAQQAAAAggAQAABAAggAAABBAAggAAABBAAgAACABBAAAACCAAQQAIIABBAAAACCABAAAEACCAAAAEEACCAAAAEEACAAAIAEEAAAAIIAEAAAQAIIAAAAQQAIIAAAAQQACCAAAAEEACAAAIAEEAAAAIIAEAAAQAIIAAAAQQAIIAAAAQQAIAAAgAQQAAAAggAQAABAAggAEAAAQAIIAAAAQQAIIAAAAQQAIAAAgAQQAAAAggAQAABAAggAAABBAAggAAABBAAgAACABBAAIAAAgAQQAAAAggAQAABAAggAAABBAAggAAABBAAgAACABBAAAACCABAAAEACCAAAAEEACCAAAABBAAggAAABBAAgAACABBAAAACCABAAMEXmBaLSdylbRy3UdyujQqcnMe47eK2jdtmXc02hgQBBH+Onpu4O2wXRgTOzkvcVmmLMbQyHAggco6eyzp45nG7MiKQjaf69z7F0LPhQACRU/yUcXcfzPZAztKs0F2MoKWhQABx7uGT1vWkk511PcBBWi9UxhDaGgoEEOcYP3dx98FIAJ/wQ4yge8OAAOJcwiet9UkntVujAfyNh7C/LGZtEAKIk4+fTXDJC/hy6ZLYRAQhgBA/gAgCAYT4AUQQvN03hoCW3Isf4EjX9bkEGmcGiMa52wtomLvDEEAMPn7Sc35+NRJAw771nCCa5BIYTVsaAsC5haEzA0Rj6tdb/GwkgJZ877UZCCCGFj/prq9d8G4voD3p3WEjd4XRBJfAaEopfoCWpXPMjWFAADEkd4YA6MDcENAEl8A42rRYpP8j+4+RADryz3U1WxkGjmEGiCaYkgaccxBAOBkBOOcwZC6BcZRpsZjE3X+NBNAxD0bkKGaAONbEEAA9MAuEAKJXY0MAOPcggMjNyBAAzj0IIHJzbQgA5x4EEACAAAIAEEAAAAIIAEAAAQAIIAAAAQQAIIAAAAQQAIAAAgAQQACAAAIAEEAAAAIIAEAAAQAIIAAAAQQAIIAAAAQQAIAAAgAQQAAAAggA4BjvDAG0Z13Nij6//rRYVI7CUf7R49cex+2DQwACCKBLjzFgNz3G66VDAO1xCQzgr217/vpjhwAEEEBuATRyCEAAAXRtI4BAAAHk5GVdzfqeAXrvMIAAAujSps8vPi0W1v+AAALIK4CCBdAggAAEECCAANr1NID1PwIIBBBApzYD+AwWQIMAAujUqs8vPi0WE4cABBBAp9bVbNXzRxBAIIAAOvVxAJ/hxmEAAQTQpb4vf6UXoF47DCCAALIJoGD2BwQQQMc+rqvZswACAQSQk+UAPsN3DgMIIICuvPR999e0WJj9AQEE0KnlAD5D6TCAAALIJoDqu79c/gIBBNCZxwG8+8vlLxBAAJ26H8BnuHMYQAABdCUtfl72+QGmxSK9+d3DD0EAAXTG7A8IIIDsLPv84vXi51uHAQQQQFce1tVs1/NnMPsDAgigU/M+v3g9+yOAQAABdObjAGZ/0q3vFw4FCCCArgxh8fPcYQABBNCVX9bVbNPnB5gWizLurhwKEEAAXZn3HD+XwewPCCCADn3se/Yn7Bc+m/0BAQTQaXz0xp1fIIAAujaE5/7Mgzu/QAABdOQl9L/2J73z618OBQgggK7cD2D2595hAAEE0JWnvuOjvu39vUMBAgigK3fravbcY/xcBrM/IIAAOpQeerjq+TMsg4XPIIAAOlT2+cWnxSK97+s7hwEEEEBXfupz4XN96WvpMIAAAujKU4yfec+fIcWPS18ggAA6U/b5xafFIj3t2aUvEEAAnfl3n+/7qh94OHcYQAABdOWpz/h4te7HpS8QQACduenzmT9h/7yfa4cBBBBAV9JdX9u+vni97ufWYQABBNCVxz7v+orxM4m7Dw4DCCCArqQ3vd/0GD9p0fPKYQABBNClsq8HHlr0DAIIoA8Pfb3rq46fTbDoGU7SO0MAnLDbGCIWHgNfzQwQACCAAAAEEACAAAIAEEAAAAIIAEAAAQAIIAAAAQQAIIAAAAQQAIAAAgAQQAAAAggAQAABAAggAEAAAQAIIAAAAQQAIIAAAAQQAIAAAgAQQAAAAggAQAABAAggAAABBADwZu8MATAwL3Hb1v+8q7eDzRv/m5N6P47bZdzeG2YQQAB9BM7uj9u6mu1a+pp/CqdpsRjF3aiOo0kdRxcODwgggCZC5xA7v/1zjJznIXy4OrZ2r+MoRlGKoJt6u3YIQQABfM7Tq9hJQdHmbE6bUXT4Hub1DFEKobu4XTnEIIAAfnkVO9tTjJ0viKH0Pd2nLcbQJO7LuN069CCAgDy8HEIn7WMYbHIbgPp73sQQmsf9XAiBAALOU5rhWdXBszUc/w+hXdyVQggEEHAeHsN+lmeV4wzPESH02yWy4LZ6EEDASThc1jrM8uwMyZtCKM2OTWIIpYXS8+A2ehBAwOA8vQqeleFoNITSQuk0pstgNggEEDCY6Flay9N6BO3CfjZoHvc/GhEYtqKqKqPAm8WTvR+gz/9RLIxClr8X6flBy+CSmN8vBsvLUAGa/8OcZt0mYb/WChBAANlE0LaOoEejAQIIQAQBAgjgzCMovfy1DC6HgQACyCyCDjNBIggEEEB2EVQaCRBAALlFULo77CcjAQIIILcImsfdRyMBAgggN2WwHggEEEBOXt0ZBggggKwiKK0HcikMBBBAdu6CS2EggAByUr9B/t5IgAACyE0KILNAIIAA8lEviDYLBAIIIDtmgUAAAeTFLBAIIIBcCSAQQAB5qWeBHowECCCA3KwMAXTjnSEAhmRaLCb1P47jdhm3Ub2F+t+vv+I/9xS3Xdy29bapn70zSOnp0PH7T4uhL/wkgAACzi9yDlEzeRU44xb+8F/V2/tXX/sx7pZpqy87DU2aBbr1UwICCDjt2BnXcXPY3vf8kdIM0oe4zeNnSwuP7wcWQgIIOlBUVWUUOOaPmx+gz4h/WIvMfh5GdeRMBhI7XyJdJruJx2rr98rvF/kwAwQcGzyTV9vVCX4b6TP/Gr+X7+Mf1OVAPlN6S/x3fsJAAAHDCJ60CPnmxIPnU36O318YSARtBRAIIKDf6Jm8ip7rM/92UwRtB3A5bBO3H/30gQACugue17M8aZ/bLdnLsF+/1JsYYJs0GwUIIKDd6Bm9ip7cL71cx/EoB3ApLN2uf+2nEwQQ0E70lP7Q/sld2M8E9WnnuIAAApqJnss6eETP56VZoHHPa4EshAYBBBwZPTf15g/ql7upI6Qvzw4BCCDg68NnEvYzPTkuZG7CpOevv3UIQAABXxY9o/D7Ja4rI3KUsSEAAQQMO3wOi5ld4mqOWTMQQMAAoyet7bkLZnsABBBkED6juJsHbwwHEECQQfhMwn7Gx2UuAAEEZx8+Zdhf5npvNAAEEJxz9BweWJhmfKzvARBAcNbhM3oVPu5CAhBAcPbhMw8WNgMIIMggfCZ1+FjfAyCA4OzDpwz7y1xeSAoggOCso8fCZgABBNmEzyhY2AwggCCj+FkGC5sBBucbQwCtEj8AAggAQAABAAggAAABBAAggAAABBAAgAACABBAAAACCAAQQAAAAggAQAABAAggAAABBAAggAAABBAAgAACABBAAAACCABAAAEACCAYuAdDACCAICvralaKIAABBLlG0PdGAkAAQW4RtBRBAAIIco2gb+P2YjQABBDkFEHbuJuIIAABBDlG0Chuj0YDQABBThH0HPYzQSIIQABBXhEUt3FwmzyAAIIMQ6gUQQACCHKNILfJAwggyC6CliIIQABBrhHkWUEAAgiyiyDPCgIQQJBtBI2C2+QBBBBkFkGeFQQggCDPCPKsIAABBLmGUCmCAAQQ5BpBbpMHEECQXQQtRRCAAIJcI8izggAEEGQXQZ4VBCCAINsIGgW3yQMIIMgsgjwrCEAAQZ4R5FlBAAIIcg2hUgQBCCDINYLcJg8ggCC7CFqKIAABBLlGkGcFAQggyC6CPCsIQABBthE0Cm6TBxBAkFkEeVYQgAACAAQQcNamxeIy7jZxuzYaAAIIcoif9ITonfgBEECQU/xs4nZhNAAEEOQQP2Xc/Sp+AAQQ5BQ/PxsJgE97ZwjgrOJnGXe3RgLg88wAgfgByI4ZIDj98HGbO8BXMgME4gdAAAEnEz+e8QMggCC7+NkEt7kDCCDIJH7K4Bk/AAIIMosfz/gBOJK7wOB04mcZ3OYO0AgzQCB+ALJjBgiGHT5ucwdogRkgED8AAggYRPx4xg+AAILs4mcT3OYOIIAgk/gpg2f8AAggyCx+POMHoAPuAoNhxM8yuM0doDNmgED8AGTHDBD0Fz5ucwfoiRkgED8AAghoPX484wdAAEF28bMJbnMHEECQSfyUwTN+AAQQZBY/nvEDMBDuAoP242cZ3OYOMChmgED8AGSnqKrKKHDMH3g/QEAv1tWsMAq8lRkgAEAAAQAIIAAAAQQAIIAAAAQQAIAAAgAQQAAAAggAQAABAAggAAABBAAggAAABBAAgAACABBAAIAAAgAQQAAAAggABmFaLMZGAQEEQFbW1WxrFBBAAAACCABAANGOR0MAOPcggMjNzhAAzj0IIHJjESLg3IMAIjsbQwA493BqiqqqjAJHmRaL57i7MBJAR17W1ezSMHAMM0A0YWUIAOccBBBORgDOOQyYS2A0YlosdnF3ZSSAlj2tq9nIMHAsM0A0ZW4IAOcaBBC5SVPSL4YBaNFLcPkLAcSQrKtZuhPszkgALbqrzzVwNGuAaNS0WKSHk10bCaBhjzF+xoaBppgBommlIQCcWxBAZCX+H1qaAfrBSAAN+qE+t0BjXAKjFdNisYy7WyMBHOkhxk9pGGiaGSDakhZEPxoG4AiPwc0VtMQMEK2ZFov0rp5NsCgaeFv8TNz1hQBCBAHiBwQQJxZB98GaIODvPQTP+0EAcWYhlK7lfzASwCeku73uDQMCiHOMoPQgs2VwSQz4XbrkVbrVHQFEDiFUhv1lsQujAdlK7/ZKl7uWhgIBRE4RlNYG3YT9252vjAhk46n+vV9Z64MAIvcYuqljKG1mheD8HN7knqLHG90RQPAXMTSJu7Sl9UKjYL0QnKK0rmcXt20dPdb3IIAAAAQQAIAAAgAQQAAAAggAQAABAAggAAABBAAggAAAAQQAIIAAAAQQAIAAAgAQQAAAAggAQAABAAggAAABBAAggAAABBAAgAACABBAAAACCABAAAEAAggAQAABAAggAAABBAAggAAABBAAgAACABBAAAACCABAAAEACCAAAAEEACCAAAAEEACAAAIABBAAgAACABBAAAACCABAAAEACCAAAAEEACCAAAAEEACAAAIAEEAAAAIIAEAAAQAIIAAAAQQACCABBAAIIAAAAQQAIIAAAAQQAIAAAgAQQAAAAggAQAABAAggAAABBAAggAAABBAAgAACABBAAAACCAAQQAAAAggAQAABAAggAAABBAAggAAABBAAgAACABBAAAACCABAAAEACCAAAAEEACCAAAAEEAAggAAABBAAgAACABBAAAACCABAAAEACCAAAAEEACCAAAAEEACAAAIAEEAAAAIIAEAAAQAIIABAAAEACCAAAAEEACCAAAAEEACAAAIAEEAAAAIIAEAAAQAIIAAAAQQAIIAAAAQQAIAAAgAQQACAAAIAEEAAAAIIAEAAAQAIIAAAAQQAIIAAAAQQAIAAAgAQQAAAAggAQAABAAggAAABBAAggAAAAQQAIIAAAAQQAIAAAgAQQAAAAggAQAABAAggAAABBAAggAAABBAAgAACABBAAAACCADgD/4nwACg3CcDH8X26wAAAABJRU5ErkJggg==;" parent="1" vertex="1">
                    <mxGeometry x="120" y="300" width="80" height="84.43" as="geometry"/>
                </mxCell>
                <mxCell id="9" value="" style="shape=image;verticalLabelPosition=bottom;labelBackgroundColor=#ffffff;verticalAlign=top;aspect=fixed;imageAspect=0;image=data:image/png,iVBORw0KGgoAAAANSUhEUgAAAHgAAAB4CAYAAAA5ZDbSAAAAGXRFWHRTb2Z0d2FyZQBBZG9iZSBJbWFnZVJlYWR5ccllPAAAAyRpVFh0WE1MOmNvbS5hZG9iZS54bXAAAAAAADw/eHBhY2tldCBiZWdpbj0i77u/IiBpZD0iVzVNME1wQ2VoaUh6cmVTek5UY3prYzlkIj8+IDx4OnhtcG1ldGEgeG1sbnM6eD0iYWRvYmU6bnM6bWV0YS8iIHg6eG1wdGs9IkFkb2JlIFhNUCBDb3JlIDUuMy1jMDExIDY2LjE0NTY2MSwgMjAxMi8wMi8wNi0xNDo1NjoyNyAgICAgICAgIj4gPHJkZjpSREYgeG1sbnM6cmRmPSJodHRwOi8vd3d3LnczLm9yZy8xOTk5LzAyLzIyLXJkZi1zeW50YXgtbnMjIj4gPHJkZjpEZXNjcmlwdGlvbiByZGY6YWJvdXQ9IiIgeG1sbnM6eG1wPSJodHRwOi8vbnMuYWRvYmUuY29tL3hhcC8xLjAvIiB4bWxuczp4bXBNTT0iaHR0cDovL25zLmFkb2JlLmNvbS94YXAvMS4wL21tLyIgeG1sbnM6c3RSZWY9Imh0dHA6Ly9ucy5hZG9iZS5jb20veGFwLzEuMC9zVHlwZS9SZXNvdXJjZVJlZiMiIHhtcDpDcmVhdG9yVG9vbD0iQWRvYmUgUGhvdG9zaG9wIENTNiAoTWFjaW50b3NoKSIgeG1wTU06SW5zdGFuY2VJRD0ieG1wLmlpZDpFNTE3OEEzMjk5QTAxMUUyOUExNUJDMTA0NkE4OTA0RCIgeG1wTU06RG9jdW1lbnRJRD0ieG1wLmRpZDoyQTQxNEFCQzk5QTExMUUyOUExNUJDMTA0NkE4OTA0RCI+IDx4bXBNTTpEZXJpdmVkRnJvbSBzdFJlZjppbnN0YW5jZUlEPSJ4bXAuaWlkOkU1MTc4QTMwOTlBMDExRTI5QTE1QkMxMDQ2QTg5MDREIiBzdFJlZjpkb2N1bWVudElEPSJ4bXAuZGlkOkU1MTc4QTMxOTlBMDExRTI5QTE1QkMxMDQ2QTg5MDREIi8+IDwvcmRmOkRlc2NyaXB0aW9uPiA8L3JkZjpSREY+IDwveDp4bXBtZXRhPiA8P3hwYWNrZXQgZW5kPSJyIj8+R7ClIwAADR5JREFUeNrsnQuwVWUVx79zeWUXNWB4RIhXCCNUVLiCQJoBlqCIYaIBUpRGltMICE6JxojSjIKlhTmkgmjkoClqcBkTHeSNIAooQkTIw3gooAKCXL39/+x1bvtezjl373P22nufc741s2ZzmXu/x/rt/T3Xt75EVVWVsVK4kiiESrRs3qI1Hp2hX4e2g5ZBW0GbiTaGNqr1Z0ehB6Efiu6CboVugW6Grt29d8/7FnD4ML+MRw9oL9FyaFOl7PZBV0GXiC4D9MMWcPBQ2+IxCNoP+u0UX2NYwq9+IbQC+hxgv2cBZw+1BR5DoddCu8e0mCugs6FPAvYeC9gb2D54jIReBW2QJy3hMejz0IcBeoEFfCLU+nhcBx0rg6V8lrXQ+6BPAXZlUQMWsMOg46HtC2yG8m/o3dJ8VxYdYMC9HI/J0I4FPhXdCB0DyHOLAjDAnonHA9DLimzNYT70FoDeWJCAAbaB9LF3RjjNiVo4zbqLfTRAHysYwIDbCY9Z0HONFcpb0CGA/E5eAwZYpv8L6Wu/ZLnWkCPSok0F6Kq8Awy4XP99DHqNZZlRnoGOAOSDeQMYcDvgMQfayfLzJBugAwH5X7EHDLjfMs6qTlPLzZfsE8iLg0y0JGC4g/FYYOFmJbTZArFhYFIvQLgj8JgJrW9Z5cTj6salpTsOHT60JjaAAfcmPKaZAnEgiFhow4GAvAeQV0UOWL7caZZL4HI5IG/P9UuulyPcwdIs2y9XRwYA8ruA/Hboo2gZLXNA1dByUJXPoH2yHV0nsoTLee5yO1oOdQp1YTbz5EQWcLlCtRL6TWv3UIWLId38rniV+ITLF2K6hRuJ0ObThYHOIAsd/s143JpjQQ9AOWigLzK3DQt9E4L1ZdO6A1qaY3259PsBBl0rA2+iZcvvDZP7Xu4Vbu8GpNuGgwjjOAAMhJ6U50A/Nc5SLTf4F6CuO1x1HYDHCzmmzz3lrkj37cAAy2b96yb3/VwOFlql2+xGPqcYx0eLXpX55ny3DvqwcXywPs5gx93QJjnmxf3kC7w4DXjtg8eZYDbrKzIVioaBPgRlXnRyX5EHYNlc9kOZO0vZP85QP9a9IoA8aZ/bAhlk4a37Bh53BGSM17z+IozBJo5HVK42znmhuAnL9AOZvsz38XeLAsp/vLDJKF42Bh40wflQ+VpbFU+HZ1GRuTK4uyNDWd6Twdu70J3Q90U5mDskfeNR+d1G0tdz0MPDaa1Fv2YcL8+zoKdn6AMnQe9F+Y5kYYPXA7JlI2Hzvaz7YHFt/UdABWLzVJqLs5kssDwKPRu6VFoEfhHrgvaIkPn+OVCu2F1snINufIFuyMUzUvphvnBBndq4IpNLbiJDQepLhc4MqCDbUJDTAzA8y5xAWl+E2R4j3xJpVb4IIK3teLQJqGicgnVK51yfqYkeFiBcyq4gEpFmO/RT6wG/UP8NEHAHYTXD8yBLmpHxCvNDK44EfcaYA66GfkbRPAjW3nLIGyGra/0AvlWhENYv+v+isVo31hNgfOp9jc4q0umWa7W0VUjzHGFX5xf8c62BKApwcrGTFRu0VEr+poyAJWzClUqZc3rTxX68x22g5eI0QBim/YKHGd2wCX0tX1UbNBCGaQEPVq7cAMtX3QaDUwLGp80AYtrRbO62fNVt0B0s26f6gq9Sznji7r17nil2umKDu5SzGZgKcD/FDJeHUKl8koliEy3p7x7ZJsMD0ttCI7TC55yj4c3dYLnWmLFwW5JeIBpnubil2ZRhF5NfcC+jFzdjqoWbsqnmvvVUpeQbCdPqJrqnUkbcEL/H4kwrk8RGGtLTDbiXUiZPxDWGY0y+YtrmCaXka3zBXZUyecRijMxGx5km0NnTD2mHQgZb8IbaLUdvAy6GPWynkHQbfsFa/sfzLDrPUqGUbmcC7qCU+GLLLXJbdSDgMqXEV1pukduqTAswXWO3WW6ehbaq1ALcSiHh7RhgfW65eZ4uEe5OhaRbEXAzhYQ/sdh8ywGFNJtpAf7I8vItB7UAa/hJ1bO8fIvGpsPJBKwRJaex5eVbNNyKG5YoFbbU8vItp2gkqgXYxs6Kic20ALfyGw2mmEVOLrbQAlyp9Da2tug8C22l4a5cWaI4pTnDcvMs7ZTS/ahEaYKtWehCFK2P4QAB71VKvNxy8ywXKKW7l4B3KiXe03KL3FY7NQGfJ+64VjKPoLlm0FkT8GalxLlc2dsirFN6G72l3c0EvEmx8IMsvzrl+4ppb0pIMNDtShlw25CxKQ9bjimbZ3ZhjD6kdTD+tBKJhvqhUgYs+FCLMq0MVYS7j2yTS5WrFSsxOhlEzEqNr5fbg6MVszgeNjJp+KWKGfGQ1Y8s0hPkeqN7+/kyN+AlypWZJLGgrZjquNiTlLNZ7AbMH44qZkbHvvst2mr5g9FxdkzK0RqAJSzuIuVK/RRv7hD79bZgkJQRytksSoY6dg9+Xgyhfo+ggj2KGC5P/IVxDWB1CGg34OdDyJgh/Oajot2LEC7rPM+Ec+nInBMA45NmxPQwjptwgPESKvzdIoLL+Cf/NEp+V7VkpbA84Qum/DWkOrOiFaj4BGi9AgZbD8qwSXMVFzRqyyz3D7UB/80454rCEOb9W+hCGOHcAoTbRaaft5vwbmc9JgxTA8anvdfdfockHHishkH+BG1bAGDPgP7FOCtJYY815tQOmZFIUcBL8HjV54oJR21MmNECuHnNLbD6Wb6B7Cb+jIKuzCOotONFxonUy1CCUXU7vWG3VzMClgLzCrvzPSTI20NOrX2SEH/fHI9R0DEme39fhl56Sl6eNXJXQ6z6V+Pc68SgY4yQH7WT4Vuw0Xm1/zORYTLuNfrLb5Dw72r9/SJZSZkpX+T5ORae18G9Jq0F7x1ajzwPhAyU26q8zqdcWinC/UqM3rnrYZMnvQJm88pAXV6DqDwAvQ0ZHHXN+RhprUJcUmYbV3i9gITbnAxewuvvfh30NTtyMcmD0o/SQ/TUGPcStEPHVFfrZLo3iTtAM3xkwhdiCDJZ40qD3gq3SBPG5vbigCvGLuIid54BQ+4qI+FGJt4yAjaYkW6qkk7YRK/zkQm3vpbAKO6r1ugOxGtp2TcMMsGHaxqjBVdmFdwnHxdzuOulK0wpdV1txxUYv+GQeD9SXxhnaYr0+sukP5BBBbSL9g1oMpjiix7XW8/7syvMtNiQ6Q2uMP7vLuRa69/ddwewH4ZyqY59xOMBVey+MK63kxnCvTGFOy8T3DoBi7AP9btXzL1Od4g+TnHYn02U9DbmWDE68z0boiEZxPtIzOCSya/q+qUSD28wR2h3ZlGAAdIkG/Gq5IrVOJne8N6CXBzuX0E6oV2VJzebvhIzwBOEjcn1C6bQG2NVFoWY4rq1cwN0oUybOJfk1bXvZFm5pREYNE6R+zj4m+zlF0s8vsHsO4cZ/xdMdjQn3jLC+3i54/FH4xy6mgL9zEeaHJm/FIFR4xLUnAyGpbtONtsv2MilyKOymcrU+vll6Z8/ZdMN5T2JXOa7XeactZ3kPzCOOxH77wtlQv9mBIbdGhPAoyRavCfxvY2FJpbLYX6d2XuiUMvSpEe402ShZCx9ifB/TYyzf7ofP38iv1cuCyYvsqkP26rIvwyP/0QMdxbq7sv22Tikj4Su9fk392fY2OdLxrXqm6Fnyf/xanVueKwQ2EZeArYGN0Zk3IMRw10ntjeqgPEGcXmQ9xv6OTjOpnVCmvS24HGacc4wrXb1M9vki0lO0XgX0GXQn0Rk4MoI4bKbulJG874ka08D8Y5cYPw5kf0ShXzI5KGgvtw52h/RoCrlyqBWE5388pZJn+hnNWkqDDVZdmryTaIoM207JFu4OQEWyC/gMdwnZPajbwDypXkGuDQCuMNh45xcqAJxBpOtxceyeGHoljPdOL5Euzzm9VU89oQdjzrkUTThjkQdc76RJRGgATh8n5lDq8Blt/Uy3zwg82GWj+GOuXFRJqPrptAmEXh0hAU4+eUG4sIcWAhbFghGYFC12SY77/32xrsHSdw34HMZUF0nXV8gEujBbBSMW4vfMY6HpaacVIBwabM+QcINHLBApo9UN+ibxopX4cJRt3SrfbECLJB5NoabCo9bdnUKXaN6us8TxR6wQD4E/TH+eYNxnOOs1BTa5EbYaLisDpq8AuwC/ahxnO5WWKbVQlt0CWIaFDlggcxoevToGG387ykX2iiZ26O9YJNNYWQYWngjLkxAf28c78TnihAu69wJNpgS5iJN6PGrOJiA0ke6j3G2BAtd6Ld9KesM3Rp25pEFKENl6cTGTfwfGv/uMPkQkmmD1K0cdX05qkJEGoGOJwahPNLCQ108drnc45/ui6C4Xl2HV0hdzmbdwvDdziSxuxmlZfMWdA5InrNNtWK1GkYrj6hs9Cztmgb+08Y517w0TvaM7dU3ssF+jXH8v3pIWXm4+WdaiwIeylSGB0/vX2KcTQG2ONwUeBpl2h9HOyaqqqqMlcIVGwW2wOV/AgwA+MQnGo+UarEAAAAASUVORK5CYII=;" parent="1" vertex="1">
                    <mxGeometry x="288.5" y="90" width="60" height="60" as="geometry"/>
                </mxCell>
                <mxCell id="11" value="" style="endArrow=classic;html=1;entryX=0;entryY=0.5;entryDx=0;entryDy=0;" parent="1" target="9" edge="1">
                    <mxGeometry relative="1" as="geometry">
                        <mxPoint x="120" y="120" as="sourcePoint"/>
                        <mxPoint x="210" y="150" as="targetPoint"/>
                    </mxGeometry>
                </mxCell>
                <mxCell id="12" value="Push" style="edgeLabel;resizable=0;html=1;align=center;verticalAlign=middle;" parent="11" connectable="0" vertex="1">
                    <mxGeometry relative="1" as="geometry"/>
                </mxCell>
                <mxCell id="14" value="" style="endArrow=classic;html=1;exitX=0.5;exitY=1;exitDx=0;exitDy=0;entryX=0.444;entryY=0;entryDx=0;entryDy=0;entryPerimeter=0;" parent="1" source="24" target="20" edge="1">
                    <mxGeometry relative="1" as="geometry">
                        <mxPoint x="260" y="230" as="sourcePoint"/>
                        <mxPoint x="320" y="320" as="targetPoint"/>
                    </mxGeometry>
                </mxCell>
                <mxCell id="15" value="deploy" style="edgeLabel;resizable=0;html=1;align=center;verticalAlign=middle;" parent="14" connectable="0" vertex="1">
                    <mxGeometry relative="1" as="geometry"/>
                </mxCell>
                <mxCell id="18" value="" style="shape=image;verticalLabelPosition=bottom;labelBackgroundColor=#ffffff;verticalAlign=top;aspect=fixed;imageAspect=0;image=data:image/svg+xml,PHN2ZyB4bWxucz0iaHR0cDovL3d3dy53My5vcmcvMjAwMC9zdmciIHdpZHRoPSIyNTUuNDM3Nzg5OTE2OTkyMiIgaGVpZ2h0PSIzMjkuMjIyOTkxOTQzMzU5NCIgdmlld0JveD0iMC40Njk2MTIzMDAzOTU5NjU2IDAuMDgyMDAwMDAyMjY0OTc2NSAyNTUuNDM3Nzg5OTE2OTkyMiAzMjkuMjIyOTkxOTQzMzU5NCIgcHJlc2VydmVBc3BlY3RSYXRpbz0ieE1pbllNaW4gbWVldCI+PGRlZnM+PGxpbmVhckdyYWRpZW50IHgxPSIzNS4yMDQlIiB5MT0iNjUuMDc5JSIgeDI9IjEwMS4xNTklIiB5Mj0iNTAlIiBpZD0iYSI+PHN0b3Agc3RvcC1jb2xvcj0iI0ZGRiIgb2Zmc2V0PSIwJSIvPjxzdG9wIHN0b3AtY29sb3I9IiNDMDgxNUUiIG9mZnNldD0iMTAwJSIvPjwvbGluZWFyR3JhZGllbnQ+PHJhZGlhbEdyYWRpZW50IGZ4PSI1MCUiIGZ5PSI1MCUiIHI9IjUwLjUyMSUiIGlkPSJiIj48c3RvcCBzdG9wLWNvbG9yPSIjRkZGIiBvZmZzZXQ9IjAlIi8+PHN0b3Agc3RvcC1jb2xvcj0iI0E5NDQzNiIgb2Zmc2V0PSIxMDAlIi8+PC9yYWRpYWxHcmFkaWVudD48L2RlZnM+PHBhdGggZD0iTTQuMDk2IDMyNS40NjNzLjQ5Ny03Ny45ODQuNDk3LTE1Ny4yNkM0LjU5MyAxNC42NTQtOC4zNDYgMy4yMTcgNjAuNTUgMy4yMTdIMjUyLjMydjIyMS40ODNjMCA3Mi45MSAxMy42MjkgMTAxLjQ3Mi02Mi45OTQgMTAxLjQ3Mi03Ni42MjIgMC0xODUuMjI5LS43MDgtMTg1LjIyOS0uNzA4eiIgZmlsbD0iI0E2MkMzOSIvPjxwYXRoIGQ9Ik0xLjg4NyAyOS45MTdzMTIuMjg4IDIuNDU4IDIyLjkzOCAyMC40OGMxMC42NSAxOC4wMjMgNjcuMTc2IDE1OC4xMSA2Ny4xNzYgMTU4LjExVjk0LjYzNEwzOS41NyA5LjQzNyA1NC4zMTcgMjcuNDYgODIuMTcgNC41MiA0Ni4xMjUgMi4wNjQgMS44ODcgMjkuOTE3eiIgdHJhbnNmb3JtPSJ0cmFuc2xhdGUoMTYwLjMxOCAyLjI2NikiIGZpbGw9InVybCgjYSkiLz48cGF0aCBkPSJNMy4xMDIuODg5czgxLjEwMiA1NC4wNjggMTIwLjQyNSA2NC43MThjMzkuMzIyIDEwLjY1IDc5LjQ2NCAyMi4xNSA3OS40NjQgMjIuMTVsLTkyLjU3MiAyMjkuMzUgNDAuMTQyIDEuNjM4IDUyLjQzLTEyOC42MDRMMjAxLjM1Mi4wNyAzLjEwMi44OXoiIG9wYWNpdHk9Ii42NjgiIGZpbGw9InVybCgjYikiIHRyYW5zZm9ybT0idHJhbnNsYXRlKDUwLjE0NyA0LjI2KSIvPjxwYXRoIGQ9Ik0xMjguNjE3IDI0Ni44MTdsODIuNDE5IDc5LjIyLTE1NS4zMy0xLjM5NHMtNC45MTUtNDkuOTcyLTMuMjc2LTc2LjE4N2MxLjYzOC0yNi4yMTUgOS44My0yNi4yMTUgOS44My0yNi4yMTVsNjYuMzU3IDI0LjU3NnoiIGZpbGwtb3BhY2l0eT0iLjQ0IiBmaWxsPSIjRkZGIi8+PHBhdGggZD0iTTIwNi40NDMgMzI2LjI4MmwtNzYuMTg4LTc4LjY0NS02OS42MzMtMjYuMjE1TDYuNTU0IDEwMC45OTcgNjMuODk5IDUuMTVIMjcuMTYzTDkuODMxIDE4LjI1NyA0LjA5NiAyOS43MjZ2Mjk2LjU1NmgyMDIuMzQ3eiIgZmlsbC1vcGFjaXR5PSIuMzYyIi8+PHBhdGggZD0iTTI1My4xMzggMjAwLjk0MnMtNzcuMDA2IDI0LjU3Ni0xMjIuODgzIDQ3LjUxNGMtNDUuODc2IDIyLjkzOS03MC40NTIgNzguNjQ1LTcwLjQ1MiA3OC42NDVzOTguMzA2LTQuOTE1IDEzNS4xNy0zLjI3N2MzNi44NjUgMS42MzkgNTQuMDY5IDEuNjM5IDU3LjM0Ni00OS45NzIgMy4yNzctNTEuNjEuODE5LTcyLjkxLjgxOS03Mi45MXoiIG9wYWNpdHk9Ii41IiBmaWxsPSIjODMyMjJEIi8+PGcgZmlsbD0iI0ZGRiI+PHBhdGggZD0iTTI3LjgzMyAyNDkuODY3djQ4LjM4NWgxMi4zNHYtMTIuNjAzbDExLjIzMiAxMS4yMzFINzAuMzRsLTE1LjAxOC0xNS4wMThzMTAuODA1LS4xNzQgMTEuNjIzLTE1LjgwMWMwLTE0LjMzNy0xMC44MTctMTYuMTk0LTIzLjMxLTE2LjE5NEgyNy44MzN6bTEyLjkyOCAxMy4xMjVoMTAuNjQ0djguNjE5SDQwLjc2di04LjYyek05NC4xNzMgMjUwLjA2M2MtNi43NTYtLjAzOC0xNi4xMjguNTg5LTE2LjEyOCAxMy4zMnYzMy42MjhoMTIuNjY4di04LjIyN2gxMi4yNzV2OC4wMzFoMTIuNzMzdi0zNS4yNmMwLTExLjA2LTEyLjI4Ny0xMS40OTItMTguODctMTEuNDkyLS44MjMgMC0xLjcxMi4wMDctMi42NzggMHptLTMuMjY0IDEyLjE0NWgxMS44ODN2MTMuMjU1SDkwLjkxdi0xMy4yNTV6TTEyOC40MTIgMjUwLjA5NWgxMy4xMDd2NDYuMjg2aC0xMy4xMDd6TTE1NS4yNDIgMjUwLjcxdjQ2LjI4NWgzMS41NHYtMTIuMjg4aC0xOC42Mzh2LTM0LjIwM2wtMTIuOTAyLjIwNXpNMjI4LjU2MSAyNTAuM3YxMi40OTNoLTIxLjA5NHY0LjUwNWg5LjAxMWM0LjcxIDAgMTQuNTQxLS4yMDQgMTQuNTQxIDE0LjU0MiAwIDE0Ljc0NS02Ljc1OCAxNS41NjUtMjAuNDggMTUuNTY1aC0xNi41OVYyODYuMTRoMTkuMDQ3YzUuNzM1IDAgNi4wNTEtMS44NjYgNi4wNTEtMy40OTMgMC0xLjYyNy0yLjkzMi0yLjM4My04Ljg5NS0yLjM4My01Ljk2MiAwLTE3LjAyMi0yLjkzLTE3LjAyMi0xNC40IDAtMTEuNDY4IDUuNzM1LTE1Ljc3IDE3LjIwNC0xNS43NyAxMS40NjkgMCAxOC4yMjcuMjA2IDE4LjIyNy4yMDZ6Ii8+PC9nPjxnIGZpbGw9IiNGRkYiPjxwYXRoIGQ9Ik0zOS4zMjIgMjM2LjE2OGgxMDguOTU2cy0yNC4xNjctNTQuODg3LTE4LjAyMy0xMDUuMjdjNi4xNDUtNTAuMzgxIDQ1Ljg3Ny03My4zMTkgNjguNDA1LTc1Ljc3NyAyMi41MjktMi40NTcgMzQuODE3IDExLjQ3IDM0LjgxNyAxMS40N2w0LjkxNS03LjM3NHMtMzIuMzU5LTMyLjc2OC03My4zMi0yOS4wODJjLTQwLjk2IDMuNjg3LTY5LjIyNCAzMC43Mi04Ni44MzcgNjMuNDktMTcuNjEzIDMyLjc2OC0yNy44NTMgNTUuNzA2LTM0LjgxNyA5MC4xMTMtNi45NjMgMzQuNDA3LTQuMDk2IDUyLjQzLTQuMDk2IDUyLjQzek0xNy42MTMgMTgxLjI4bDIxLjMgMS42NC0zLjY4NyAyMS4yOTktMjAuMDctMi40NTggMi40NTctMjAuNDh6TTUxLjIwMSAxMzYuMjI0bDUuNzM1LTE1Ljk3NS0xOC44NDItNy4zNzMtNi4xNDUgMTcuMjA0IDE5LjI1MiA2LjE0NHpNNzcuODI2IDgxLjMzNkw4OC44ODUgNjguMjNsLTE0LjMzNi05LjQyMS0xMS40NyAxMi42OTggMTQuNzQ3IDkuODN6TTEwNi45MDggMzAuNTQ1bDkuODMgMTEuODc4IDEzLjUxNy03Ljc4Mi05LjgzLTExLjA2LTEzLjUxNyA2Ljk2NHpNMTU0LjgzMiAxNy4wMjhsMi40NTggMTEuODc4IDE2Ljc5NC0uNDEtMS42MzktMTAuNjQ5LTE3LjYxMy0uODJ6Ii8+PHBhdGggZD0iTTIxMS43NjggMjkuNzI2bC0uNDEgNy4zNzMgMTEuNDY5IDYuMTQ0IDIuNDU4LTMuNjg3LTEzLjUxNy05Ljgzek0yMDkuMzEgNjEuMjY1djYuMTQ1bDExLjA2IDEuMjI4di00LjkxNWwtMTEuMDYtMi40NTh6TTE3NC4wODQgNjYuNTlsNS4zMjQgOS44MzEgNy43ODMtNi4xNDQtMS42MzgtNi41NTQtMTEuNDcgMi44Njd6TTE1Ny4yOSA3OS4yODhsOC4xOTIgMTIuMjg4LTQuOTE2IDguNjAyLTExLjg3OC0xMy4xMDcgOC42MDItNy43ODN6TTE0MC45MDUgMTEzLjI4NmwtNS4zMjUgMTAuNjUgMTMuOTI3IDExLjg3OCAzLjI3Ny0xMy41MTctMTEuODc5LTkuMDExek0xMzUuMTcgMTUwLjU2bC0uODE4IDE0LjMzNiAxNy4yMDMgNy4zNzMtLjgyLTEzLjUxNy0xNS41NjQtOC4xOTJ6TTE0MC4wODYgMjAxLjM1MWw0LjA5NiAxNC43NDYgMjEuNzEgMS4yMy03Ljc4My0xNS45NzZoLTE4LjAyM3oiLz48L2c+PHBhdGggZD0iTTcuMjMgMzI1LjQ4M2wuMDA2LS44OTYuMDE2LTIuNjExLjA1Ni05LjkyYy4wNTgtMTAuNjg4LjExNi0yMi42MTUuMTctMzUuNDgxLjE1Ni0zNi43Ni4yNDktNzMuNjgzLjI0OS0xMDguMzcxIDAtMTcuODc0LS4xNTQtMzMuNDgzLS40ODMtNTUuMzIzLTEuMDA2LTY2LjczLS41MjItNzkuNDQgNS4wNDgtOTEuNDMzQzE3Ljg4OCA5LjQgMjguMzkyIDYuMzUgNjAuNTUgNi4zNUgyNTIuMzJsLTMuMTM0LTMuMTM0djIyMS40ODNjMCA2Ljc5Ny4wNzMgMTIuNjYyLjI1IDIyLjU0MS42ODYgMzguMDc3LS4xNTcgNDguOTA0LTYuMzAzIDU4LjkzOC03LjE4OCAxMS43MzctMjIuNjYzIDE2Ljg1OS01My44MDcgMTYuODU5LTE3LjU4MyAwLTM4LjI2OS0uMDQtNjEuNDIzLS4xMTYtMTguNjI0LS4wNi0zOC4zNjYtLjE0MS01OC42OC0uMjM4YTQ5NzU3Ljk3IDQ5NzU3Ljk3IDAgMCAxLTYzLjgzMi0uMzQ2bC0xLjI3NC0uMDA4IDMuMTE0IDMuMTU0em0tNi4yODggMy4wOTRsMy4xMzQuMDJhMTA0NTkuMDQ4IDEwNDU5LjA0OCAwIDAgMCA0Ljk1Mi4wMyA0OTc2My4xOTUgNDk3NjMuMTk1IDAgMCAwIDYwLjE2My4zMjRjMjAuMzE4LjA5NyA0MC4wNjMuMTc4IDU4LjY5MS4yMzkgMjMuMTYuMDc1IDQzLjg1Mi4xMTUgNjEuNDQzLjExNSAzMy4xMDggMCA1MC41MjQtNS43NjQgNTkuMTUzLTE5Ljg1MyA3LjA3LTExLjU0MyA3LjkzOC0yMi43MDMgNy4yMjUtNjIuMzI0LS4xNzctOS44NDQtLjI1LTE1LjY3OS0uMjUtMjIuNDI5Vi4wODJINjAuNTVDMjYuMDcuMDgyIDEzLjYyNiAzLjY5NCA2LjYwNyAxOC44MDcgMy4wOTggMjYuMzYyIDEuNDAzIDM2LjgyMS43ODggNTIuOTguMzE0IDY1LjQzMi4zNjMgNzIuMjk1Ljk3NyAxMTIuOTc2Yy4zMjggMjEuODExLjQ4MiAzNy4zOTEuNDgyIDU1LjIyOCAwIDM0LjY3OC0uMDk0IDcxLjU5Mi0uMjQ5IDEwOC4zNDRhMjkxNTMuMzk5IDI5MTUzLjM5OSAwIDAgMS0uMjI3IDQ1LjM5bC0uMDE1IDIuNjEtLjAyNiA0LjAzeiIgZmlsbD0iIzVFMDAwRSIvPjwvc3ZnPg==;" parent="1" vertex="1">
                    <mxGeometry x="282.75" y="405" width="62" height="80" as="geometry"/>
                </mxCell>
                <mxCell id="21" value="sendgrid / freeplan&lt;br&gt;(メール配信)" style="text;html=1;strokeColor=none;fillColor=none;align=center;verticalAlign=middle;whiteSpace=wrap;rounded=0;" parent="1" vertex="1">
                    <mxGeometry x="193.5" y="666" width="120" height="20" as="geometry"/>
                </mxCell>
                <mxCell id="22" value="clearDB" style="text;html=1;strokeColor=none;fillColor=none;align=center;verticalAlign=middle;whiteSpace=wrap;rounded=0;" parent="1" vertex="1">
                    <mxGeometry x="400" y="610" width="60" height="40" as="geometry"/>
                </mxCell>
                <mxCell id="23" value="CircleCI(CI/CD)" style="text;html=1;strokeColor=none;fillColor=none;align=center;verticalAlign=middle;whiteSpace=wrap;rounded=0;" parent="1" vertex="1">
                    <mxGeometry x="135" y="260" width="130" height="20" as="geometry"/>
                </mxCell>
                <mxCell id="24" value="Github" style="text;html=1;strokeColor=none;fillColor=none;align=center;verticalAlign=middle;whiteSpace=wrap;rounded=0;" parent="1" vertex="1">
                    <mxGeometry x="300" y="160" width="40" height="20" as="geometry"/>
                </mxCell>
                <mxCell id="26" value="clearDB /ignite plan&lt;br&gt;(MYSQLデータベース)" style="text;html=1;strokeColor=none;fillColor=none;align=center;verticalAlign=middle;whiteSpace=wrap;rounded=0;" parent="1" vertex="1">
                    <mxGeometry x="365" y="666" width="130" height="20" as="geometry"/>
                </mxCell>
                <mxCell id="27" value="" style="endArrow=classic;html=1;exitX=0.5;exitY=0;exitDx=0;exitDy=0;" parent="1" source="5" edge="1">
                    <mxGeometry width="50" height="50" relative="1" as="geometry">
                        <mxPoint x="380" y="120" as="sourcePoint"/>
                        <mxPoint x="200" y="130" as="targetPoint"/>
                    </mxGeometry>
                </mxCell>
                <mxCell id="28" value="" style="endArrow=classic;html=1;exitX=1;exitY=0.5;exitDx=0;exitDy=0;" parent="1" source="5" edge="1">
                    <mxGeometry width="50" height="50" relative="1" as="geometry">
                        <mxPoint x="210" y="190" as="sourcePoint"/>
                        <mxPoint x="320" y="220" as="targetPoint"/>
                    </mxGeometry>
                </mxCell>
                <mxCell id="29" value="" style="rounded=0;whiteSpace=wrap;html=1;" parent="1" vertex="1">
                    <mxGeometry x="370" y="450" width="80" height="40" as="geometry"/>
                </mxCell>
                <mxCell id="30" value="caxlsx" style="text;html=1;strokeColor=none;fillColor=none;align=center;verticalAlign=middle;whiteSpace=wrap;rounded=0;" parent="1" vertex="1">
                    <mxGeometry x="380" y="452" width="60" height="40" as="geometry"/>
                </mxCell>
                <mxCell id="31" value="エクセル出力gem" style="text;html=1;strokeColor=none;fillColor=none;align=center;verticalAlign=middle;whiteSpace=wrap;rounded=0;" parent="1" vertex="1">
                    <mxGeometry x="350" y="492" width="120" height="20" as="geometry"/>
                </mxCell>
                <mxCell id="33" value="" style="endArrow=classic;html=1;exitX=1;exitY=0.5;exitDx=0;exitDy=0;" parent="1" source="29" edge="1">
                    <mxGeometry width="50" height="50" relative="1" as="geometry">
                        <mxPoint x="580" y="485" as="sourcePoint"/>
                        <mxPoint x="600" y="470" as="targetPoint"/>
                    </mxGeometry>
                </mxCell>
                <mxCell id="34" value="" style="rounded=0;whiteSpace=wrap;html=1;" parent="1" vertex="1">
                    <mxGeometry x="600" y="437" width="70" height="70" as="geometry"/>
                </mxCell>
                <mxCell id="35" value="excel" style="text;html=1;strokeColor=none;fillColor=none;align=center;verticalAlign=middle;whiteSpace=wrap;rounded=0;" parent="1" vertex="1">
                    <mxGeometry x="605" y="452" width="60" height="40" as="geometry"/>
                </mxCell>
                <mxCell id="36" value="家計簿データの出力" style="text;html=1;strokeColor=none;fillColor=none;align=center;verticalAlign=middle;whiteSpace=wrap;rounded=0;" parent="1" vertex="1">
                    <mxGeometry x="576" y="509" width="120" height="20" as="geometry"/>
                </mxCell>
                <mxCell id="37" value="" style="endArrow=classic;startArrow=classic;html=1;exitX=0.5;exitY=0;exitDx=0;exitDy=0;entryX=0.259;entryY=1.007;entryDx=0;entryDy=0;entryPerimeter=0;" parent="1" target="20" edge="1">
                    <mxGeometry width="50" height="50" relative="1" as="geometry">
                        <mxPoint x="253.5" y="600" as="sourcePoint"/>
                        <mxPoint x="280" y="580" as="targetPoint"/>
                    </mxGeometry>
                </mxCell>
                <mxCell id="38" value="" style="endArrow=classic;startArrow=classic;html=1;entryX=0.75;entryY=1;entryDx=0;entryDy=0;" parent="1" source="25" target="20" edge="1">
                    <mxGeometry width="50" height="50" relative="1" as="geometry">
                        <mxPoint x="414" y="600" as="sourcePoint"/>
                        <mxPoint x="464" y="550" as="targetPoint"/>
                    </mxGeometry>
                </mxCell>
                <mxCell id="39" value="" style="shape=image;verticalLabelPosition=bottom;labelBackgroundColor=#ffffff;verticalAlign=top;aspect=fixed;imageAspect=0;image=data:image/svg+xml,PHN2ZyB4bWxucz0iaHR0cDovL3d3dy53My5vcmcvMjAwMC9zdmciIHdpZHRoPSIyNTYiIGhlaWdodD0iMjU2IiB2aWV3Qm94PSIwIDAgMjU2IDI1NiIgcHJlc2VydmVBc3BlY3RSYXRpbz0ieE1pZFlNaWQiPjxwYXRoIGZpbGw9IiM5REUxRjMiIGQ9Ik04NS4zMzQgODUuMzMzSDBWMjU2aDE3MC42NjdWODUuMzMzeiIvPjxwYXRoIGZpbGw9IiMyN0I0RTEiIGQ9Ik04NS4zMzQgMHYxNzAuNjY2SDI1NlYweiIvPjxwYXRoIGZpbGw9IiMxQTgyRTIiIGQ9Ik0wIDI1Nmg4NS4zMzN2LTg1LjMzM0gwek0xNzAuNjY3IDg1LjMzM0gyNTZWMGgtODUuMzMzeiIvPjxwYXRoIGZpbGw9IiMyMzlGRDciIGQ9Ik04NS4zMzQgMTcwLjY2N2g4NS4zMzNWODUuMzM0SDg1LjMzNHoiLz48L3N2Zz4=;" parent="1" vertex="1">
                    <mxGeometry x="224.25" y="600" width="58.5" height="58.5" as="geometry"/>
                </mxCell>
            </root>
        </mxGraphModel>
    </diagram>
</mxfile>